<mxfile host="app.diagrams.net" modified="2023-05-06T17:41:14.328Z" agent="Mozilla/5.0 (Windows NT 10.0; Win64; x64) AppleWebKit/537.36 (KHTML, like Gecko) Chrome/112.0.0.0 Safari/537.36" etag="ArmNbWEkPdHI-I8h9b9G" version="21.2.9" type="device">
  <diagram id="C5RBs43oDa-KdzZeNtuy" name="Page-1">
    <mxGraphModel dx="-2765" dy="615" grid="1" gridSize="10" guides="1" tooltips="1" connect="1" arrows="1" fold="1" page="1" pageScale="1" pageWidth="4000" pageHeight="1700" math="0" shadow="0">
      <root>
        <mxCell id="WIyWlLk6GJQsqaUBKTNV-0" />
        <mxCell id="WIyWlLk6GJQsqaUBKTNV-1" parent="WIyWlLk6GJQsqaUBKTNV-0" />
        <mxCell id="zkfFHV4jXpPFQw0GAbJ--0" value="Login" style="swimlane;fontStyle=3;align=center;verticalAlign=top;childLayout=stackLayout;horizontal=1;startSize=26;horizontalStack=0;resizeParent=1;resizeLast=0;collapsible=1;marginBottom=0;rounded=0;shadow=0;strokeWidth=1;" parent="WIyWlLk6GJQsqaUBKTNV-1" vertex="1">
          <mxGeometry x="6850" y="40" width="250" height="252" as="geometry">
            <mxRectangle x="230" y="140" width="160" height="26" as="alternateBounds" />
          </mxGeometry>
        </mxCell>
        <mxCell id="zkfFHV4jXpPFQw0GAbJ--1" value="- username:String" style="text;align=left;verticalAlign=top;spacingLeft=4;spacingRight=4;overflow=hidden;rotatable=0;points=[[0,0.5],[1,0.5]];portConstraint=eastwest;" parent="zkfFHV4jXpPFQw0GAbJ--0" vertex="1">
          <mxGeometry y="26" width="250" height="26" as="geometry" />
        </mxCell>
        <mxCell id="zkfFHV4jXpPFQw0GAbJ--2" value="- password:String" style="text;align=left;verticalAlign=top;spacingLeft=4;spacingRight=4;overflow=hidden;rotatable=0;points=[[0,0.5],[1,0.5]];portConstraint=eastwest;rounded=0;shadow=0;html=0;" parent="zkfFHV4jXpPFQw0GAbJ--0" vertex="1">
          <mxGeometry y="52" width="250" height="26" as="geometry" />
        </mxCell>
        <mxCell id="X0b0RHwHDyXbMrfLogEa-137" value="- Subcriber: ArrayList&lt;Observer&gt;" style="text;align=left;verticalAlign=top;spacingLeft=4;spacingRight=4;overflow=hidden;rotatable=0;points=[[0,0.5],[1,0.5]];portConstraint=eastwest;rounded=0;shadow=0;html=0;" parent="zkfFHV4jXpPFQw0GAbJ--0" vertex="1">
          <mxGeometry y="78" width="250" height="26" as="geometry" />
        </mxCell>
        <mxCell id="zkfFHV4jXpPFQw0GAbJ--4" value="" style="line;html=1;strokeWidth=1;align=left;verticalAlign=middle;spacingTop=-1;spacingLeft=3;spacingRight=3;rotatable=0;labelPosition=right;points=[];portConstraint=eastwest;" parent="zkfFHV4jXpPFQw0GAbJ--0" vertex="1">
          <mxGeometry y="104" width="250" height="8" as="geometry" />
        </mxCell>
        <mxCell id="zkfFHV4jXpPFQw0GAbJ--5" value="+ checkUsername() : boolean&#xa;" style="text;align=left;verticalAlign=top;spacingLeft=4;spacingRight=4;overflow=hidden;rotatable=0;points=[[0,0.5],[1,0.5]];portConstraint=eastwest;" parent="zkfFHV4jXpPFQw0GAbJ--0" vertex="1">
          <mxGeometry y="112" width="250" height="26" as="geometry" />
        </mxCell>
        <mxCell id="X0b0RHwHDyXbMrfLogEa-1" value="+ checkPassword() : boolean&#xa;" style="text;align=left;verticalAlign=top;spacingLeft=4;spacingRight=4;overflow=hidden;rotatable=0;points=[[0,0.5],[1,0.5]];portConstraint=eastwest;" parent="zkfFHV4jXpPFQw0GAbJ--0" vertex="1">
          <mxGeometry y="138" width="250" height="26" as="geometry" />
        </mxCell>
        <mxCell id="X0b0RHwHDyXbMrfLogEa-0" value="+ login(username:String, password:String)" style="text;align=left;verticalAlign=top;spacingLeft=4;spacingRight=4;overflow=hidden;rotatable=0;points=[[0,0.5],[1,0.5]];portConstraint=eastwest;" parent="zkfFHV4jXpPFQw0GAbJ--0" vertex="1">
          <mxGeometry y="164" width="250" height="22" as="geometry" />
        </mxCell>
        <mxCell id="X0b0RHwHDyXbMrfLogEa-83" value="+ attach(Observer): void" style="text;align=left;verticalAlign=top;spacingLeft=4;spacingRight=4;overflow=hidden;rotatable=0;points=[[0,0.5],[1,0.5]];portConstraint=eastwest;" parent="zkfFHV4jXpPFQw0GAbJ--0" vertex="1">
          <mxGeometry y="186" width="250" height="22" as="geometry" />
        </mxCell>
        <mxCell id="X0b0RHwHDyXbMrfLogEa-135" value="+ detach(Observer): void" style="text;align=left;verticalAlign=top;spacingLeft=4;spacingRight=4;overflow=hidden;rotatable=0;points=[[0,0.5],[1,0.5]];portConstraint=eastwest;" parent="zkfFHV4jXpPFQw0GAbJ--0" vertex="1">
          <mxGeometry y="208" width="250" height="22" as="geometry" />
        </mxCell>
        <mxCell id="X0b0RHwHDyXbMrfLogEa-136" value="+ notify(): void" style="text;align=left;verticalAlign=top;spacingLeft=4;spacingRight=4;overflow=hidden;rotatable=0;points=[[0,0.5],[1,0.5]];portConstraint=eastwest;" parent="zkfFHV4jXpPFQw0GAbJ--0" vertex="1">
          <mxGeometry y="230" width="250" height="22" as="geometry" />
        </mxCell>
        <mxCell id="zkfFHV4jXpPFQw0GAbJ--17" value="Signup" style="swimlane;fontStyle=1;align=center;verticalAlign=top;childLayout=stackLayout;horizontal=1;startSize=26;horizontalStack=0;resizeParent=1;resizeLast=0;collapsible=1;marginBottom=0;rounded=0;shadow=0;strokeWidth=1;" parent="WIyWlLk6GJQsqaUBKTNV-1" vertex="1">
          <mxGeometry x="7140" y="20" width="390" height="330" as="geometry">
            <mxRectangle x="550" y="140" width="160" height="26" as="alternateBounds" />
          </mxGeometry>
        </mxCell>
        <mxCell id="zkfFHV4jXpPFQw0GAbJ--18" value="- ssn: String" style="text;align=left;verticalAlign=top;spacingLeft=4;spacingRight=4;overflow=hidden;rotatable=0;points=[[0,0.5],[1,0.5]];portConstraint=eastwest;" parent="zkfFHV4jXpPFQw0GAbJ--17" vertex="1">
          <mxGeometry y="26" width="390" height="26" as="geometry" />
        </mxCell>
        <mxCell id="zkfFHV4jXpPFQw0GAbJ--19" value="- username: String" style="text;align=left;verticalAlign=top;spacingLeft=4;spacingRight=4;overflow=hidden;rotatable=0;points=[[0,0.5],[1,0.5]];portConstraint=eastwest;rounded=0;shadow=0;html=0;" parent="zkfFHV4jXpPFQw0GAbJ--17" vertex="1">
          <mxGeometry y="52" width="390" height="26" as="geometry" />
        </mxCell>
        <mxCell id="zkfFHV4jXpPFQw0GAbJ--20" value="- password: String" style="text;align=left;verticalAlign=top;spacingLeft=4;spacingRight=4;overflow=hidden;rotatable=0;points=[[0,0.5],[1,0.5]];portConstraint=eastwest;rounded=0;shadow=0;html=0;" parent="zkfFHV4jXpPFQw0GAbJ--17" vertex="1">
          <mxGeometry y="78" width="390" height="26" as="geometry" />
        </mxCell>
        <mxCell id="zkfFHV4jXpPFQw0GAbJ--21" value="- name: String" style="text;align=left;verticalAlign=top;spacingLeft=4;spacingRight=4;overflow=hidden;rotatable=0;points=[[0,0.5],[1,0.5]];portConstraint=eastwest;rounded=0;shadow=0;html=0;" parent="zkfFHV4jXpPFQw0GAbJ--17" vertex="1">
          <mxGeometry y="104" width="390" height="26" as="geometry" />
        </mxCell>
        <mxCell id="zkfFHV4jXpPFQw0GAbJ--22" value="- address: String" style="text;align=left;verticalAlign=top;spacingLeft=4;spacingRight=4;overflow=hidden;rotatable=0;points=[[0,0.5],[1,0.5]];portConstraint=eastwest;rounded=0;shadow=0;html=0;" parent="zkfFHV4jXpPFQw0GAbJ--17" vertex="1">
          <mxGeometry y="130" width="390" height="26" as="geometry" />
        </mxCell>
        <mxCell id="zkfFHV4jXpPFQw0GAbJ--25" value="- email: String" style="text;align=left;verticalAlign=top;spacingLeft=4;spacingRight=4;overflow=hidden;rotatable=0;points=[[0,0.5],[1,0.5]];portConstraint=eastwest;" parent="zkfFHV4jXpPFQw0GAbJ--17" vertex="1">
          <mxGeometry y="156" width="390" height="30" as="geometry" />
        </mxCell>
        <mxCell id="zkfFHV4jXpPFQw0GAbJ--23" value="" style="line;html=1;strokeWidth=1;align=left;verticalAlign=middle;spacingTop=-1;spacingLeft=3;spacingRight=3;rotatable=0;labelPosition=right;points=[];portConstraint=eastwest;" parent="zkfFHV4jXpPFQw0GAbJ--17" vertex="1">
          <mxGeometry y="186" width="390" height="8" as="geometry" />
        </mxCell>
        <mxCell id="X0b0RHwHDyXbMrfLogEa-74" value="+ signup(ssn:String, un:String, pass:String, name:String, address:String)" style="text;align=left;verticalAlign=top;spacingLeft=4;spacingRight=4;overflow=hidden;rotatable=0;points=[[0,0.5],[1,0.5]];portConstraint=eastwest;" parent="zkfFHV4jXpPFQw0GAbJ--17" vertex="1">
          <mxGeometry y="194" width="390" height="26" as="geometry" />
        </mxCell>
        <mxCell id="X0b0RHwHDyXbMrfLogEa-11" value="+ checkPasswordWeak(): boolean" style="text;align=left;verticalAlign=top;spacingLeft=4;spacingRight=4;overflow=hidden;rotatable=0;points=[[0,0.5],[1,0.5]];portConstraint=eastwest;" parent="zkfFHV4jXpPFQw0GAbJ--17" vertex="1">
          <mxGeometry y="220" width="390" height="26" as="geometry" />
        </mxCell>
        <mxCell id="X0b0RHwHDyXbMrfLogEa-12" value="+ checkValidSSN(): boolean" style="text;align=left;verticalAlign=top;spacingLeft=4;spacingRight=4;overflow=hidden;rotatable=0;points=[[0,0.5],[1,0.5]];portConstraint=eastwest;" parent="zkfFHV4jXpPFQw0GAbJ--17" vertex="1">
          <mxGeometry y="246" width="390" height="26" as="geometry" />
        </mxCell>
        <mxCell id="X0b0RHwHDyXbMrfLogEa-10" value="+ checkUsernameExists(): boolean" style="text;align=left;verticalAlign=top;spacingLeft=4;spacingRight=4;overflow=hidden;rotatable=0;points=[[0,0.5],[1,0.5]];portConstraint=eastwest;" parent="zkfFHV4jXpPFQw0GAbJ--17" vertex="1">
          <mxGeometry y="272" width="390" height="26" as="geometry" />
        </mxCell>
        <mxCell id="X0b0RHwHDyXbMrfLogEa-13" value="- storeInDB(): boolean" style="text;align=left;verticalAlign=top;spacingLeft=4;spacingRight=4;overflow=hidden;rotatable=0;points=[[0,0.5],[1,0.5]];portConstraint=eastwest;" parent="zkfFHV4jXpPFQw0GAbJ--17" vertex="1">
          <mxGeometry y="298" width="390" height="26" as="geometry" />
        </mxCell>
        <mxCell id="X0b0RHwHDyXbMrfLogEa-19" value="user" style="swimlane;fontStyle=1;align=center;verticalAlign=top;childLayout=stackLayout;horizontal=1;startSize=26;horizontalStack=0;resizeParent=1;resizeLast=0;collapsible=1;marginBottom=0;rounded=0;shadow=0;strokeWidth=1;" parent="WIyWlLk6GJQsqaUBKTNV-1" vertex="1">
          <mxGeometry x="6922" y="410" width="180" height="190" as="geometry">
            <mxRectangle x="550" y="140" width="160" height="26" as="alternateBounds" />
          </mxGeometry>
        </mxCell>
        <mxCell id="X0b0RHwHDyXbMrfLogEa-20" value="- ssn: String" style="text;align=left;verticalAlign=top;spacingLeft=4;spacingRight=4;overflow=hidden;rotatable=0;points=[[0,0.5],[1,0.5]];portConstraint=eastwest;" parent="X0b0RHwHDyXbMrfLogEa-19" vertex="1">
          <mxGeometry y="26" width="180" height="26" as="geometry" />
        </mxCell>
        <mxCell id="X0b0RHwHDyXbMrfLogEa-21" value="- LoginInstance: login" style="text;align=left;verticalAlign=top;spacingLeft=4;spacingRight=4;overflow=hidden;rotatable=0;points=[[0,0.5],[1,0.5]];portConstraint=eastwest;rounded=0;shadow=0;html=0;" parent="X0b0RHwHDyXbMrfLogEa-19" vertex="1">
          <mxGeometry y="52" width="180" height="26" as="geometry" />
        </mxCell>
        <mxCell id="X0b0RHwHDyXbMrfLogEa-23" value="- name: String" style="text;align=left;verticalAlign=top;spacingLeft=4;spacingRight=4;overflow=hidden;rotatable=0;points=[[0,0.5],[1,0.5]];portConstraint=eastwest;rounded=0;shadow=0;html=0;" parent="X0b0RHwHDyXbMrfLogEa-19" vertex="1">
          <mxGeometry y="78" width="180" height="26" as="geometry" />
        </mxCell>
        <mxCell id="X0b0RHwHDyXbMrfLogEa-79" value="- email: String" style="text;align=left;verticalAlign=top;spacingLeft=4;spacingRight=4;overflow=hidden;rotatable=0;points=[[0,0.5],[1,0.5]];portConstraint=eastwest;rounded=0;shadow=0;html=0;" parent="X0b0RHwHDyXbMrfLogEa-19" vertex="1">
          <mxGeometry y="104" width="180" height="26" as="geometry" />
        </mxCell>
        <mxCell id="X0b0RHwHDyXbMrfLogEa-24" value="- address: String" style="text;align=left;verticalAlign=top;spacingLeft=4;spacingRight=4;overflow=hidden;rotatable=0;points=[[0,0.5],[1,0.5]];portConstraint=eastwest;rounded=0;shadow=0;html=0;" parent="X0b0RHwHDyXbMrfLogEa-19" vertex="1">
          <mxGeometry y="130" width="180" height="26" as="geometry" />
        </mxCell>
        <mxCell id="X0b0RHwHDyXbMrfLogEa-25" value="" style="line;html=1;strokeWidth=1;align=left;verticalAlign=middle;spacingTop=-1;spacingLeft=3;spacingRight=3;rotatable=0;labelPosition=right;points=[];portConstraint=eastwest;" parent="X0b0RHwHDyXbMrfLogEa-19" vertex="1">
          <mxGeometry y="156" width="180" height="8" as="geometry" />
        </mxCell>
        <mxCell id="X0b0RHwHDyXbMrfLogEa-146" value="+ update(): void" style="text;align=left;verticalAlign=top;spacingLeft=4;spacingRight=4;overflow=hidden;rotatable=0;points=[[0,0.5],[1,0.5]];portConstraint=eastwest;rounded=0;shadow=0;html=0;" parent="X0b0RHwHDyXbMrfLogEa-19" vertex="1">
          <mxGeometry y="164" width="180" height="26" as="geometry" />
        </mxCell>
        <mxCell id="X0b0RHwHDyXbMrfLogEa-52" value="" style="endArrow=none;html=1;edgeStyle=orthogonalEdgeStyle;rounded=0;exitX=0.5;exitY=1;exitDx=0;exitDy=0;entryX=0.5;entryY=0;entryDx=0;entryDy=0;" parent="WIyWlLk6GJQsqaUBKTNV-1" source="zkfFHV4jXpPFQw0GAbJ--0" target="X0b0RHwHDyXbMrfLogEa-19" edge="1">
          <mxGeometry relative="1" as="geometry">
            <mxPoint x="7000" y="340" as="sourcePoint" />
            <mxPoint x="7160" y="340" as="targetPoint" />
          </mxGeometry>
        </mxCell>
        <mxCell id="X0b0RHwHDyXbMrfLogEa-53" value="1" style="edgeLabel;resizable=0;html=1;align=left;verticalAlign=bottom;" parent="X0b0RHwHDyXbMrfLogEa-52" connectable="0" vertex="1">
          <mxGeometry x="-1" relative="1" as="geometry">
            <mxPoint y="20" as="offset" />
          </mxGeometry>
        </mxCell>
        <mxCell id="X0b0RHwHDyXbMrfLogEa-54" value="1" style="edgeLabel;resizable=0;html=1;align=right;verticalAlign=bottom;" parent="X0b0RHwHDyXbMrfLogEa-52" connectable="0" vertex="1">
          <mxGeometry x="1" relative="1" as="geometry" />
        </mxCell>
        <mxCell id="X0b0RHwHDyXbMrfLogEa-58" value="Client" style="swimlane;fontStyle=1;align=center;verticalAlign=top;childLayout=stackLayout;horizontal=1;startSize=26;horizontalStack=0;resizeParent=1;resizeParentMax=0;resizeLast=0;collapsible=1;marginBottom=0;whiteSpace=wrap;html=1;" parent="WIyWlLk6GJQsqaUBKTNV-1" vertex="1">
          <mxGeometry x="6810" y="730" width="300" height="814" as="geometry" />
        </mxCell>
        <mxCell id="X0b0RHwHDyXbMrfLogEa-59" value="- points: int" style="text;strokeColor=none;fillColor=none;align=left;verticalAlign=top;spacingLeft=4;spacingRight=4;overflow=hidden;rotatable=0;points=[[0,0.5],[1,0.5]];portConstraint=eastwest;whiteSpace=wrap;html=1;" parent="X0b0RHwHDyXbMrfLogEa-58" vertex="1">
          <mxGeometry y="26" width="300" height="26" as="geometry" />
        </mxCell>
        <mxCell id="X0b0RHwHDyXbMrfLogEa-91" value="- accountApplications: AccountApplications" style="text;strokeColor=none;fillColor=none;align=left;verticalAlign=top;spacingLeft=4;spacingRight=4;overflow=hidden;rotatable=0;points=[[0,0.5],[1,0.5]];portConstraint=eastwest;whiteSpace=wrap;html=1;" parent="X0b0RHwHDyXbMrfLogEa-58" vertex="1">
          <mxGeometry y="52" width="300" height="26" as="geometry" />
        </mxCell>
        <mxCell id="X0b0RHwHDyXbMrfLogEa-92" value="- cardApplications: CreditCardApplications" style="text;strokeColor=none;fillColor=none;align=left;verticalAlign=top;spacingLeft=4;spacingRight=4;overflow=hidden;rotatable=0;points=[[0,0.5],[1,0.5]];portConstraint=eastwest;whiteSpace=wrap;html=1;" parent="X0b0RHwHDyXbMrfLogEa-58" vertex="1">
          <mxGeometry y="78" width="300" height="26" as="geometry" />
        </mxCell>
        <mxCell id="X0b0RHwHDyXbMrfLogEa-93" value="- loans: LoanManager" style="text;strokeColor=none;fillColor=none;align=left;verticalAlign=top;spacingLeft=4;spacingRight=4;overflow=hidden;rotatable=0;points=[[0,0.5],[1,0.5]];portConstraint=eastwest;whiteSpace=wrap;html=1;" parent="X0b0RHwHDyXbMrfLogEa-58" vertex="1">
          <mxGeometry y="104" width="300" height="26" as="geometry" />
        </mxCell>
        <mxCell id="X0b0RHwHDyXbMrfLogEa-272" value="- loanApplications: LoanApplications" style="text;strokeColor=none;fillColor=none;align=left;verticalAlign=top;spacingLeft=4;spacingRight=4;overflow=hidden;rotatable=0;points=[[0,0.5],[1,0.5]];portConstraint=eastwest;whiteSpace=wrap;html=1;" parent="X0b0RHwHDyXbMrfLogEa-58" vertex="1">
          <mxGeometry y="130" width="300" height="26" as="geometry" />
        </mxCell>
        <mxCell id="X0b0RHwHDyXbMrfLogEa-95" value="- cards: CreditCardManager" style="text;strokeColor=none;fillColor=none;align=left;verticalAlign=top;spacingLeft=4;spacingRight=4;overflow=hidden;rotatable=0;points=[[0,0.5],[1,0.5]];portConstraint=eastwest;whiteSpace=wrap;html=1;" parent="X0b0RHwHDyXbMrfLogEa-58" vertex="1">
          <mxGeometry y="156" width="300" height="26" as="geometry" />
        </mxCell>
        <mxCell id="X0b0RHwHDyXbMrfLogEa-271" value="- accounts: AccountManager" style="text;strokeColor=none;fillColor=none;align=left;verticalAlign=top;spacingLeft=4;spacingRight=4;overflow=hidden;rotatable=0;points=[[0,0.5],[1,0.5]];portConstraint=eastwest;whiteSpace=wrap;html=1;" parent="X0b0RHwHDyXbMrfLogEa-58" vertex="1">
          <mxGeometry y="182" width="300" height="26" as="geometry" />
        </mxCell>
        <mxCell id="cMXHbLQRaVfCkkEPk3rR-69" value="- creditCardTransaction: CreditCardTransaction" style="text;strokeColor=none;fillColor=none;align=left;verticalAlign=top;spacingLeft=4;spacingRight=4;overflow=hidden;rotatable=0;points=[[0,0.5],[1,0.5]];portConstraint=eastwest;whiteSpace=wrap;html=1;" parent="X0b0RHwHDyXbMrfLogEa-58" vertex="1">
          <mxGeometry y="208" width="300" height="26" as="geometry" />
        </mxCell>
        <mxCell id="cMXHbLQRaVfCkkEPk3rR-222" value="- ticketSubmiiter: TicketSubmitter" style="text;strokeColor=none;fillColor=none;align=left;verticalAlign=top;spacingLeft=4;spacingRight=4;overflow=hidden;rotatable=0;points=[[0,0.5],[1,0.5]];portConstraint=eastwest;whiteSpace=wrap;html=1;" parent="X0b0RHwHDyXbMrfLogEa-58" vertex="1">
          <mxGeometry y="234" width="300" height="26" as="geometry" />
        </mxCell>
        <mxCell id="cMXHbLQRaVfCkkEPk3rR-282" value="- dashboard: DashBoardFacade" style="text;strokeColor=none;fillColor=none;align=left;verticalAlign=top;spacingLeft=4;spacingRight=4;overflow=hidden;rotatable=0;points=[[0,0.5],[1,0.5]];portConstraint=eastwest;whiteSpace=wrap;html=1;" parent="X0b0RHwHDyXbMrfLogEa-58" vertex="1">
          <mxGeometry y="260" width="300" height="26" as="geometry" />
        </mxCell>
        <mxCell id="X0b0RHwHDyXbMrfLogEa-60" value="" style="line;strokeWidth=1;fillColor=none;align=left;verticalAlign=middle;spacingTop=-1;spacingLeft=3;spacingRight=3;rotatable=0;labelPosition=right;points=[];portConstraint=eastwest;strokeColor=inherit;" parent="X0b0RHwHDyXbMrfLogEa-58" vertex="1">
          <mxGeometry y="286" width="300" height="8" as="geometry" />
        </mxCell>
        <mxCell id="X0b0RHwHDyXbMrfLogEa-61" value="+ newCreditCardApp(type:String, spendingLimit):void" style="text;strokeColor=none;fillColor=none;align=left;verticalAlign=top;spacingLeft=4;spacingRight=4;overflow=hidden;rotatable=0;points=[[0,0.5],[1,0.5]];portConstraint=eastwest;whiteSpace=wrap;html=1;" parent="X0b0RHwHDyXbMrfLogEa-58" vertex="1">
          <mxGeometry y="294" width="300" height="26" as="geometry" />
        </mxCell>
        <mxCell id="X0b0RHwHDyXbMrfLogEa-88" value="+ newLoanApp(loanAmount:int, String: type):void" style="text;strokeColor=none;fillColor=none;align=left;verticalAlign=top;spacingLeft=4;spacingRight=4;overflow=hidden;rotatable=0;points=[[0,0.5],[1,0.5]];portConstraint=eastwest;whiteSpace=wrap;html=1;" parent="X0b0RHwHDyXbMrfLogEa-58" vertex="1">
          <mxGeometry y="320" width="300" height="26" as="geometry" />
        </mxCell>
        <mxCell id="X0b0RHwHDyXbMrfLogEa-89" value="+ newAccountApp(type:String):void" style="text;strokeColor=none;fillColor=none;align=left;verticalAlign=top;spacingLeft=4;spacingRight=4;overflow=hidden;rotatable=0;points=[[0,0.5],[1,0.5]];portConstraint=eastwest;whiteSpace=wrap;html=1;" parent="X0b0RHwHDyXbMrfLogEa-58" vertex="1">
          <mxGeometry y="346" width="300" height="26" as="geometry" />
        </mxCell>
        <mxCell id="X0b0RHwHDyXbMrfLogEa-90" value="+ newSupportTicket(type:String):void" style="text;strokeColor=none;fillColor=none;align=left;verticalAlign=top;spacingLeft=4;spacingRight=4;overflow=hidden;rotatable=0;points=[[0,0.5],[1,0.5]];portConstraint=eastwest;whiteSpace=wrap;html=1;" parent="X0b0RHwHDyXbMrfLogEa-58" vertex="1">
          <mxGeometry y="372" width="300" height="26" as="geometry" />
        </mxCell>
        <mxCell id="X0b0RHwHDyXbMrfLogEa-94" value="+ newTheftReport(cardNumber: String):void" style="text;strokeColor=none;fillColor=none;align=left;verticalAlign=top;spacingLeft=4;spacingRight=4;overflow=hidden;rotatable=0;points=[[0,0.5],[1,0.5]];portConstraint=eastwest;whiteSpace=wrap;html=1;" parent="X0b0RHwHDyXbMrfLogEa-58" vertex="1">
          <mxGeometry y="398" width="300" height="26" as="geometry" />
        </mxCell>
        <mxCell id="X0b0RHwHDyXbMrfLogEa-96" value="+ updateNews():void" style="text;strokeColor=none;fillColor=none;align=left;verticalAlign=top;spacingLeft=4;spacingRight=4;overflow=hidden;rotatable=0;points=[[0,0.5],[1,0.5]];portConstraint=eastwest;whiteSpace=wrap;html=1;" parent="X0b0RHwHDyXbMrfLogEa-58" vertex="1">
          <mxGeometry y="424" width="300" height="26" as="geometry" />
        </mxCell>
        <mxCell id="X0b0RHwHDyXbMrfLogEa-97" value="+ updateLoans():void" style="text;strokeColor=none;fillColor=none;align=left;verticalAlign=top;spacingLeft=4;spacingRight=4;overflow=hidden;rotatable=0;points=[[0,0.5],[1,0.5]];portConstraint=eastwest;whiteSpace=wrap;html=1;" parent="X0b0RHwHDyXbMrfLogEa-58" vertex="1">
          <mxGeometry y="450" width="300" height="26" as="geometry" />
        </mxCell>
        <mxCell id="X0b0RHwHDyXbMrfLogEa-98" value="+ updateCreditCard():void" style="text;strokeColor=none;fillColor=none;align=left;verticalAlign=top;spacingLeft=4;spacingRight=4;overflow=hidden;rotatable=0;points=[[0,0.5],[1,0.5]];portConstraint=eastwest;whiteSpace=wrap;html=1;" parent="X0b0RHwHDyXbMrfLogEa-58" vertex="1">
          <mxGeometry y="476" width="300" height="26" as="geometry" />
        </mxCell>
        <mxCell id="X0b0RHwHDyXbMrfLogEa-99" value="+ updateBills():void" style="text;strokeColor=none;fillColor=none;align=left;verticalAlign=top;spacingLeft=4;spacingRight=4;overflow=hidden;rotatable=0;points=[[0,0.5],[1,0.5]];portConstraint=eastwest;whiteSpace=wrap;html=1;" parent="X0b0RHwHDyXbMrfLogEa-58" vertex="1">
          <mxGeometry y="502" width="300" height="26" as="geometry" />
        </mxCell>
        <mxCell id="X0b0RHwHDyXbMrfLogEa-100" value="+ updateBankTransfer():void" style="text;strokeColor=none;fillColor=none;align=left;verticalAlign=top;spacingLeft=4;spacingRight=4;overflow=hidden;rotatable=0;points=[[0,0.5],[1,0.5]];portConstraint=eastwest;whiteSpace=wrap;html=1;" parent="X0b0RHwHDyXbMrfLogEa-58" vertex="1">
          <mxGeometry y="528" width="300" height="26" as="geometry" />
        </mxCell>
        <mxCell id="X0b0RHwHDyXbMrfLogEa-121" value="+ lockCard(cardNumber:String):void" style="text;strokeColor=none;fillColor=none;align=left;verticalAlign=top;spacingLeft=4;spacingRight=4;overflow=hidden;rotatable=0;points=[[0,0.5],[1,0.5]];portConstraint=eastwest;whiteSpace=wrap;html=1;" parent="X0b0RHwHDyXbMrfLogEa-58" vertex="1">
          <mxGeometry y="554" width="300" height="26" as="geometry" />
        </mxCell>
        <mxCell id="X0b0RHwHDyXbMrfLogEa-213" value="+ viewCardBalance(cardNumber:String):void" style="text;strokeColor=none;fillColor=none;align=left;verticalAlign=top;spacingLeft=4;spacingRight=4;overflow=hidden;rotatable=0;points=[[0,0.5],[1,0.5]];portConstraint=eastwest;whiteSpace=wrap;html=1;" parent="X0b0RHwHDyXbMrfLogEa-58" vertex="1">
          <mxGeometry y="580" width="300" height="26" as="geometry" />
        </mxCell>
        <mxCell id="X0b0RHwHDyXbMrfLogEa-150" value="+ update():void" style="text;strokeColor=none;fillColor=none;align=left;verticalAlign=top;spacingLeft=4;spacingRight=4;overflow=hidden;rotatable=0;points=[[0,0.5],[1,0.5]];portConstraint=eastwest;whiteSpace=wrap;html=1;" parent="X0b0RHwHDyXbMrfLogEa-58" vertex="1">
          <mxGeometry y="606" width="300" height="26" as="geometry" />
        </mxCell>
        <mxCell id="X0b0RHwHDyXbMrfLogEa-278" value="+ ViewLoanAmount(loanID: String): Double" style="text;strokeColor=none;fillColor=none;align=left;verticalAlign=top;spacingLeft=4;spacingRight=4;overflow=hidden;rotatable=0;points=[[0,0.5],[1,0.5]];portConstraint=eastwest;whiteSpace=wrap;html=1;" parent="X0b0RHwHDyXbMrfLogEa-58" vertex="1">
          <mxGeometry y="632" width="300" height="26" as="geometry" />
        </mxCell>
        <mxCell id="X0b0RHwHDyXbMrfLogEa-279" value="+ viewLoanAmounts(): ArrayList&amp;lt;String&amp;gt;" style="text;strokeColor=none;fillColor=none;align=left;verticalAlign=top;spacingLeft=4;spacingRight=4;overflow=hidden;rotatable=0;points=[[0,0.5],[1,0.5]];portConstraint=eastwest;whiteSpace=wrap;html=1;" parent="X0b0RHwHDyXbMrfLogEa-58" vertex="1">
          <mxGeometry y="658" width="300" height="26" as="geometry" />
        </mxCell>
        <mxCell id="X0b0RHwHDyXbMrfLogEa-280" value="+ payLoan(accNum: String): void" style="text;strokeColor=none;fillColor=none;align=left;verticalAlign=top;spacingLeft=4;spacingRight=4;overflow=hidden;rotatable=0;points=[[0,0.5],[1,0.5]];portConstraint=eastwest;whiteSpace=wrap;html=1;" parent="X0b0RHwHDyXbMrfLogEa-58" vertex="1">
          <mxGeometry y="684" width="300" height="26" as="geometry" />
        </mxCell>
        <mxCell id="X0b0RHwHDyXbMrfLogEa-281" value="+ viewLoanDueBalance(loanID: String): Double" style="text;strokeColor=none;fillColor=none;align=left;verticalAlign=top;spacingLeft=4;spacingRight=4;overflow=hidden;rotatable=0;points=[[0,0.5],[1,0.5]];portConstraint=eastwest;whiteSpace=wrap;html=1;" parent="X0b0RHwHDyXbMrfLogEa-58" vertex="1">
          <mxGeometry y="710" width="300" height="26" as="geometry" />
        </mxCell>
        <mxCell id="X0b0RHwHDyXbMrfLogEa-282" value="+ viewTotalLoanDue(): Double" style="text;strokeColor=none;fillColor=none;align=left;verticalAlign=top;spacingLeft=4;spacingRight=4;overflow=hidden;rotatable=0;points=[[0,0.5],[1,0.5]];portConstraint=eastwest;whiteSpace=wrap;html=1;" parent="X0b0RHwHDyXbMrfLogEa-58" vertex="1">
          <mxGeometry y="736" width="300" height="26" as="geometry" />
        </mxCell>
        <mxCell id="X0b0RHwHDyXbMrfLogEa-362" value="+ viewAccountBalance(accountNum: String): Double" style="text;strokeColor=none;fillColor=none;align=left;verticalAlign=top;spacingLeft=4;spacingRight=4;overflow=hidden;rotatable=0;points=[[0,0.5],[1,0.5]];portConstraint=eastwest;whiteSpace=wrap;html=1;" parent="X0b0RHwHDyXbMrfLogEa-58" vertex="1">
          <mxGeometry y="762" width="300" height="26" as="geometry" />
        </mxCell>
        <mxCell id="X0b0RHwHDyXbMrfLogEa-363" value="+ viewTotalBalance(): Double" style="text;strokeColor=none;fillColor=none;align=left;verticalAlign=top;spacingLeft=4;spacingRight=4;overflow=hidden;rotatable=0;points=[[0,0.5],[1,0.5]];portConstraint=eastwest;whiteSpace=wrap;html=1;" parent="X0b0RHwHDyXbMrfLogEa-58" vertex="1">
          <mxGeometry y="788" width="300" height="26" as="geometry" />
        </mxCell>
        <mxCell id="X0b0RHwHDyXbMrfLogEa-62" value="banker" style="swimlane;fontStyle=1;align=center;verticalAlign=top;childLayout=stackLayout;horizontal=1;startSize=26;horizontalStack=0;resizeParent=1;resizeParentMax=0;resizeLast=0;collapsible=1;marginBottom=0;whiteSpace=wrap;html=1;" parent="WIyWlLk6GJQsqaUBKTNV-1" vertex="1">
          <mxGeometry x="7210" y="780" width="300" height="502" as="geometry">
            <mxRectangle x="7210" y="680" width="80" height="30" as="alternateBounds" />
          </mxGeometry>
        </mxCell>
        <mxCell id="X0b0RHwHDyXbMrfLogEa-63" value="- ticketManager: ArrayList&amp;lt;TicketManager&amp;gt;" style="text;strokeColor=none;fillColor=none;align=left;verticalAlign=top;spacingLeft=4;spacingRight=4;overflow=hidden;rotatable=0;points=[[0,0.5],[1,0.5]];portConstraint=eastwest;whiteSpace=wrap;html=1;" parent="X0b0RHwHDyXbMrfLogEa-62" vertex="1">
          <mxGeometry y="26" width="300" height="26" as="geometry" />
        </mxCell>
        <mxCell id="X0b0RHwHDyXbMrfLogEa-103" value="- loanApprover: LoanApproval" style="text;strokeColor=none;fillColor=none;align=left;verticalAlign=top;spacingLeft=4;spacingRight=4;overflow=hidden;rotatable=0;points=[[0,0.5],[1,0.5]];portConstraint=eastwest;whiteSpace=wrap;html=1;" parent="X0b0RHwHDyXbMrfLogEa-62" vertex="1">
          <mxGeometry y="52" width="300" height="26" as="geometry" />
        </mxCell>
        <mxCell id="X0b0RHwHDyXbMrfLogEa-105" value="- creditCardApprover: CreditCardApproval" style="text;strokeColor=none;fillColor=none;align=left;verticalAlign=top;spacingLeft=4;spacingRight=4;overflow=hidden;rotatable=0;points=[[0,0.5],[1,0.5]];portConstraint=eastwest;whiteSpace=wrap;html=1;" parent="X0b0RHwHDyXbMrfLogEa-62" vertex="1">
          <mxGeometry y="78" width="300" height="26" as="geometry" />
        </mxCell>
        <mxCell id="X0b0RHwHDyXbMrfLogEa-113" value="- AccountApprover: AccountApproval" style="text;strokeColor=none;fillColor=none;align=left;verticalAlign=top;spacingLeft=4;spacingRight=4;overflow=hidden;rotatable=0;points=[[0,0.5],[1,0.5]];portConstraint=eastwest;whiteSpace=wrap;html=1;" parent="X0b0RHwHDyXbMrfLogEa-62" vertex="1">
          <mxGeometry y="104" width="300" height="26" as="geometry" />
        </mxCell>
        <mxCell id="X0b0RHwHDyXbMrfLogEa-122" value="- creditCardManager: ArrayList&amp;lt;CreditCardManager&amp;gt;" style="text;strokeColor=none;fillColor=none;align=left;verticalAlign=top;spacingLeft=4;spacingRight=4;overflow=hidden;rotatable=0;points=[[0,0.5],[1,0.5]];portConstraint=eastwest;whiteSpace=wrap;html=1;" parent="X0b0RHwHDyXbMrfLogEa-62" vertex="1">
          <mxGeometry y="130" width="300" height="26" as="geometry" />
        </mxCell>
        <mxCell id="X0b0RHwHDyXbMrfLogEa-64" value="" style="line;strokeWidth=1;fillColor=none;align=left;verticalAlign=middle;spacingTop=-1;spacingLeft=3;spacingRight=3;rotatable=0;labelPosition=right;points=[];portConstraint=eastwest;strokeColor=inherit;" parent="X0b0RHwHDyXbMrfLogEa-62" vertex="1">
          <mxGeometry y="156" width="300" height="8" as="geometry" />
        </mxCell>
        <mxCell id="X0b0RHwHDyXbMrfLogEa-65" value="+ updateTicktets(): void" style="text;strokeColor=none;fillColor=none;align=left;verticalAlign=top;spacingLeft=4;spacingRight=4;overflow=hidden;rotatable=0;points=[[0,0.5],[1,0.5]];portConstraint=eastwest;whiteSpace=wrap;html=1;" parent="X0b0RHwHDyXbMrfLogEa-62" vertex="1">
          <mxGeometry y="164" width="300" height="26" as="geometry" />
        </mxCell>
        <mxCell id="X0b0RHwHDyXbMrfLogEa-104" value="+ updateLoans(): void" style="text;strokeColor=none;fillColor=none;align=left;verticalAlign=top;spacingLeft=4;spacingRight=4;overflow=hidden;rotatable=0;points=[[0,0.5],[1,0.5]];portConstraint=eastwest;whiteSpace=wrap;html=1;" parent="X0b0RHwHDyXbMrfLogEa-62" vertex="1">
          <mxGeometry y="190" width="300" height="26" as="geometry" />
        </mxCell>
        <mxCell id="X0b0RHwHDyXbMrfLogEa-106" value="+ updateCreditCards(): void" style="text;strokeColor=none;fillColor=none;align=left;verticalAlign=top;spacingLeft=4;spacingRight=4;overflow=hidden;rotatable=0;points=[[0,0.5],[1,0.5]];portConstraint=eastwest;whiteSpace=wrap;html=1;" parent="X0b0RHwHDyXbMrfLogEa-62" vertex="1">
          <mxGeometry y="216" width="300" height="26" as="geometry" />
        </mxCell>
        <mxCell id="X0b0RHwHDyXbMrfLogEa-107" value="+ approveCard(cardAppNumber:String): void" style="text;strokeColor=none;fillColor=none;align=left;verticalAlign=top;spacingLeft=4;spacingRight=4;overflow=hidden;rotatable=0;points=[[0,0.5],[1,0.5]];portConstraint=eastwest;whiteSpace=wrap;html=1;" parent="X0b0RHwHDyXbMrfLogEa-62" vertex="1">
          <mxGeometry y="242" width="300" height="26" as="geometry" />
        </mxCell>
        <mxCell id="X0b0RHwHDyXbMrfLogEa-108" value="+ rejectCard(cardAppNumber:String): void" style="text;strokeColor=none;fillColor=none;align=left;verticalAlign=top;spacingLeft=4;spacingRight=4;overflow=hidden;rotatable=0;points=[[0,0.5],[1,0.5]];portConstraint=eastwest;whiteSpace=wrap;html=1;" parent="X0b0RHwHDyXbMrfLogEa-62" vertex="1">
          <mxGeometry y="268" width="300" height="26" as="geometry" />
        </mxCell>
        <mxCell id="X0b0RHwHDyXbMrfLogEa-109" value="+ approveLoan(loanAppNumber:String): void" style="text;strokeColor=none;fillColor=none;align=left;verticalAlign=top;spacingLeft=4;spacingRight=4;overflow=hidden;rotatable=0;points=[[0,0.5],[1,0.5]];portConstraint=eastwest;whiteSpace=wrap;html=1;" parent="X0b0RHwHDyXbMrfLogEa-62" vertex="1">
          <mxGeometry y="294" width="300" height="26" as="geometry" />
        </mxCell>
        <mxCell id="X0b0RHwHDyXbMrfLogEa-110" value="+ rejectLoan(loanAppNumber:String): void" style="text;strokeColor=none;fillColor=none;align=left;verticalAlign=top;spacingLeft=4;spacingRight=4;overflow=hidden;rotatable=0;points=[[0,0.5],[1,0.5]];portConstraint=eastwest;whiteSpace=wrap;html=1;" parent="X0b0RHwHDyXbMrfLogEa-62" vertex="1">
          <mxGeometry y="320" width="300" height="26" as="geometry" />
        </mxCell>
        <mxCell id="X0b0RHwHDyXbMrfLogEa-111" value="+ replyToTicket(ticketNumber:String): void" style="text;strokeColor=none;fillColor=none;align=left;verticalAlign=top;spacingLeft=4;spacingRight=4;overflow=hidden;rotatable=0;points=[[0,0.5],[1,0.5]];portConstraint=eastwest;whiteSpace=wrap;html=1;" parent="X0b0RHwHDyXbMrfLogEa-62" vertex="1">
          <mxGeometry y="346" width="300" height="26" as="geometry" />
        </mxCell>
        <mxCell id="X0b0RHwHDyXbMrfLogEa-112" value="+ resolveTicket(ticketNumber:String): void" style="text;strokeColor=none;fillColor=none;align=left;verticalAlign=top;spacingLeft=4;spacingRight=4;overflow=hidden;rotatable=0;points=[[0,0.5],[1,0.5]];portConstraint=eastwest;whiteSpace=wrap;html=1;" parent="X0b0RHwHDyXbMrfLogEa-62" vertex="1">
          <mxGeometry y="372" width="300" height="26" as="geometry" />
        </mxCell>
        <mxCell id="X0b0RHwHDyXbMrfLogEa-114" value="+ approveAccount(AccAppNumber:String): void" style="text;strokeColor=none;fillColor=none;align=left;verticalAlign=top;spacingLeft=4;spacingRight=4;overflow=hidden;rotatable=0;points=[[0,0.5],[1,0.5]];portConstraint=eastwest;whiteSpace=wrap;html=1;" parent="X0b0RHwHDyXbMrfLogEa-62" vertex="1">
          <mxGeometry y="398" width="300" height="26" as="geometry" />
        </mxCell>
        <mxCell id="X0b0RHwHDyXbMrfLogEa-115" value="+ rejectAccount(AccAppNumber:String): void" style="text;strokeColor=none;fillColor=none;align=left;verticalAlign=top;spacingLeft=4;spacingRight=4;overflow=hidden;rotatable=0;points=[[0,0.5],[1,0.5]];portConstraint=eastwest;whiteSpace=wrap;html=1;" parent="X0b0RHwHDyXbMrfLogEa-62" vertex="1">
          <mxGeometry y="424" width="300" height="26" as="geometry" />
        </mxCell>
        <mxCell id="X0b0RHwHDyXbMrfLogEa-123" value="+ blockCard(cardNumber:String): void" style="text;strokeColor=none;fillColor=none;align=left;verticalAlign=top;spacingLeft=4;spacingRight=4;overflow=hidden;rotatable=0;points=[[0,0.5],[1,0.5]];portConstraint=eastwest;whiteSpace=wrap;html=1;" parent="X0b0RHwHDyXbMrfLogEa-62" vertex="1">
          <mxGeometry y="450" width="300" height="26" as="geometry" />
        </mxCell>
        <mxCell id="X0b0RHwHDyXbMrfLogEa-151" value="+ update() void" style="text;strokeColor=none;fillColor=none;align=left;verticalAlign=top;spacingLeft=4;spacingRight=4;overflow=hidden;rotatable=0;points=[[0,0.5],[1,0.5]];portConstraint=eastwest;whiteSpace=wrap;html=1;" parent="X0b0RHwHDyXbMrfLogEa-62" vertex="1">
          <mxGeometry y="476" width="300" height="26" as="geometry" />
        </mxCell>
        <mxCell id="X0b0RHwHDyXbMrfLogEa-66" value="admin" style="swimlane;fontStyle=1;align=center;verticalAlign=top;childLayout=stackLayout;horizontal=1;startSize=26;horizontalStack=0;resizeParent=1;resizeParentMax=0;resizeLast=0;collapsible=1;marginBottom=0;whiteSpace=wrap;html=1;" parent="WIyWlLk6GJQsqaUBKTNV-1" vertex="1">
          <mxGeometry x="7590" y="780" width="300" height="242" as="geometry" />
        </mxCell>
        <mxCell id="X0b0RHwHDyXbMrfLogEa-67" value="- ticketManager: ArrayList&amp;lt;TicketManager&amp;gt;" style="text;strokeColor=none;fillColor=none;align=left;verticalAlign=top;spacingLeft=4;spacingRight=4;overflow=hidden;rotatable=0;points=[[0,0.5],[1,0.5]];portConstraint=eastwest;whiteSpace=wrap;html=1;" parent="X0b0RHwHDyXbMrfLogEa-66" vertex="1">
          <mxGeometry y="26" width="300" height="26" as="geometry" />
        </mxCell>
        <mxCell id="X0b0RHwHDyXbMrfLogEa-118" value="- accountManager: ArrayList&amp;lt;AccountManager&amp;gt;" style="text;strokeColor=none;fillColor=none;align=left;verticalAlign=top;spacingLeft=4;spacingRight=4;overflow=hidden;rotatable=0;points=[[0,0.5],[1,0.5]];portConstraint=eastwest;whiteSpace=wrap;html=1;" parent="X0b0RHwHDyXbMrfLogEa-66" vertex="1">
          <mxGeometry y="52" width="300" height="26" as="geometry" />
        </mxCell>
        <mxCell id="X0b0RHwHDyXbMrfLogEa-124" value="- creditCardManager: ArrayList&amp;lt;CreditCardManager&amp;gt;" style="text;strokeColor=none;fillColor=none;align=left;verticalAlign=top;spacingLeft=4;spacingRight=4;overflow=hidden;rotatable=0;points=[[0,0.5],[1,0.5]];portConstraint=eastwest;whiteSpace=wrap;html=1;" parent="X0b0RHwHDyXbMrfLogEa-66" vertex="1">
          <mxGeometry y="78" width="300" height="26" as="geometry" />
        </mxCell>
        <mxCell id="X0b0RHwHDyXbMrfLogEa-68" value="" style="line;strokeWidth=1;fillColor=none;align=left;verticalAlign=middle;spacingTop=-1;spacingLeft=3;spacingRight=3;rotatable=0;labelPosition=right;points=[];portConstraint=eastwest;strokeColor=inherit;" parent="X0b0RHwHDyXbMrfLogEa-66" vertex="1">
          <mxGeometry y="104" width="300" height="8" as="geometry" />
        </mxCell>
        <mxCell id="X0b0RHwHDyXbMrfLogEa-69" value="+ replyToTicket(ticketNumber:String): void" style="text;strokeColor=none;fillColor=none;align=left;verticalAlign=top;spacingLeft=4;spacingRight=4;overflow=hidden;rotatable=0;points=[[0,0.5],[1,0.5]];portConstraint=eastwest;whiteSpace=wrap;html=1;" parent="X0b0RHwHDyXbMrfLogEa-66" vertex="1">
          <mxGeometry y="112" width="300" height="26" as="geometry" />
        </mxCell>
        <mxCell id="X0b0RHwHDyXbMrfLogEa-117" value="+ resolveTicket(ticketNumber:String): void" style="text;strokeColor=none;fillColor=none;align=left;verticalAlign=top;spacingLeft=4;spacingRight=4;overflow=hidden;rotatable=0;points=[[0,0.5],[1,0.5]];portConstraint=eastwest;whiteSpace=wrap;html=1;" parent="X0b0RHwHDyXbMrfLogEa-66" vertex="1">
          <mxGeometry y="138" width="300" height="26" as="geometry" />
        </mxCell>
        <mxCell id="X0b0RHwHDyXbMrfLogEa-119" value="+ blockAccount(AccountNumber:String): void" style="text;strokeColor=none;fillColor=none;align=left;verticalAlign=top;spacingLeft=4;spacingRight=4;overflow=hidden;rotatable=0;points=[[0,0.5],[1,0.5]];portConstraint=eastwest;whiteSpace=wrap;html=1;" parent="X0b0RHwHDyXbMrfLogEa-66" vertex="1">
          <mxGeometry y="164" width="300" height="26" as="geometry" />
        </mxCell>
        <mxCell id="X0b0RHwHDyXbMrfLogEa-120" value="+ blockCard(cardNumber:String): void" style="text;strokeColor=none;fillColor=none;align=left;verticalAlign=top;spacingLeft=4;spacingRight=4;overflow=hidden;rotatable=0;points=[[0,0.5],[1,0.5]];portConstraint=eastwest;whiteSpace=wrap;html=1;" parent="X0b0RHwHDyXbMrfLogEa-66" vertex="1">
          <mxGeometry y="190" width="300" height="26" as="geometry" />
        </mxCell>
        <mxCell id="X0b0RHwHDyXbMrfLogEa-152" value="+ update(): void" style="text;strokeColor=none;fillColor=none;align=left;verticalAlign=top;spacingLeft=4;spacingRight=4;overflow=hidden;rotatable=0;points=[[0,0.5],[1,0.5]];portConstraint=eastwest;whiteSpace=wrap;html=1;" parent="X0b0RHwHDyXbMrfLogEa-66" vertex="1">
          <mxGeometry y="216" width="300" height="26" as="geometry" />
        </mxCell>
        <mxCell id="X0b0RHwHDyXbMrfLogEa-126" value="&lt;p style=&quot;margin:0px;margin-top:4px;text-align:center;&quot;&gt;&lt;i&gt;&amp;lt;&amp;lt;Interface&amp;gt;&amp;gt;&lt;/i&gt;&lt;br&gt;&lt;b style=&quot;border-color: var(--border-color);&quot;&gt;Notifier Interface&lt;/b&gt;&lt;/p&gt;&lt;hr size=&quot;1&quot;&gt;&lt;p style=&quot;margin:0px;margin-left:4px;&quot;&gt;+ Subscribers: ArrayList&amp;lt;Observer&amp;gt;&lt;br&gt;&lt;/p&gt;&lt;hr size=&quot;1&quot;&gt;&lt;p style=&quot;margin:0px;margin-left:4px;&quot;&gt;+ attach(Observer): void&lt;br&gt;+ detach(Observer): void&lt;/p&gt;&lt;p style=&quot;margin:0px;margin-left:4px;&quot;&gt;+ notify():void&lt;/p&gt;" style="verticalAlign=top;align=left;overflow=fill;fontSize=12;fontFamily=Helvetica;html=1;whiteSpace=wrap;" parent="WIyWlLk6GJQsqaUBKTNV-1" vertex="1">
          <mxGeometry x="6580" y="307" width="230" height="140" as="geometry" />
        </mxCell>
        <mxCell id="X0b0RHwHDyXbMrfLogEa-138" value="" style="endArrow=block;dashed=1;endFill=0;endSize=12;html=1;rounded=0;exitX=0;exitY=0.5;exitDx=0;exitDy=0;entryX=0.75;entryY=0;entryDx=0;entryDy=0;" parent="WIyWlLk6GJQsqaUBKTNV-1" source="zkfFHV4jXpPFQw0GAbJ--5" target="X0b0RHwHDyXbMrfLogEa-126" edge="1">
          <mxGeometry width="160" relative="1" as="geometry">
            <mxPoint x="6600" y="290" as="sourcePoint" />
            <mxPoint x="6760" y="290" as="targetPoint" />
          </mxGeometry>
        </mxCell>
        <mxCell id="X0b0RHwHDyXbMrfLogEa-143" value="" style="endArrow=none;html=1;rounded=0;exitX=0.5;exitY=0;exitDx=0;exitDy=0;strokeWidth=3;" parent="WIyWlLk6GJQsqaUBKTNV-1" source="X0b0RHwHDyXbMrfLogEa-62" edge="1">
          <mxGeometry width="50" height="50" relative="1" as="geometry">
            <mxPoint x="7190" y="690" as="sourcePoint" />
            <mxPoint x="7360" y="640" as="targetPoint" />
            <Array as="points">
              <mxPoint x="7360" y="660" />
            </Array>
          </mxGeometry>
        </mxCell>
        <mxCell id="X0b0RHwHDyXbMrfLogEa-153" value="&lt;p style=&quot;margin:0px;margin-top:4px;text-align:center;&quot;&gt;&lt;i&gt;&amp;lt;&amp;lt;Interface&amp;gt;&amp;gt;&lt;/i&gt;&lt;br&gt;&lt;b style=&quot;border-color: var(--border-color);&quot;&gt;Observer Interface&lt;/b&gt;&lt;/p&gt;&lt;hr size=&quot;1&quot;&gt;&lt;p style=&quot;margin:0px;margin-left:4px;&quot;&gt;+ update(): void&lt;br&gt;&lt;br&gt;&lt;/p&gt;" style="verticalAlign=top;align=left;overflow=fill;fontSize=12;fontFamily=Helvetica;html=1;whiteSpace=wrap;" parent="WIyWlLk6GJQsqaUBKTNV-1" vertex="1">
          <mxGeometry x="6600" y="570" width="230" height="70" as="geometry" />
        </mxCell>
        <mxCell id="X0b0RHwHDyXbMrfLogEa-156" value="" style="endArrow=block;dashed=1;endFill=0;endSize=12;html=1;rounded=0;exitX=1;exitY=0.25;exitDx=0;exitDy=0;entryX=0;entryY=0.5;entryDx=0;entryDy=0;" parent="WIyWlLk6GJQsqaUBKTNV-1" source="X0b0RHwHDyXbMrfLogEa-153" target="X0b0RHwHDyXbMrfLogEa-21" edge="1">
          <mxGeometry width="160" relative="1" as="geometry">
            <mxPoint x="6790" y="660" as="sourcePoint" />
            <mxPoint x="6950" y="660" as="targetPoint" />
          </mxGeometry>
        </mxCell>
        <mxCell id="X0b0RHwHDyXbMrfLogEa-157" value="CreditCardApplications" style="swimlane;fontStyle=3;align=center;verticalAlign=top;childLayout=stackLayout;horizontal=1;startSize=26;horizontalStack=0;resizeParent=1;resizeLast=0;collapsible=1;marginBottom=0;rounded=0;shadow=0;strokeWidth=1;" parent="WIyWlLk6GJQsqaUBKTNV-1" vertex="1">
          <mxGeometry x="6260" y="81" width="250" height="330" as="geometry">
            <mxRectangle x="230" y="140" width="160" height="26" as="alternateBounds" />
          </mxGeometry>
        </mxCell>
        <mxCell id="X0b0RHwHDyXbMrfLogEa-158" value="- ApplicationDate: ArrayList&lt;Date&gt;" style="text;align=left;verticalAlign=top;spacingLeft=4;spacingRight=4;overflow=hidden;rotatable=0;points=[[0,0.5],[1,0.5]];portConstraint=eastwest;" parent="X0b0RHwHDyXbMrfLogEa-157" vertex="1">
          <mxGeometry y="26" width="250" height="26" as="geometry" />
        </mxCell>
        <mxCell id="X0b0RHwHDyXbMrfLogEa-169" value="- ApplicationNums: ArrayList&lt;Int&gt;" style="text;align=left;verticalAlign=top;spacingLeft=4;spacingRight=4;overflow=hidden;rotatable=0;points=[[0,0.5],[1,0.5]];portConstraint=eastwest;" parent="X0b0RHwHDyXbMrfLogEa-157" vertex="1">
          <mxGeometry y="52" width="250" height="26" as="geometry" />
        </mxCell>
        <mxCell id="X0b0RHwHDyXbMrfLogEa-159" value="- type:String" style="text;align=left;verticalAlign=top;spacingLeft=4;spacingRight=4;overflow=hidden;rotatable=0;points=[[0,0.5],[1,0.5]];portConstraint=eastwest;rounded=0;shadow=0;html=0;" parent="X0b0RHwHDyXbMrfLogEa-157" vertex="1">
          <mxGeometry y="78" width="250" height="26" as="geometry" />
        </mxCell>
        <mxCell id="X0b0RHwHDyXbMrfLogEa-160" value="- spendingLimit: int" style="text;align=left;verticalAlign=top;spacingLeft=4;spacingRight=4;overflow=hidden;rotatable=0;points=[[0,0.5],[1,0.5]];portConstraint=eastwest;rounded=0;shadow=0;html=0;" parent="X0b0RHwHDyXbMrfLogEa-157" vertex="1">
          <mxGeometry y="104" width="250" height="26" as="geometry" />
        </mxCell>
        <mxCell id="X0b0RHwHDyXbMrfLogEa-168" value="- status: ArrayList&lt;Boolean&gt;" style="text;align=left;verticalAlign=top;spacingLeft=4;spacingRight=4;overflow=hidden;rotatable=0;points=[[0,0.5],[1,0.5]];portConstraint=eastwest;rounded=0;shadow=0;html=0;" parent="X0b0RHwHDyXbMrfLogEa-157" vertex="1">
          <mxGeometry y="130" width="250" height="26" as="geometry" />
        </mxCell>
        <mxCell id="X0b0RHwHDyXbMrfLogEa-178" value="- Subcribers: ArrayList&lt;Observer&gt;" style="text;align=left;verticalAlign=top;spacingLeft=4;spacingRight=4;overflow=hidden;rotatable=0;points=[[0,0.5],[1,0.5]];portConstraint=eastwest;rounded=0;shadow=0;html=0;" parent="X0b0RHwHDyXbMrfLogEa-157" vertex="1">
          <mxGeometry y="156" width="250" height="26" as="geometry" />
        </mxCell>
        <mxCell id="X0b0RHwHDyXbMrfLogEa-161" value="" style="line;html=1;strokeWidth=1;align=left;verticalAlign=middle;spacingTop=-1;spacingLeft=3;spacingRight=3;rotatable=0;labelPosition=right;points=[];portConstraint=eastwest;" parent="X0b0RHwHDyXbMrfLogEa-157" vertex="1">
          <mxGeometry y="182" width="250" height="8" as="geometry" />
        </mxCell>
        <mxCell id="X0b0RHwHDyXbMrfLogEa-162" value="+ applyForCard() : void&#xa;" style="text;align=left;verticalAlign=top;spacingLeft=4;spacingRight=4;overflow=hidden;rotatable=0;points=[[0,0.5],[1,0.5]];portConstraint=eastwest;" parent="X0b0RHwHDyXbMrfLogEa-157" vertex="1">
          <mxGeometry y="190" width="250" height="26" as="geometry" />
        </mxCell>
        <mxCell id="X0b0RHwHDyXbMrfLogEa-163" value="+ viewApplications() : ArrayList&lt;String&gt;&#xa;" style="text;align=left;verticalAlign=top;spacingLeft=4;spacingRight=4;overflow=hidden;rotatable=0;points=[[0,0.5],[1,0.5]];portConstraint=eastwest;" parent="X0b0RHwHDyXbMrfLogEa-157" vertex="1">
          <mxGeometry y="216" width="250" height="26" as="geometry" />
        </mxCell>
        <mxCell id="X0b0RHwHDyXbMrfLogEa-164" value="+ cancelApplication(appNum: int): void" style="text;align=left;verticalAlign=top;spacingLeft=4;spacingRight=4;overflow=hidden;rotatable=0;points=[[0,0.5],[1,0.5]];portConstraint=eastwest;" parent="X0b0RHwHDyXbMrfLogEa-157" vertex="1">
          <mxGeometry y="242" width="250" height="22" as="geometry" />
        </mxCell>
        <mxCell id="X0b0RHwHDyXbMrfLogEa-165" value="+ attach(Observer): void" style="text;align=left;verticalAlign=top;spacingLeft=4;spacingRight=4;overflow=hidden;rotatable=0;points=[[0,0.5],[1,0.5]];portConstraint=eastwest;" parent="X0b0RHwHDyXbMrfLogEa-157" vertex="1">
          <mxGeometry y="264" width="250" height="22" as="geometry" />
        </mxCell>
        <mxCell id="X0b0RHwHDyXbMrfLogEa-166" value="+ detach(Observer): void" style="text;align=left;verticalAlign=top;spacingLeft=4;spacingRight=4;overflow=hidden;rotatable=0;points=[[0,0.5],[1,0.5]];portConstraint=eastwest;" parent="X0b0RHwHDyXbMrfLogEa-157" vertex="1">
          <mxGeometry y="286" width="250" height="22" as="geometry" />
        </mxCell>
        <mxCell id="X0b0RHwHDyXbMrfLogEa-167" value="+ notify(): void" style="text;align=left;verticalAlign=top;spacingLeft=4;spacingRight=4;overflow=hidden;rotatable=0;points=[[0,0.5],[1,0.5]];portConstraint=eastwest;" parent="X0b0RHwHDyXbMrfLogEa-157" vertex="1">
          <mxGeometry y="308" width="250" height="22" as="geometry" />
        </mxCell>
        <mxCell id="X0b0RHwHDyXbMrfLogEa-170" value="" style="endArrow=block;dashed=1;endFill=0;endSize=12;html=1;rounded=0;exitX=1;exitY=0.5;exitDx=0;exitDy=0;entryX=0.25;entryY=0;entryDx=0;entryDy=0;" parent="WIyWlLk6GJQsqaUBKTNV-1" source="X0b0RHwHDyXbMrfLogEa-168" target="X0b0RHwHDyXbMrfLogEa-126" edge="1">
          <mxGeometry width="160" relative="1" as="geometry">
            <mxPoint x="6679" y="191" as="sourcePoint" />
            <mxPoint x="6610" y="410" as="targetPoint" />
          </mxGeometry>
        </mxCell>
        <mxCell id="X0b0RHwHDyXbMrfLogEa-174" value="" style="endArrow=none;html=1;edgeStyle=orthogonalEdgeStyle;rounded=0;entryX=0;entryY=0;entryDx=0;entryDy=0;exitX=1;exitY=0.932;exitDx=0;exitDy=0;exitPerimeter=0;" parent="WIyWlLk6GJQsqaUBKTNV-1" source="X0b0RHwHDyXbMrfLogEa-167" target="X0b0RHwHDyXbMrfLogEa-58" edge="1">
          <mxGeometry relative="1" as="geometry">
            <mxPoint x="6509" y="440" as="sourcePoint" />
            <mxPoint x="6680" y="520" as="targetPoint" />
            <Array as="points">
              <mxPoint x="6550" y="409" />
              <mxPoint x="6550" y="730" />
            </Array>
          </mxGeometry>
        </mxCell>
        <mxCell id="X0b0RHwHDyXbMrfLogEa-175" value="0..*" style="edgeLabel;resizable=0;html=1;align=left;verticalAlign=bottom;" parent="X0b0RHwHDyXbMrfLogEa-174" connectable="0" vertex="1">
          <mxGeometry x="-1" relative="1" as="geometry" />
        </mxCell>
        <mxCell id="X0b0RHwHDyXbMrfLogEa-176" value="1" style="edgeLabel;resizable=0;html=1;align=right;verticalAlign=bottom;" parent="X0b0RHwHDyXbMrfLogEa-174" connectable="0" vertex="1">
          <mxGeometry x="1" relative="1" as="geometry">
            <mxPoint x="10" as="offset" />
          </mxGeometry>
        </mxCell>
        <mxCell id="X0b0RHwHDyXbMrfLogEa-179" value="CreditCardApproval" style="swimlane;fontStyle=1;align=center;verticalAlign=top;childLayout=stackLayout;horizontal=1;startSize=26;horizontalStack=0;resizeParent=1;resizeParentMax=0;resizeLast=0;collapsible=1;marginBottom=0;whiteSpace=wrap;html=1;" parent="WIyWlLk6GJQsqaUBKTNV-1" vertex="1">
          <mxGeometry x="6200" y="540" width="330" height="218" as="geometry" />
        </mxCell>
        <mxCell id="X0b0RHwHDyXbMrfLogEa-360" value="" style="endArrow=block;dashed=1;endFill=0;endSize=12;html=1;rounded=0;entryX=-0.008;entryY=0.537;entryDx=0;entryDy=0;entryPerimeter=0;" parent="X0b0RHwHDyXbMrfLogEa-179" target="X0b0RHwHDyXbMrfLogEa-126" edge="1">
          <mxGeometry width="160" relative="1" as="geometry">
            <mxPoint x="-400" y="26" as="sourcePoint" />
            <mxPoint x="388" y="36" as="targetPoint" />
          </mxGeometry>
        </mxCell>
        <mxCell id="X0b0RHwHDyXbMrfLogEa-180" value="- creditCardApplications: ArrayList&amp;lt;CreditCardApplications&amp;gt;" style="text;strokeColor=none;fillColor=none;align=left;verticalAlign=top;spacingLeft=4;spacingRight=4;overflow=hidden;rotatable=0;points=[[0,0.5],[1,0.5]];portConstraint=eastwest;whiteSpace=wrap;html=1;" parent="X0b0RHwHDyXbMrfLogEa-179" vertex="1">
          <mxGeometry y="26" width="330" height="26" as="geometry" />
        </mxCell>
        <mxCell id="X0b0RHwHDyXbMrfLogEa-193" value="- Subcribers: ArrayList&amp;lt;Observer&amp;gt;" style="text;strokeColor=none;fillColor=none;align=left;verticalAlign=top;spacingLeft=4;spacingRight=4;overflow=hidden;rotatable=0;points=[[0,0.5],[1,0.5]];portConstraint=eastwest;whiteSpace=wrap;html=1;" parent="X0b0RHwHDyXbMrfLogEa-179" vertex="1">
          <mxGeometry y="52" width="330" height="26" as="geometry" />
        </mxCell>
        <mxCell id="X0b0RHwHDyXbMrfLogEa-183" value="" style="line;strokeWidth=1;fillColor=none;align=left;verticalAlign=middle;spacingTop=-1;spacingLeft=3;spacingRight=3;rotatable=0;labelPosition=right;points=[];portConstraint=eastwest;strokeColor=inherit;" parent="X0b0RHwHDyXbMrfLogEa-179" vertex="1">
          <mxGeometry y="78" width="330" height="8" as="geometry" />
        </mxCell>
        <mxCell id="X0b0RHwHDyXbMrfLogEa-184" value="+ approveCard(AppNum:String): void" style="text;strokeColor=none;fillColor=none;align=left;verticalAlign=top;spacingLeft=4;spacingRight=4;overflow=hidden;rotatable=0;points=[[0,0.5],[1,0.5]];portConstraint=eastwest;whiteSpace=wrap;html=1;" parent="X0b0RHwHDyXbMrfLogEa-179" vertex="1">
          <mxGeometry y="86" width="330" height="26" as="geometry" />
        </mxCell>
        <mxCell id="X0b0RHwHDyXbMrfLogEa-185" value="+ rejectCard(AppNum:String): void" style="text;strokeColor=none;fillColor=none;align=left;verticalAlign=top;spacingLeft=4;spacingRight=4;overflow=hidden;rotatable=0;points=[[0,0.5],[1,0.5]];portConstraint=eastwest;whiteSpace=wrap;html=1;" parent="X0b0RHwHDyXbMrfLogEa-179" vertex="1">
          <mxGeometry y="112" width="330" height="26" as="geometry" />
        </mxCell>
        <mxCell id="X0b0RHwHDyXbMrfLogEa-186" value="+ attach(Observer): void" style="text;strokeColor=none;fillColor=none;align=left;verticalAlign=top;spacingLeft=4;spacingRight=4;overflow=hidden;rotatable=0;points=[[0,0.5],[1,0.5]];portConstraint=eastwest;whiteSpace=wrap;html=1;" parent="X0b0RHwHDyXbMrfLogEa-179" vertex="1">
          <mxGeometry y="138" width="330" height="26" as="geometry" />
        </mxCell>
        <mxCell id="X0b0RHwHDyXbMrfLogEa-187" value="+ detach(Observer): void" style="text;strokeColor=none;fillColor=none;align=left;verticalAlign=top;spacingLeft=4;spacingRight=4;overflow=hidden;rotatable=0;points=[[0,0.5],[1,0.5]];portConstraint=eastwest;whiteSpace=wrap;html=1;" parent="X0b0RHwHDyXbMrfLogEa-179" vertex="1">
          <mxGeometry y="164" width="330" height="26" as="geometry" />
        </mxCell>
        <mxCell id="X0b0RHwHDyXbMrfLogEa-188" value="+notify(): void" style="text;strokeColor=none;fillColor=none;align=left;verticalAlign=top;spacingLeft=4;spacingRight=4;overflow=hidden;rotatable=0;points=[[0,0.5],[1,0.5]];portConstraint=eastwest;whiteSpace=wrap;html=1;" parent="X0b0RHwHDyXbMrfLogEa-179" vertex="1">
          <mxGeometry y="190" width="330" height="28" as="geometry" />
        </mxCell>
        <mxCell id="X0b0RHwHDyXbMrfLogEa-194" value="" style="endArrow=block;dashed=1;endFill=0;endSize=12;html=1;rounded=0;exitX=1.005;exitY=0.067;exitDx=0;exitDy=0;entryX=0;entryY=1;entryDx=0;entryDy=0;exitPerimeter=0;" parent="WIyWlLk6GJQsqaUBKTNV-1" source="X0b0RHwHDyXbMrfLogEa-179" target="X0b0RHwHDyXbMrfLogEa-126" edge="1">
          <mxGeometry width="160" relative="1" as="geometry">
            <mxPoint x="6460" y="463" as="sourcePoint" />
            <mxPoint x="6560" y="561" as="targetPoint" />
          </mxGeometry>
        </mxCell>
        <mxCell id="X0b0RHwHDyXbMrfLogEa-198" value="" style="endArrow=none;html=1;edgeStyle=orthogonalEdgeStyle;rounded=0;entryX=0;entryY=0.5;entryDx=0;entryDy=0;exitX=1;exitY=0.5;exitDx=0;exitDy=0;" parent="WIyWlLk6GJQsqaUBKTNV-1" source="X0b0RHwHDyXbMrfLogEa-186" target="X0b0RHwHDyXbMrfLogEa-59" edge="1">
          <mxGeometry relative="1" as="geometry">
            <mxPoint x="6530" y="720" as="sourcePoint" />
            <mxPoint x="6690" y="720" as="targetPoint" />
            <Array as="points">
              <mxPoint x="6670" y="691" />
              <mxPoint x="6670" y="770" />
              <mxPoint x="6810" y="770" />
            </Array>
          </mxGeometry>
        </mxCell>
        <mxCell id="X0b0RHwHDyXbMrfLogEa-199" value="1" style="edgeLabel;resizable=0;html=1;align=left;verticalAlign=bottom;" parent="X0b0RHwHDyXbMrfLogEa-198" connectable="0" vertex="1">
          <mxGeometry x="-1" relative="1" as="geometry" />
        </mxCell>
        <mxCell id="X0b0RHwHDyXbMrfLogEa-200" value="1..*" style="edgeLabel;resizable=0;html=1;align=right;verticalAlign=bottom;" parent="X0b0RHwHDyXbMrfLogEa-198" connectable="0" vertex="1">
          <mxGeometry x="1" relative="1" as="geometry" />
        </mxCell>
        <mxCell id="X0b0RHwHDyXbMrfLogEa-201" value="CreditCardManager" style="swimlane;fontStyle=1;align=center;verticalAlign=top;childLayout=stackLayout;horizontal=1;startSize=26;horizontalStack=0;resizeParent=1;resizeParentMax=0;resizeLast=0;collapsible=1;marginBottom=0;whiteSpace=wrap;html=1;" parent="WIyWlLk6GJQsqaUBKTNV-1" vertex="1">
          <mxGeometry x="6200" y="900" width="330" height="450" as="geometry" />
        </mxCell>
        <mxCell id="X0b0RHwHDyXbMrfLogEa-202" value="- creditCardNumbers: ArrayList&amp;lt;String&amp;gt;" style="text;strokeColor=none;fillColor=none;align=left;verticalAlign=top;spacingLeft=4;spacingRight=4;overflow=hidden;rotatable=0;points=[[0,0.5],[1,0.5]];portConstraint=eastwest;whiteSpace=wrap;html=1;" parent="X0b0RHwHDyXbMrfLogEa-201" vertex="1">
          <mxGeometry y="26" width="330" height="26" as="geometry" />
        </mxCell>
        <mxCell id="X0b0RHwHDyXbMrfLogEa-211" value="- creditCardBalances: ArrayList&amp;lt;Double&amp;gt;" style="text;strokeColor=none;fillColor=none;align=left;verticalAlign=top;spacingLeft=4;spacingRight=4;overflow=hidden;rotatable=0;points=[[0,0.5],[1,0.5]];portConstraint=eastwest;whiteSpace=wrap;html=1;" parent="X0b0RHwHDyXbMrfLogEa-201" vertex="1">
          <mxGeometry y="52" width="330" height="26" as="geometry" />
        </mxCell>
        <mxCell id="cMXHbLQRaVfCkkEPk3rR-118" value="- points: Int" style="text;strokeColor=none;fillColor=none;align=left;verticalAlign=top;spacingLeft=4;spacingRight=4;overflow=hidden;rotatable=0;points=[[0,0.5],[1,0.5]];portConstraint=eastwest;whiteSpace=wrap;html=1;" parent="X0b0RHwHDyXbMrfLogEa-201" vertex="1">
          <mxGeometry y="78" width="330" height="26" as="geometry" />
        </mxCell>
        <mxCell id="X0b0RHwHDyXbMrfLogEa-217" value="- Subcriber: ArrayList&amp;lt;Observer&amp;gt;" style="text;strokeColor=none;fillColor=none;align=left;verticalAlign=top;spacingLeft=4;spacingRight=4;overflow=hidden;rotatable=0;points=[[0,0.5],[1,0.5]];portConstraint=eastwest;whiteSpace=wrap;html=1;" parent="X0b0RHwHDyXbMrfLogEa-201" vertex="1">
          <mxGeometry y="104" width="330" height="26" as="geometry" />
        </mxCell>
        <mxCell id="X0b0RHwHDyXbMrfLogEa-204" value="" style="line;strokeWidth=1;fillColor=none;align=left;verticalAlign=middle;spacingTop=-1;spacingLeft=3;spacingRight=3;rotatable=0;labelPosition=right;points=[];portConstraint=eastwest;strokeColor=inherit;" parent="X0b0RHwHDyXbMrfLogEa-201" vertex="1">
          <mxGeometry y="130" width="330" height="8" as="geometry" />
        </mxCell>
        <mxCell id="X0b0RHwHDyXbMrfLogEa-205" value="+ ViewCard(cardNum: String): String" style="text;strokeColor=none;fillColor=none;align=left;verticalAlign=top;spacingLeft=4;spacingRight=4;overflow=hidden;rotatable=0;points=[[0,0.5],[1,0.5]];portConstraint=eastwest;whiteSpace=wrap;html=1;" parent="X0b0RHwHDyXbMrfLogEa-201" vertex="1">
          <mxGeometry y="138" width="330" height="26" as="geometry" />
        </mxCell>
        <mxCell id="X0b0RHwHDyXbMrfLogEa-219" value="+ viewCards(): ArrayList&amp;lt;String&amp;gt;" style="text;strokeColor=none;fillColor=none;align=left;verticalAlign=top;spacingLeft=4;spacingRight=4;overflow=hidden;rotatable=0;points=[[0,0.5],[1,0.5]];portConstraint=eastwest;whiteSpace=wrap;html=1;" parent="X0b0RHwHDyXbMrfLogEa-201" vertex="1">
          <mxGeometry y="164" width="330" height="26" as="geometry" />
        </mxCell>
        <mxCell id="X0b0RHwHDyXbMrfLogEa-206" value="+ freezeCard(cardNum: String): void" style="text;strokeColor=none;fillColor=none;align=left;verticalAlign=top;spacingLeft=4;spacingRight=4;overflow=hidden;rotatable=0;points=[[0,0.5],[1,0.5]];portConstraint=eastwest;whiteSpace=wrap;html=1;" parent="X0b0RHwHDyXbMrfLogEa-201" vertex="1">
          <mxGeometry y="190" width="330" height="26" as="geometry" />
        </mxCell>
        <mxCell id="X0b0RHwHDyXbMrfLogEa-207" value="+ viewBalance(cardNum: String: int" style="text;strokeColor=none;fillColor=none;align=left;verticalAlign=top;spacingLeft=4;spacingRight=4;overflow=hidden;rotatable=0;points=[[0,0.5],[1,0.5]];portConstraint=eastwest;whiteSpace=wrap;html=1;" parent="X0b0RHwHDyXbMrfLogEa-201" vertex="1">
          <mxGeometry y="216" width="330" height="26" as="geometry" />
        </mxCell>
        <mxCell id="X0b0RHwHDyXbMrfLogEa-208" value="+ blockCard(cardNum): void" style="text;strokeColor=none;fillColor=none;align=left;verticalAlign=top;spacingLeft=4;spacingRight=4;overflow=hidden;rotatable=0;points=[[0,0.5],[1,0.5]];portConstraint=eastwest;whiteSpace=wrap;html=1;" parent="X0b0RHwHDyXbMrfLogEa-201" vertex="1">
          <mxGeometry y="242" width="330" height="26" as="geometry" />
        </mxCell>
        <mxCell id="cMXHbLQRaVfCkkEPk3rR-123" value="+ redeemPoint(points:int, PartnerPartyAccNum: String)" style="text;strokeColor=none;fillColor=none;align=left;verticalAlign=top;spacingLeft=4;spacingRight=4;overflow=hidden;rotatable=0;points=[[0,0.5],[1,0.5]];portConstraint=eastwest;whiteSpace=wrap;html=1;" parent="X0b0RHwHDyXbMrfLogEa-201" vertex="1">
          <mxGeometry y="268" width="330" height="26" as="geometry" />
        </mxCell>
        <mxCell id="X0b0RHwHDyXbMrfLogEa-214" value="+ attach(Observer): void" style="text;strokeColor=none;fillColor=none;align=left;verticalAlign=top;spacingLeft=4;spacingRight=4;overflow=hidden;rotatable=0;points=[[0,0.5],[1,0.5]];portConstraint=eastwest;whiteSpace=wrap;html=1;" parent="X0b0RHwHDyXbMrfLogEa-201" vertex="1">
          <mxGeometry y="294" width="330" height="26" as="geometry" />
        </mxCell>
        <mxCell id="X0b0RHwHDyXbMrfLogEa-216" value="+ detach(Observer): void" style="text;strokeColor=none;fillColor=none;align=left;verticalAlign=top;spacingLeft=4;spacingRight=4;overflow=hidden;rotatable=0;points=[[0,0.5],[1,0.5]];portConstraint=eastwest;whiteSpace=wrap;html=1;" parent="X0b0RHwHDyXbMrfLogEa-201" vertex="1">
          <mxGeometry y="320" width="330" height="26" as="geometry" />
        </mxCell>
        <mxCell id="X0b0RHwHDyXbMrfLogEa-215" value="+ notify(): void" style="text;strokeColor=none;fillColor=none;align=left;verticalAlign=top;spacingLeft=4;spacingRight=4;overflow=hidden;rotatable=0;points=[[0,0.5],[1,0.5]];portConstraint=eastwest;whiteSpace=wrap;html=1;" parent="X0b0RHwHDyXbMrfLogEa-201" vertex="1">
          <mxGeometry y="346" width="330" height="26" as="geometry" />
        </mxCell>
        <mxCell id="cMXHbLQRaVfCkkEPk3rR-119" value="+ getPoints(): int" style="text;strokeColor=none;fillColor=none;align=left;verticalAlign=top;spacingLeft=4;spacingRight=4;overflow=hidden;rotatable=0;points=[[0,0.5],[1,0.5]];portConstraint=eastwest;whiteSpace=wrap;html=1;" parent="X0b0RHwHDyXbMrfLogEa-201" vertex="1">
          <mxGeometry y="372" width="330" height="26" as="geometry" />
        </mxCell>
        <mxCell id="cMXHbLQRaVfCkkEPk3rR-120" value="+ setPoints(): void" style="text;strokeColor=none;fillColor=none;align=left;verticalAlign=top;spacingLeft=4;spacingRight=4;overflow=hidden;rotatable=0;points=[[0,0.5],[1,0.5]];portConstraint=eastwest;whiteSpace=wrap;html=1;" parent="X0b0RHwHDyXbMrfLogEa-201" vertex="1">
          <mxGeometry y="398" width="330" height="26" as="geometry" />
        </mxCell>
        <mxCell id="cMXHbLQRaVfCkkEPk3rR-122" value="+ updatePoints(netAmount:int): void" style="text;strokeColor=none;fillColor=none;align=left;verticalAlign=top;spacingLeft=4;spacingRight=4;overflow=hidden;rotatable=0;points=[[0,0.5],[1,0.5]];portConstraint=eastwest;whiteSpace=wrap;html=1;" parent="X0b0RHwHDyXbMrfLogEa-201" vertex="1">
          <mxGeometry y="424" width="330" height="26" as="geometry" />
        </mxCell>
        <mxCell id="X0b0RHwHDyXbMrfLogEa-218" value="" style="endArrow=block;dashed=1;endFill=0;endSize=12;html=1;rounded=0;exitX=1;exitY=0;exitDx=0;exitDy=0;entryX=0.13;entryY=1;entryDx=0;entryDy=0;entryPerimeter=0;" parent="WIyWlLk6GJQsqaUBKTNV-1" source="X0b0RHwHDyXbMrfLogEa-201" target="X0b0RHwHDyXbMrfLogEa-126" edge="1">
          <mxGeometry width="160" relative="1" as="geometry">
            <mxPoint x="6532" y="810" as="sourcePoint" />
            <mxPoint x="6580" y="725" as="targetPoint" />
          </mxGeometry>
        </mxCell>
        <mxCell id="X0b0RHwHDyXbMrfLogEa-220" value="" style="endArrow=none;html=1;edgeStyle=orthogonalEdgeStyle;rounded=0;entryX=0;entryY=0.5;entryDx=0;entryDy=0;exitX=1;exitY=0.5;exitDx=0;exitDy=0;" parent="WIyWlLk6GJQsqaUBKTNV-1" source="X0b0RHwHDyXbMrfLogEa-202" target="cMXHbLQRaVfCkkEPk3rR-282" edge="1">
          <mxGeometry relative="1" as="geometry">
            <mxPoint x="6460" y="960.3620000000001" as="sourcePoint" />
            <mxPoint x="6740.33" y="869.998" as="targetPoint" />
          </mxGeometry>
        </mxCell>
        <mxCell id="X0b0RHwHDyXbMrfLogEa-221" value="1" style="edgeLabel;resizable=0;html=1;align=left;verticalAlign=bottom;" parent="X0b0RHwHDyXbMrfLogEa-220" connectable="0" vertex="1">
          <mxGeometry x="-1" relative="1" as="geometry">
            <mxPoint x="10" as="offset" />
          </mxGeometry>
        </mxCell>
        <mxCell id="X0b0RHwHDyXbMrfLogEa-222" value="1" style="edgeLabel;resizable=0;html=1;align=right;verticalAlign=bottom;" parent="X0b0RHwHDyXbMrfLogEa-220" connectable="0" vertex="1">
          <mxGeometry x="1" relative="1" as="geometry">
            <mxPoint x="-10" as="offset" />
          </mxGeometry>
        </mxCell>
        <mxCell id="X0b0RHwHDyXbMrfLogEa-223" value="" style="endArrow=none;html=1;edgeStyle=orthogonalEdgeStyle;rounded=0;exitX=0.998;exitY=1;exitDx=0;exitDy=0;exitPerimeter=0;entryX=0.032;entryY=0.992;entryDx=0;entryDy=0;entryPerimeter=0;" parent="WIyWlLk6GJQsqaUBKTNV-1" source="cMXHbLQRaVfCkkEPk3rR-122" target="X0b0RHwHDyXbMrfLogEa-151" edge="1">
          <mxGeometry relative="1" as="geometry">
            <mxPoint x="6530" y="1240" as="sourcePoint" />
            <mxPoint x="7170" y="1310" as="targetPoint" />
            <Array as="points">
              <mxPoint x="6529" y="1580" />
              <mxPoint x="7220" y="1580" />
            </Array>
          </mxGeometry>
        </mxCell>
        <mxCell id="X0b0RHwHDyXbMrfLogEa-224" value="1..*" style="edgeLabel;resizable=0;html=1;align=left;verticalAlign=bottom;" parent="X0b0RHwHDyXbMrfLogEa-223" connectable="0" vertex="1">
          <mxGeometry x="-1" relative="1" as="geometry">
            <mxPoint x="3" y="19" as="offset" />
          </mxGeometry>
        </mxCell>
        <mxCell id="X0b0RHwHDyXbMrfLogEa-225" value="1..*" style="edgeLabel;resizable=0;html=1;align=right;verticalAlign=bottom;" parent="X0b0RHwHDyXbMrfLogEa-223" connectable="0" vertex="1">
          <mxGeometry x="1" relative="1" as="geometry">
            <mxPoint x="-3" y="18" as="offset" />
          </mxGeometry>
        </mxCell>
        <mxCell id="X0b0RHwHDyXbMrfLogEa-226" value="" style="endArrow=none;html=1;edgeStyle=orthogonalEdgeStyle;rounded=0;entryX=0.134;entryY=1.008;entryDx=0;entryDy=0;entryPerimeter=0;exitX=0.937;exitY=0.987;exitDx=0;exitDy=0;exitPerimeter=0;" parent="WIyWlLk6GJQsqaUBKTNV-1" source="cMXHbLQRaVfCkkEPk3rR-122" target="X0b0RHwHDyXbMrfLogEa-152" edge="1">
          <mxGeometry relative="1" as="geometry">
            <mxPoint x="6510" y="1270" as="sourcePoint" />
            <mxPoint x="7468.299999999999" y="923.008" as="targetPoint" />
            <Array as="points">
              <mxPoint x="6509" y="1650" />
              <mxPoint x="7630" y="1650" />
            </Array>
          </mxGeometry>
        </mxCell>
        <mxCell id="X0b0RHwHDyXbMrfLogEa-227" value="1..*" style="edgeLabel;resizable=0;html=1;align=left;verticalAlign=bottom;" parent="X0b0RHwHDyXbMrfLogEa-226" connectable="0" vertex="1">
          <mxGeometry x="-1" relative="1" as="geometry">
            <mxPoint y="20" as="offset" />
          </mxGeometry>
        </mxCell>
        <mxCell id="X0b0RHwHDyXbMrfLogEa-228" value="1..*" style="edgeLabel;resizable=0;html=1;align=right;verticalAlign=bottom;" parent="X0b0RHwHDyXbMrfLogEa-226" connectable="0" vertex="1">
          <mxGeometry x="1" relative="1" as="geometry">
            <mxPoint x="-8" y="28" as="offset" />
          </mxGeometry>
        </mxCell>
        <mxCell id="X0b0RHwHDyXbMrfLogEa-229" value="LoanApplications" style="swimlane;fontStyle=3;align=center;verticalAlign=top;childLayout=stackLayout;horizontal=1;startSize=26;horizontalStack=0;resizeParent=1;resizeLast=0;collapsible=1;marginBottom=0;rounded=0;shadow=0;strokeWidth=1;" parent="WIyWlLk6GJQsqaUBKTNV-1" vertex="1">
          <mxGeometry x="5890" y="81" width="250" height="382" as="geometry">
            <mxRectangle x="230" y="140" width="160" height="26" as="alternateBounds" />
          </mxGeometry>
        </mxCell>
        <mxCell id="X0b0RHwHDyXbMrfLogEa-230" value="- ApplicationDate: ArrayList&lt;Date&gt;" style="text;align=left;verticalAlign=top;spacingLeft=4;spacingRight=4;overflow=hidden;rotatable=0;points=[[0,0.5],[1,0.5]];portConstraint=eastwest;" parent="X0b0RHwHDyXbMrfLogEa-229" vertex="1">
          <mxGeometry y="26" width="250" height="26" as="geometry" />
        </mxCell>
        <mxCell id="X0b0RHwHDyXbMrfLogEa-231" value="- ApplicationNums: ArrayList&lt;Int&gt;" style="text;align=left;verticalAlign=top;spacingLeft=4;spacingRight=4;overflow=hidden;rotatable=0;points=[[0,0.5],[1,0.5]];portConstraint=eastwest;" parent="X0b0RHwHDyXbMrfLogEa-229" vertex="1">
          <mxGeometry y="52" width="250" height="26" as="geometry" />
        </mxCell>
        <mxCell id="X0b0RHwHDyXbMrfLogEa-232" value="- type:String" style="text;align=left;verticalAlign=top;spacingLeft=4;spacingRight=4;overflow=hidden;rotatable=0;points=[[0,0.5],[1,0.5]];portConstraint=eastwest;rounded=0;shadow=0;html=0;" parent="X0b0RHwHDyXbMrfLogEa-229" vertex="1">
          <mxGeometry y="78" width="250" height="26" as="geometry" />
        </mxCell>
        <mxCell id="X0b0RHwHDyXbMrfLogEa-233" value="- amount: ArrayList&lt;int&gt;" style="text;align=left;verticalAlign=top;spacingLeft=4;spacingRight=4;overflow=hidden;rotatable=0;points=[[0,0.5],[1,0.5]];portConstraint=eastwest;rounded=0;shadow=0;html=0;" parent="X0b0RHwHDyXbMrfLogEa-229" vertex="1">
          <mxGeometry y="104" width="250" height="26" as="geometry" />
        </mxCell>
        <mxCell id="X0b0RHwHDyXbMrfLogEa-234" value="- status: ArrayList&lt;Boolean&gt;" style="text;align=left;verticalAlign=top;spacingLeft=4;spacingRight=4;overflow=hidden;rotatable=0;points=[[0,0.5],[1,0.5]];portConstraint=eastwest;rounded=0;shadow=0;html=0;" parent="X0b0RHwHDyXbMrfLogEa-229" vertex="1">
          <mxGeometry y="130" width="250" height="26" as="geometry" />
        </mxCell>
        <mxCell id="X0b0RHwHDyXbMrfLogEa-273" value="- interestRate: ArrayList&lt;Double&gt;" style="text;align=left;verticalAlign=top;spacingLeft=4;spacingRight=4;overflow=hidden;rotatable=0;points=[[0,0.5],[1,0.5]];portConstraint=eastwest;rounded=0;shadow=0;html=0;" parent="X0b0RHwHDyXbMrfLogEa-229" vertex="1">
          <mxGeometry y="156" width="250" height="26" as="geometry" />
        </mxCell>
        <mxCell id="X0b0RHwHDyXbMrfLogEa-235" value="- Subcribers: ArrayList&lt;Observer&gt;" style="text;align=left;verticalAlign=top;spacingLeft=4;spacingRight=4;overflow=hidden;rotatable=0;points=[[0,0.5],[1,0.5]];portConstraint=eastwest;rounded=0;shadow=0;html=0;" parent="X0b0RHwHDyXbMrfLogEa-229" vertex="1">
          <mxGeometry y="182" width="250" height="26" as="geometry" />
        </mxCell>
        <mxCell id="X0b0RHwHDyXbMrfLogEa-274" value="- repaymentTerm: ArrayList&lt;int&gt;" style="text;align=left;verticalAlign=top;spacingLeft=4;spacingRight=4;overflow=hidden;rotatable=0;points=[[0,0.5],[1,0.5]];portConstraint=eastwest;rounded=0;shadow=0;html=0;" parent="X0b0RHwHDyXbMrfLogEa-229" vertex="1">
          <mxGeometry y="208" width="250" height="26" as="geometry" />
        </mxCell>
        <mxCell id="X0b0RHwHDyXbMrfLogEa-236" value="" style="line;html=1;strokeWidth=1;align=left;verticalAlign=middle;spacingTop=-1;spacingLeft=3;spacingRight=3;rotatable=0;labelPosition=right;points=[];portConstraint=eastwest;" parent="X0b0RHwHDyXbMrfLogEa-229" vertex="1">
          <mxGeometry y="234" width="250" height="8" as="geometry" />
        </mxCell>
        <mxCell id="X0b0RHwHDyXbMrfLogEa-237" value="+ applyForLoan() : void&#xa;" style="text;align=left;verticalAlign=top;spacingLeft=4;spacingRight=4;overflow=hidden;rotatable=0;points=[[0,0.5],[1,0.5]];portConstraint=eastwest;" parent="X0b0RHwHDyXbMrfLogEa-229" vertex="1">
          <mxGeometry y="242" width="250" height="26" as="geometry" />
        </mxCell>
        <mxCell id="X0b0RHwHDyXbMrfLogEa-238" value="+ viewApplications() : ArrayList&lt;String&gt;&#xa;" style="text;align=left;verticalAlign=top;spacingLeft=4;spacingRight=4;overflow=hidden;rotatable=0;points=[[0,0.5],[1,0.5]];portConstraint=eastwest;" parent="X0b0RHwHDyXbMrfLogEa-229" vertex="1">
          <mxGeometry y="268" width="250" height="26" as="geometry" />
        </mxCell>
        <mxCell id="X0b0RHwHDyXbMrfLogEa-239" value="+ cancelApplication(appNum: int): void" style="text;align=left;verticalAlign=top;spacingLeft=4;spacingRight=4;overflow=hidden;rotatable=0;points=[[0,0.5],[1,0.5]];portConstraint=eastwest;" parent="X0b0RHwHDyXbMrfLogEa-229" vertex="1">
          <mxGeometry y="294" width="250" height="22" as="geometry" />
        </mxCell>
        <mxCell id="X0b0RHwHDyXbMrfLogEa-359" value="" style="endArrow=block;dashed=1;endFill=0;endSize=12;html=1;rounded=0;entryX=-0.008;entryY=0.654;entryDx=0;entryDy=0;entryPerimeter=0;" parent="X0b0RHwHDyXbMrfLogEa-229" target="X0b0RHwHDyXbMrfLogEa-126" edge="1">
          <mxGeometry width="160" relative="1" as="geometry">
            <mxPoint x="-100" y="321" as="sourcePoint" />
            <mxPoint x="340" y="316" as="targetPoint" />
          </mxGeometry>
        </mxCell>
        <mxCell id="X0b0RHwHDyXbMrfLogEa-240" value="+ attach(Observer): void" style="text;align=left;verticalAlign=top;spacingLeft=4;spacingRight=4;overflow=hidden;rotatable=0;points=[[0,0.5],[1,0.5]];portConstraint=eastwest;" parent="X0b0RHwHDyXbMrfLogEa-229" vertex="1">
          <mxGeometry y="316" width="250" height="22" as="geometry" />
        </mxCell>
        <mxCell id="X0b0RHwHDyXbMrfLogEa-241" value="+ detach(Observer): void" style="text;align=left;verticalAlign=top;spacingLeft=4;spacingRight=4;overflow=hidden;rotatable=0;points=[[0,0.5],[1,0.5]];portConstraint=eastwest;" parent="X0b0RHwHDyXbMrfLogEa-229" vertex="1">
          <mxGeometry y="338" width="250" height="22" as="geometry" />
        </mxCell>
        <mxCell id="X0b0RHwHDyXbMrfLogEa-242" value="+ notify(): void" style="text;align=left;verticalAlign=top;spacingLeft=4;spacingRight=4;overflow=hidden;rotatable=0;points=[[0,0.5],[1,0.5]];portConstraint=eastwest;" parent="X0b0RHwHDyXbMrfLogEa-229" vertex="1">
          <mxGeometry y="360" width="250" height="22" as="geometry" />
        </mxCell>
        <mxCell id="X0b0RHwHDyXbMrfLogEa-244" value="LoansApproval" style="swimlane;fontStyle=1;align=center;verticalAlign=top;childLayout=stackLayout;horizontal=1;startSize=26;horizontalStack=0;resizeParent=1;resizeParentMax=0;resizeLast=0;collapsible=1;marginBottom=0;whiteSpace=wrap;html=1;" parent="WIyWlLk6GJQsqaUBKTNV-1" vertex="1">
          <mxGeometry x="5840" y="527" width="330" height="218" as="geometry" />
        </mxCell>
        <mxCell id="X0b0RHwHDyXbMrfLogEa-245" value="- loanApplications: ArrayList&amp;lt;LoanApplications&amp;gt;" style="text;strokeColor=none;fillColor=none;align=left;verticalAlign=top;spacingLeft=4;spacingRight=4;overflow=hidden;rotatable=0;points=[[0,0.5],[1,0.5]];portConstraint=eastwest;whiteSpace=wrap;html=1;" parent="X0b0RHwHDyXbMrfLogEa-244" vertex="1">
          <mxGeometry y="26" width="330" height="26" as="geometry" />
        </mxCell>
        <mxCell id="X0b0RHwHDyXbMrfLogEa-246" value="- Subcribers: ArrayList&amp;lt;Observer&amp;gt;" style="text;strokeColor=none;fillColor=none;align=left;verticalAlign=top;spacingLeft=4;spacingRight=4;overflow=hidden;rotatable=0;points=[[0,0.5],[1,0.5]];portConstraint=eastwest;whiteSpace=wrap;html=1;" parent="X0b0RHwHDyXbMrfLogEa-244" vertex="1">
          <mxGeometry y="52" width="330" height="26" as="geometry" />
        </mxCell>
        <mxCell id="X0b0RHwHDyXbMrfLogEa-247" value="" style="line;strokeWidth=1;fillColor=none;align=left;verticalAlign=middle;spacingTop=-1;spacingLeft=3;spacingRight=3;rotatable=0;labelPosition=right;points=[];portConstraint=eastwest;strokeColor=inherit;" parent="X0b0RHwHDyXbMrfLogEa-244" vertex="1">
          <mxGeometry y="78" width="330" height="8" as="geometry" />
        </mxCell>
        <mxCell id="X0b0RHwHDyXbMrfLogEa-248" value="+ approveLoan(AppNum:String): void" style="text;strokeColor=none;fillColor=none;align=left;verticalAlign=top;spacingLeft=4;spacingRight=4;overflow=hidden;rotatable=0;points=[[0,0.5],[1,0.5]];portConstraint=eastwest;whiteSpace=wrap;html=1;" parent="X0b0RHwHDyXbMrfLogEa-244" vertex="1">
          <mxGeometry y="86" width="330" height="26" as="geometry" />
        </mxCell>
        <mxCell id="X0b0RHwHDyXbMrfLogEa-249" value="+ rejectLoan(AppNum:String): void" style="text;strokeColor=none;fillColor=none;align=left;verticalAlign=top;spacingLeft=4;spacingRight=4;overflow=hidden;rotatable=0;points=[[0,0.5],[1,0.5]];portConstraint=eastwest;whiteSpace=wrap;html=1;" parent="X0b0RHwHDyXbMrfLogEa-244" vertex="1">
          <mxGeometry y="112" width="330" height="26" as="geometry" />
        </mxCell>
        <mxCell id="X0b0RHwHDyXbMrfLogEa-250" value="+ attach(Observer): void" style="text;strokeColor=none;fillColor=none;align=left;verticalAlign=top;spacingLeft=4;spacingRight=4;overflow=hidden;rotatable=0;points=[[0,0.5],[1,0.5]];portConstraint=eastwest;whiteSpace=wrap;html=1;" parent="X0b0RHwHDyXbMrfLogEa-244" vertex="1">
          <mxGeometry y="138" width="330" height="26" as="geometry" />
        </mxCell>
        <mxCell id="X0b0RHwHDyXbMrfLogEa-251" value="+ detach(Observer): void" style="text;strokeColor=none;fillColor=none;align=left;verticalAlign=top;spacingLeft=4;spacingRight=4;overflow=hidden;rotatable=0;points=[[0,0.5],[1,0.5]];portConstraint=eastwest;whiteSpace=wrap;html=1;" parent="X0b0RHwHDyXbMrfLogEa-244" vertex="1">
          <mxGeometry y="164" width="330" height="26" as="geometry" />
        </mxCell>
        <mxCell id="X0b0RHwHDyXbMrfLogEa-252" value="+ notify(): void" style="text;strokeColor=none;fillColor=none;align=left;verticalAlign=top;spacingLeft=4;spacingRight=4;overflow=hidden;rotatable=0;points=[[0,0.5],[1,0.5]];portConstraint=eastwest;whiteSpace=wrap;html=1;" parent="X0b0RHwHDyXbMrfLogEa-244" vertex="1">
          <mxGeometry y="190" width="330" height="28" as="geometry" />
        </mxCell>
        <mxCell id="X0b0RHwHDyXbMrfLogEa-255" value="LoanManager" style="swimlane;fontStyle=1;align=center;verticalAlign=top;childLayout=stackLayout;horizontal=1;startSize=26;horizontalStack=0;resizeParent=1;resizeParentMax=0;resizeLast=0;collapsible=1;marginBottom=0;whiteSpace=wrap;html=1;" parent="WIyWlLk6GJQsqaUBKTNV-1" vertex="1">
          <mxGeometry x="5440" y="900" width="330" height="372" as="geometry" />
        </mxCell>
        <mxCell id="X0b0RHwHDyXbMrfLogEa-256" value="- loanIDs: ArrayList&amp;lt;String&amp;gt;" style="text;strokeColor=none;fillColor=none;align=left;verticalAlign=top;spacingLeft=4;spacingRight=4;overflow=hidden;rotatable=0;points=[[0,0.5],[1,0.5]];portConstraint=eastwest;whiteSpace=wrap;html=1;" parent="X0b0RHwHDyXbMrfLogEa-255" vertex="1">
          <mxGeometry y="26" width="330" height="26" as="geometry" />
        </mxCell>
        <mxCell id="X0b0RHwHDyXbMrfLogEa-257" value="- loanAmounts: ArrayList&amp;lt;Double&amp;gt;" style="text;strokeColor=none;fillColor=none;align=left;verticalAlign=top;spacingLeft=4;spacingRight=4;overflow=hidden;rotatable=0;points=[[0,0.5],[1,0.5]];portConstraint=eastwest;whiteSpace=wrap;html=1;" parent="X0b0RHwHDyXbMrfLogEa-255" vertex="1">
          <mxGeometry y="52" width="330" height="26" as="geometry" />
        </mxCell>
        <mxCell id="X0b0RHwHDyXbMrfLogEa-276" value="- loanPaymentDeadlines: ArrayList&amp;lt;Date&amp;gt;" style="text;strokeColor=none;fillColor=none;align=left;verticalAlign=top;spacingLeft=4;spacingRight=4;overflow=hidden;rotatable=0;points=[[0,0.5],[1,0.5]];portConstraint=eastwest;whiteSpace=wrap;html=1;" parent="X0b0RHwHDyXbMrfLogEa-255" vertex="1">
          <mxGeometry y="78" width="330" height="26" as="geometry" />
        </mxCell>
        <mxCell id="X0b0RHwHDyXbMrfLogEa-277" value="- loanDueAmounts: ArrayList&amp;lt;Double&amp;gt;" style="text;strokeColor=none;fillColor=none;align=left;verticalAlign=top;spacingLeft=4;spacingRight=4;overflow=hidden;rotatable=0;points=[[0,0.5],[1,0.5]];portConstraint=eastwest;whiteSpace=wrap;html=1;" parent="X0b0RHwHDyXbMrfLogEa-255" vertex="1">
          <mxGeometry y="104" width="330" height="26" as="geometry" />
        </mxCell>
        <mxCell id="X0b0RHwHDyXbMrfLogEa-258" value="- Subcriber: ArrayList&amp;lt;Observer&amp;gt;" style="text;strokeColor=none;fillColor=none;align=left;verticalAlign=top;spacingLeft=4;spacingRight=4;overflow=hidden;rotatable=0;points=[[0,0.5],[1,0.5]];portConstraint=eastwest;whiteSpace=wrap;html=1;" parent="X0b0RHwHDyXbMrfLogEa-255" vertex="1">
          <mxGeometry y="130" width="330" height="26" as="geometry" />
        </mxCell>
        <mxCell id="X0b0RHwHDyXbMrfLogEa-259" value="" style="line;strokeWidth=1;fillColor=none;align=left;verticalAlign=middle;spacingTop=-1;spacingLeft=3;spacingRight=3;rotatable=0;labelPosition=right;points=[];portConstraint=eastwest;strokeColor=inherit;" parent="X0b0RHwHDyXbMrfLogEa-255" vertex="1">
          <mxGeometry y="156" width="330" height="8" as="geometry" />
        </mxCell>
        <mxCell id="X0b0RHwHDyXbMrfLogEa-260" value="+ ViewLoanAmount(loanID: String): Double" style="text;strokeColor=none;fillColor=none;align=left;verticalAlign=top;spacingLeft=4;spacingRight=4;overflow=hidden;rotatable=0;points=[[0,0.5],[1,0.5]];portConstraint=eastwest;whiteSpace=wrap;html=1;" parent="X0b0RHwHDyXbMrfLogEa-255" vertex="1">
          <mxGeometry y="164" width="330" height="26" as="geometry" />
        </mxCell>
        <mxCell id="X0b0RHwHDyXbMrfLogEa-261" value="+ viewLoanAmounts(): ArrayList&amp;lt;String&amp;gt;" style="text;strokeColor=none;fillColor=none;align=left;verticalAlign=top;spacingLeft=4;spacingRight=4;overflow=hidden;rotatable=0;points=[[0,0.5],[1,0.5]];portConstraint=eastwest;whiteSpace=wrap;html=1;" parent="X0b0RHwHDyXbMrfLogEa-255" vertex="1">
          <mxGeometry y="190" width="330" height="26" as="geometry" />
        </mxCell>
        <mxCell id="X0b0RHwHDyXbMrfLogEa-262" value="+ payLoan(accNum: String): void" style="text;strokeColor=none;fillColor=none;align=left;verticalAlign=top;spacingLeft=4;spacingRight=4;overflow=hidden;rotatable=0;points=[[0,0.5],[1,0.5]];portConstraint=eastwest;whiteSpace=wrap;html=1;" parent="X0b0RHwHDyXbMrfLogEa-255" vertex="1">
          <mxGeometry y="216" width="330" height="26" as="geometry" />
        </mxCell>
        <mxCell id="X0b0RHwHDyXbMrfLogEa-263" value="+ viewDueBalance(loanID: String): Double" style="text;strokeColor=none;fillColor=none;align=left;verticalAlign=top;spacingLeft=4;spacingRight=4;overflow=hidden;rotatable=0;points=[[0,0.5],[1,0.5]];portConstraint=eastwest;whiteSpace=wrap;html=1;" parent="X0b0RHwHDyXbMrfLogEa-255" vertex="1">
          <mxGeometry y="242" width="330" height="26" as="geometry" />
        </mxCell>
        <mxCell id="X0b0RHwHDyXbMrfLogEa-264" value="+ viewTotalDue(): Double" style="text;strokeColor=none;fillColor=none;align=left;verticalAlign=top;spacingLeft=4;spacingRight=4;overflow=hidden;rotatable=0;points=[[0,0.5],[1,0.5]];portConstraint=eastwest;whiteSpace=wrap;html=1;" parent="X0b0RHwHDyXbMrfLogEa-255" vertex="1">
          <mxGeometry y="268" width="330" height="26" as="geometry" />
        </mxCell>
        <mxCell id="X0b0RHwHDyXbMrfLogEa-265" value="+ attach(Observer): void" style="text;strokeColor=none;fillColor=none;align=left;verticalAlign=top;spacingLeft=4;spacingRight=4;overflow=hidden;rotatable=0;points=[[0,0.5],[1,0.5]];portConstraint=eastwest;whiteSpace=wrap;html=1;" parent="X0b0RHwHDyXbMrfLogEa-255" vertex="1">
          <mxGeometry y="294" width="330" height="26" as="geometry" />
        </mxCell>
        <mxCell id="X0b0RHwHDyXbMrfLogEa-266" value="+ detach(Observer): void" style="text;strokeColor=none;fillColor=none;align=left;verticalAlign=top;spacingLeft=4;spacingRight=4;overflow=hidden;rotatable=0;points=[[0,0.5],[1,0.5]];portConstraint=eastwest;whiteSpace=wrap;html=1;" parent="X0b0RHwHDyXbMrfLogEa-255" vertex="1">
          <mxGeometry y="320" width="330" height="26" as="geometry" />
        </mxCell>
        <mxCell id="X0b0RHwHDyXbMrfLogEa-267" value="+ notify(): void" style="text;strokeColor=none;fillColor=none;align=left;verticalAlign=top;spacingLeft=4;spacingRight=4;overflow=hidden;rotatable=0;points=[[0,0.5],[1,0.5]];portConstraint=eastwest;whiteSpace=wrap;html=1;" parent="X0b0RHwHDyXbMrfLogEa-255" vertex="1">
          <mxGeometry y="346" width="330" height="26" as="geometry" />
        </mxCell>
        <mxCell id="X0b0RHwHDyXbMrfLogEa-284" value="" style="endArrow=block;dashed=1;endFill=0;endSize=12;html=1;rounded=0;entryX=0;entryY=0.75;entryDx=0;entryDy=0;" parent="WIyWlLk6GJQsqaUBKTNV-1" target="X0b0RHwHDyXbMrfLogEa-126" edge="1">
          <mxGeometry width="160" relative="1" as="geometry">
            <mxPoint x="6140" y="430" as="sourcePoint" />
            <mxPoint x="6300" y="430" as="targetPoint" />
          </mxGeometry>
        </mxCell>
        <mxCell id="X0b0RHwHDyXbMrfLogEa-285" value="" style="endArrow=block;dashed=1;endFill=0;endSize=12;html=1;rounded=0;entryX=-0.01;entryY=0.93;entryDx=0;entryDy=0;exitX=1;exitY=0;exitDx=0;exitDy=0;entryPerimeter=0;" parent="WIyWlLk6GJQsqaUBKTNV-1" source="X0b0RHwHDyXbMrfLogEa-244" target="X0b0RHwHDyXbMrfLogEa-126" edge="1">
          <mxGeometry width="160" relative="1" as="geometry">
            <mxPoint x="6170" y="465" as="sourcePoint" />
            <mxPoint x="6610" y="460" as="targetPoint" />
          </mxGeometry>
        </mxCell>
        <mxCell id="X0b0RHwHDyXbMrfLogEa-286" value="" style="endArrow=block;dashed=1;endFill=0;endSize=12;html=1;rounded=0;exitX=1;exitY=0;exitDx=0;exitDy=0;entryX=0.378;entryY=1.011;entryDx=0;entryDy=0;entryPerimeter=0;" parent="WIyWlLk6GJQsqaUBKTNV-1" source="X0b0RHwHDyXbMrfLogEa-255" target="X0b0RHwHDyXbMrfLogEa-126" edge="1">
          <mxGeometry width="160" relative="1" as="geometry">
            <mxPoint x="6200" y="780" as="sourcePoint" />
            <mxPoint x="6360" y="780" as="targetPoint" />
          </mxGeometry>
        </mxCell>
        <mxCell id="X0b0RHwHDyXbMrfLogEa-290" value="" style="endArrow=none;html=1;edgeStyle=orthogonalEdgeStyle;rounded=0;exitX=0.845;exitY=1.012;exitDx=0;exitDy=0;exitPerimeter=0;entryX=0;entryY=0.5;entryDx=0;entryDy=0;" parent="WIyWlLk6GJQsqaUBKTNV-1" source="X0b0RHwHDyXbMrfLogEa-252" target="X0b0RHwHDyXbMrfLogEa-93" edge="1">
          <mxGeometry relative="1" as="geometry">
            <mxPoint x="6529.94" y="781" as="sourcePoint" />
            <mxPoint x="6750" y="780" as="targetPoint" />
            <Array as="points">
              <mxPoint x="6119" y="850" />
              <mxPoint x="6810" y="850" />
            </Array>
          </mxGeometry>
        </mxCell>
        <mxCell id="X0b0RHwHDyXbMrfLogEa-291" value="1" style="edgeLabel;resizable=0;html=1;align=left;verticalAlign=bottom;" parent="X0b0RHwHDyXbMrfLogEa-290" connectable="0" vertex="1">
          <mxGeometry x="-1" relative="1" as="geometry">
            <mxPoint x="-10" y="24" as="offset" />
          </mxGeometry>
        </mxCell>
        <mxCell id="X0b0RHwHDyXbMrfLogEa-292" value="1..*" style="edgeLabel;resizable=0;html=1;align=right;verticalAlign=bottom;" parent="X0b0RHwHDyXbMrfLogEa-290" connectable="0" vertex="1">
          <mxGeometry x="1" relative="1" as="geometry">
            <mxPoint x="-10" y="3" as="offset" />
          </mxGeometry>
        </mxCell>
        <mxCell id="X0b0RHwHDyXbMrfLogEa-293" value="" style="endArrow=none;html=1;edgeStyle=orthogonalEdgeStyle;rounded=0;exitX=0.931;exitY=0.993;exitDx=0;exitDy=0;exitPerimeter=0;entryX=0;entryY=0;entryDx=0;entryDy=0;" parent="WIyWlLk6GJQsqaUBKTNV-1" source="X0b0RHwHDyXbMrfLogEa-252" target="X0b0RHwHDyXbMrfLogEa-62" edge="1">
          <mxGeometry relative="1" as="geometry">
            <mxPoint x="6150" y="770" as="sourcePoint" />
            <mxPoint x="7250" y="700" as="targetPoint" />
            <Array as="points">
              <mxPoint x="6147" y="870" />
              <mxPoint x="6761" y="870" />
              <mxPoint x="6761" y="1560" />
              <mxPoint x="7150" y="1560" />
              <mxPoint x="7150" y="780" />
            </Array>
          </mxGeometry>
        </mxCell>
        <mxCell id="X0b0RHwHDyXbMrfLogEa-294" value="1" style="edgeLabel;resizable=0;html=1;align=left;verticalAlign=bottom;" parent="X0b0RHwHDyXbMrfLogEa-293" connectable="0" vertex="1">
          <mxGeometry x="-1" relative="1" as="geometry">
            <mxPoint x="-10" y="26" as="offset" />
          </mxGeometry>
        </mxCell>
        <mxCell id="X0b0RHwHDyXbMrfLogEa-295" value="1..*" style="edgeLabel;resizable=0;html=1;align=right;verticalAlign=bottom;" parent="X0b0RHwHDyXbMrfLogEa-293" connectable="0" vertex="1">
          <mxGeometry x="1" relative="1" as="geometry">
            <mxPoint x="-10" as="offset" />
          </mxGeometry>
        </mxCell>
        <mxCell id="X0b0RHwHDyXbMrfLogEa-296" value="" style="endArrow=none;html=1;edgeStyle=orthogonalEdgeStyle;rounded=0;exitX=0.844;exitY=1.015;exitDx=0;exitDy=0;exitPerimeter=0;entryX=0.233;entryY=1.007;entryDx=0;entryDy=0;entryPerimeter=0;" parent="WIyWlLk6GJQsqaUBKTNV-1" source="X0b0RHwHDyXbMrfLogEa-267" target="X0b0RHwHDyXbMrfLogEa-151" edge="1">
          <mxGeometry relative="1" as="geometry">
            <mxPoint x="6160" y="1300" as="sourcePoint" />
            <mxPoint x="7280" y="1210" as="targetPoint" />
            <Array as="points">
              <mxPoint x="5719" y="1600" />
              <mxPoint x="7280" y="1600" />
            </Array>
          </mxGeometry>
        </mxCell>
        <mxCell id="X0b0RHwHDyXbMrfLogEa-297" value="1..*" style="edgeLabel;resizable=0;html=1;align=left;verticalAlign=bottom;" parent="X0b0RHwHDyXbMrfLogEa-296" connectable="0" vertex="1">
          <mxGeometry x="-1" relative="1" as="geometry">
            <mxPoint y="20" as="offset" />
          </mxGeometry>
        </mxCell>
        <mxCell id="X0b0RHwHDyXbMrfLogEa-298" value="1..*" style="edgeLabel;resizable=0;html=1;align=right;verticalAlign=bottom;" parent="X0b0RHwHDyXbMrfLogEa-296" connectable="0" vertex="1">
          <mxGeometry x="1" relative="1" as="geometry">
            <mxPoint x="-10" y="18" as="offset" />
          </mxGeometry>
        </mxCell>
        <mxCell id="X0b0RHwHDyXbMrfLogEa-299" value="" style="endArrow=none;html=1;edgeStyle=orthogonalEdgeStyle;rounded=0;exitX=0.692;exitY=0.996;exitDx=0;exitDy=0;exitPerimeter=0;entryX=0.399;entryY=1.026;entryDx=0;entryDy=0;entryPerimeter=0;" parent="WIyWlLk6GJQsqaUBKTNV-1" source="X0b0RHwHDyXbMrfLogEa-267" target="X0b0RHwHDyXbMrfLogEa-152" edge="1">
          <mxGeometry relative="1" as="geometry">
            <mxPoint x="6069" y="1169" as="sourcePoint" />
            <mxPoint x="7710" y="1100" as="targetPoint" />
            <Array as="points">
              <mxPoint x="5668" y="1670" />
              <mxPoint x="7710" y="1670" />
              <mxPoint x="7710" y="1100" />
            </Array>
          </mxGeometry>
        </mxCell>
        <mxCell id="X0b0RHwHDyXbMrfLogEa-300" value="1..*" style="edgeLabel;resizable=0;html=1;align=left;verticalAlign=bottom;" parent="X0b0RHwHDyXbMrfLogEa-299" connectable="0" vertex="1">
          <mxGeometry x="-1" relative="1" as="geometry">
            <mxPoint x="1" y="21" as="offset" />
          </mxGeometry>
        </mxCell>
        <mxCell id="X0b0RHwHDyXbMrfLogEa-301" value="1..*" style="edgeLabel;resizable=0;html=1;align=right;verticalAlign=bottom;" parent="X0b0RHwHDyXbMrfLogEa-299" connectable="0" vertex="1">
          <mxGeometry x="1" relative="1" as="geometry">
            <mxPoint x="-10" y="28" as="offset" />
          </mxGeometry>
        </mxCell>
        <mxCell id="X0b0RHwHDyXbMrfLogEa-303" value="AccountApplications" style="swimlane;fontStyle=3;align=center;verticalAlign=top;childLayout=stackLayout;horizontal=1;startSize=26;horizontalStack=0;resizeParent=1;resizeLast=0;collapsible=1;marginBottom=0;rounded=0;shadow=0;strokeWidth=1;" parent="WIyWlLk6GJQsqaUBKTNV-1" vertex="1">
          <mxGeometry x="5510" y="100" width="280" height="320" as="geometry">
            <mxRectangle x="230" y="140" width="160" height="26" as="alternateBounds" />
          </mxGeometry>
        </mxCell>
        <mxCell id="X0b0RHwHDyXbMrfLogEa-304" value="- ApplicationDate: ArrayList&lt;Date&gt;" style="text;align=left;verticalAlign=top;spacingLeft=4;spacingRight=4;overflow=hidden;rotatable=0;points=[[0,0.5],[1,0.5]];portConstraint=eastwest;" parent="X0b0RHwHDyXbMrfLogEa-303" vertex="1">
          <mxGeometry y="26" width="280" height="26" as="geometry" />
        </mxCell>
        <mxCell id="X0b0RHwHDyXbMrfLogEa-305" value="- ApplicationNums: ArrayList&lt;Int&gt;" style="text;align=left;verticalAlign=top;spacingLeft=4;spacingRight=4;overflow=hidden;rotatable=0;points=[[0,0.5],[1,0.5]];portConstraint=eastwest;" parent="X0b0RHwHDyXbMrfLogEa-303" vertex="1">
          <mxGeometry y="52" width="280" height="26" as="geometry" />
        </mxCell>
        <mxCell id="X0b0RHwHDyXbMrfLogEa-306" value="- type:String" style="text;align=left;verticalAlign=top;spacingLeft=4;spacingRight=4;overflow=hidden;rotatable=0;points=[[0,0.5],[1,0.5]];portConstraint=eastwest;rounded=0;shadow=0;html=0;" parent="X0b0RHwHDyXbMrfLogEa-303" vertex="1">
          <mxGeometry y="78" width="280" height="26" as="geometry" />
        </mxCell>
        <mxCell id="X0b0RHwHDyXbMrfLogEa-308" value="- status: ArrayList&lt;Boolean&gt;" style="text;align=left;verticalAlign=top;spacingLeft=4;spacingRight=4;overflow=hidden;rotatable=0;points=[[0,0.5],[1,0.5]];portConstraint=eastwest;rounded=0;shadow=0;html=0;" parent="X0b0RHwHDyXbMrfLogEa-303" vertex="1">
          <mxGeometry y="104" width="280" height="26" as="geometry" />
        </mxCell>
        <mxCell id="X0b0RHwHDyXbMrfLogEa-310" value="- Subcribers: ArrayList&lt;Observer&gt;" style="text;align=left;verticalAlign=top;spacingLeft=4;spacingRight=4;overflow=hidden;rotatable=0;points=[[0,0.5],[1,0.5]];portConstraint=eastwest;rounded=0;shadow=0;html=0;" parent="X0b0RHwHDyXbMrfLogEa-303" vertex="1">
          <mxGeometry y="130" width="280" height="26" as="geometry" />
        </mxCell>
        <mxCell id="X0b0RHwHDyXbMrfLogEa-312" value="" style="line;html=1;strokeWidth=1;align=left;verticalAlign=middle;spacingTop=-1;spacingLeft=3;spacingRight=3;rotatable=0;labelPosition=right;points=[];portConstraint=eastwest;" parent="X0b0RHwHDyXbMrfLogEa-303" vertex="1">
          <mxGeometry y="156" width="280" height="8" as="geometry" />
        </mxCell>
        <mxCell id="X0b0RHwHDyXbMrfLogEa-313" value="+ applyForAccount() : void&#xa;" style="text;align=left;verticalAlign=top;spacingLeft=4;spacingRight=4;overflow=hidden;rotatable=0;points=[[0,0.5],[1,0.5]];portConstraint=eastwest;" parent="X0b0RHwHDyXbMrfLogEa-303" vertex="1">
          <mxGeometry y="164" width="280" height="26" as="geometry" />
        </mxCell>
        <mxCell id="X0b0RHwHDyXbMrfLogEa-314" value="+ viewAccountApplications() : ArrayList&lt;String&gt;&#xa;" style="text;align=left;verticalAlign=top;spacingLeft=4;spacingRight=4;overflow=hidden;rotatable=0;points=[[0,0.5],[1,0.5]];portConstraint=eastwest;" parent="X0b0RHwHDyXbMrfLogEa-303" vertex="1">
          <mxGeometry y="190" width="280" height="26" as="geometry" />
        </mxCell>
        <mxCell id="X0b0RHwHDyXbMrfLogEa-315" value="+ cancelApplication(appNum: int): void" style="text;align=left;verticalAlign=top;spacingLeft=4;spacingRight=4;overflow=hidden;rotatable=0;points=[[0,0.5],[1,0.5]];portConstraint=eastwest;" parent="X0b0RHwHDyXbMrfLogEa-303" vertex="1">
          <mxGeometry y="216" width="280" height="22" as="geometry" />
        </mxCell>
        <mxCell id="X0b0RHwHDyXbMrfLogEa-316" value="+ attach(Observer): void" style="text;align=left;verticalAlign=top;spacingLeft=4;spacingRight=4;overflow=hidden;rotatable=0;points=[[0,0.5],[1,0.5]];portConstraint=eastwest;" parent="X0b0RHwHDyXbMrfLogEa-303" vertex="1">
          <mxGeometry y="238" width="280" height="22" as="geometry" />
        </mxCell>
        <mxCell id="X0b0RHwHDyXbMrfLogEa-317" value="+ detach(Observer): void" style="text;align=left;verticalAlign=top;spacingLeft=4;spacingRight=4;overflow=hidden;rotatable=0;points=[[0,0.5],[1,0.5]];portConstraint=eastwest;" parent="X0b0RHwHDyXbMrfLogEa-303" vertex="1">
          <mxGeometry y="260" width="280" height="22" as="geometry" />
        </mxCell>
        <mxCell id="X0b0RHwHDyXbMrfLogEa-318" value="+ notify(): void" style="text;align=left;verticalAlign=top;spacingLeft=4;spacingRight=4;overflow=hidden;rotatable=0;points=[[0,0.5],[1,0.5]];portConstraint=eastwest;" parent="X0b0RHwHDyXbMrfLogEa-303" vertex="1">
          <mxGeometry y="282" width="280" height="22" as="geometry" />
        </mxCell>
        <mxCell id="X0b0RHwHDyXbMrfLogEa-319" value="AccountApproval" style="swimlane;fontStyle=1;align=center;verticalAlign=top;childLayout=stackLayout;horizontal=1;startSize=26;horizontalStack=0;resizeParent=1;resizeParentMax=0;resizeLast=0;collapsible=1;marginBottom=0;whiteSpace=wrap;html=1;" parent="WIyWlLk6GJQsqaUBKTNV-1" vertex="1">
          <mxGeometry x="5470" y="527" width="330" height="218" as="geometry" />
        </mxCell>
        <mxCell id="X0b0RHwHDyXbMrfLogEa-320" value="- accountApplications: ArrayList&amp;lt;AccountApplications&amp;gt;" style="text;strokeColor=none;fillColor=none;align=left;verticalAlign=top;spacingLeft=4;spacingRight=4;overflow=hidden;rotatable=0;points=[[0,0.5],[1,0.5]];portConstraint=eastwest;whiteSpace=wrap;html=1;" parent="X0b0RHwHDyXbMrfLogEa-319" vertex="1">
          <mxGeometry y="26" width="330" height="26" as="geometry" />
        </mxCell>
        <mxCell id="X0b0RHwHDyXbMrfLogEa-321" value="- Subcribers: ArrayList&amp;lt;Observer&amp;gt;" style="text;strokeColor=none;fillColor=none;align=left;verticalAlign=top;spacingLeft=4;spacingRight=4;overflow=hidden;rotatable=0;points=[[0,0.5],[1,0.5]];portConstraint=eastwest;whiteSpace=wrap;html=1;" parent="X0b0RHwHDyXbMrfLogEa-319" vertex="1">
          <mxGeometry y="52" width="330" height="26" as="geometry" />
        </mxCell>
        <mxCell id="X0b0RHwHDyXbMrfLogEa-322" value="" style="line;strokeWidth=1;fillColor=none;align=left;verticalAlign=middle;spacingTop=-1;spacingLeft=3;spacingRight=3;rotatable=0;labelPosition=right;points=[];portConstraint=eastwest;strokeColor=inherit;" parent="X0b0RHwHDyXbMrfLogEa-319" vertex="1">
          <mxGeometry y="78" width="330" height="8" as="geometry" />
        </mxCell>
        <mxCell id="X0b0RHwHDyXbMrfLogEa-323" value="+ approveAccount(AppNum:String): void" style="text;strokeColor=none;fillColor=none;align=left;verticalAlign=top;spacingLeft=4;spacingRight=4;overflow=hidden;rotatable=0;points=[[0,0.5],[1,0.5]];portConstraint=eastwest;whiteSpace=wrap;html=1;" parent="X0b0RHwHDyXbMrfLogEa-319" vertex="1">
          <mxGeometry y="86" width="330" height="26" as="geometry" />
        </mxCell>
        <mxCell id="X0b0RHwHDyXbMrfLogEa-324" value="+ rejectAccount(AppNum:String): void" style="text;strokeColor=none;fillColor=none;align=left;verticalAlign=top;spacingLeft=4;spacingRight=4;overflow=hidden;rotatable=0;points=[[0,0.5],[1,0.5]];portConstraint=eastwest;whiteSpace=wrap;html=1;" parent="X0b0RHwHDyXbMrfLogEa-319" vertex="1">
          <mxGeometry y="112" width="330" height="26" as="geometry" />
        </mxCell>
        <mxCell id="X0b0RHwHDyXbMrfLogEa-325" value="+ attach(Observer): void" style="text;strokeColor=none;fillColor=none;align=left;verticalAlign=top;spacingLeft=4;spacingRight=4;overflow=hidden;rotatable=0;points=[[0,0.5],[1,0.5]];portConstraint=eastwest;whiteSpace=wrap;html=1;" parent="X0b0RHwHDyXbMrfLogEa-319" vertex="1">
          <mxGeometry y="138" width="330" height="26" as="geometry" />
        </mxCell>
        <mxCell id="X0b0RHwHDyXbMrfLogEa-326" value="+ detach(Observer): void" style="text;strokeColor=none;fillColor=none;align=left;verticalAlign=top;spacingLeft=4;spacingRight=4;overflow=hidden;rotatable=0;points=[[0,0.5],[1,0.5]];portConstraint=eastwest;whiteSpace=wrap;html=1;" parent="X0b0RHwHDyXbMrfLogEa-319" vertex="1">
          <mxGeometry y="164" width="330" height="26" as="geometry" />
        </mxCell>
        <mxCell id="X0b0RHwHDyXbMrfLogEa-327" value="+ notify(): void" style="text;strokeColor=none;fillColor=none;align=left;verticalAlign=top;spacingLeft=4;spacingRight=4;overflow=hidden;rotatable=0;points=[[0,0.5],[1,0.5]];portConstraint=eastwest;whiteSpace=wrap;html=1;" parent="X0b0RHwHDyXbMrfLogEa-319" vertex="1">
          <mxGeometry y="190" width="330" height="28" as="geometry" />
        </mxCell>
        <mxCell id="X0b0RHwHDyXbMrfLogEa-328" value="AccountManager" style="swimlane;fontStyle=1;align=center;verticalAlign=top;childLayout=stackLayout;horizontal=1;startSize=26;horizontalStack=0;resizeParent=1;resizeParentMax=0;resizeLast=0;collapsible=1;marginBottom=0;whiteSpace=wrap;html=1;" parent="WIyWlLk6GJQsqaUBKTNV-1" vertex="1">
          <mxGeometry x="5830" y="900" width="330" height="450" as="geometry" />
        </mxCell>
        <mxCell id="X0b0RHwHDyXbMrfLogEa-329" value="- AccountNums: ArrayList&amp;lt;String&amp;gt;" style="text;strokeColor=none;fillColor=none;align=left;verticalAlign=top;spacingLeft=4;spacingRight=4;overflow=hidden;rotatable=0;points=[[0,0.5],[1,0.5]];portConstraint=eastwest;whiteSpace=wrap;html=1;" parent="X0b0RHwHDyXbMrfLogEa-328" vertex="1">
          <mxGeometry y="26" width="330" height="26" as="geometry" />
        </mxCell>
        <mxCell id="X0b0RHwHDyXbMrfLogEa-330" value="- AccountBalances: ArrayList&amp;lt;Double&amp;gt;" style="text;strokeColor=none;fillColor=none;align=left;verticalAlign=top;spacingLeft=4;spacingRight=4;overflow=hidden;rotatable=0;points=[[0,0.5],[1,0.5]];portConstraint=eastwest;whiteSpace=wrap;html=1;" parent="X0b0RHwHDyXbMrfLogEa-328" vertex="1">
          <mxGeometry y="52" width="330" height="26" as="geometry" />
        </mxCell>
        <mxCell id="cMXHbLQRaVfCkkEPk3rR-46" value="- transactionHistory: ArrayList&amp;lt;Transactions&amp;gt;" style="text;strokeColor=none;fillColor=none;align=left;verticalAlign=top;spacingLeft=4;spacingRight=4;overflow=hidden;rotatable=0;points=[[0,0.5],[1,0.5]];portConstraint=eastwest;whiteSpace=wrap;html=1;" parent="X0b0RHwHDyXbMrfLogEa-328" vertex="1">
          <mxGeometry y="78" width="330" height="26" as="geometry" />
        </mxCell>
        <mxCell id="cMXHbLQRaVfCkkEPk3rR-96" value="- utilityBillGenerator: UtilityBill" style="text;strokeColor=none;fillColor=none;align=left;verticalAlign=top;spacingLeft=4;spacingRight=4;overflow=hidden;rotatable=0;points=[[0,0.5],[1,0.5]];portConstraint=eastwest;whiteSpace=wrap;html=1;" parent="X0b0RHwHDyXbMrfLogEa-328" vertex="1">
          <mxGeometry y="104" width="330" height="26" as="geometry" />
        </mxCell>
        <mxCell id="cMXHbLQRaVfCkkEPk3rR-97" value="- creditBillGenerator: CreditBill" style="text;strokeColor=none;fillColor=none;align=left;verticalAlign=top;spacingLeft=4;spacingRight=4;overflow=hidden;rotatable=0;points=[[0,0.5],[1,0.5]];portConstraint=eastwest;whiteSpace=wrap;html=1;" parent="X0b0RHwHDyXbMrfLogEa-328" vertex="1">
          <mxGeometry y="130" width="330" height="26" as="geometry" />
        </mxCell>
        <mxCell id="cMXHbLQRaVfCkkEPk3rR-113" value="- bankTransferPerformer: BankTransfer" style="text;strokeColor=none;fillColor=none;align=left;verticalAlign=top;spacingLeft=4;spacingRight=4;overflow=hidden;rotatable=0;points=[[0,0.5],[1,0.5]];portConstraint=eastwest;whiteSpace=wrap;html=1;" parent="X0b0RHwHDyXbMrfLogEa-328" vertex="1">
          <mxGeometry y="156" width="330" height="26" as="geometry" />
        </mxCell>
        <mxCell id="X0b0RHwHDyXbMrfLogEa-333" value="- Subcriber: ArrayList&amp;lt;Observer&amp;gt;" style="text;strokeColor=none;fillColor=none;align=left;verticalAlign=top;spacingLeft=4;spacingRight=4;overflow=hidden;rotatable=0;points=[[0,0.5],[1,0.5]];portConstraint=eastwest;whiteSpace=wrap;html=1;" parent="X0b0RHwHDyXbMrfLogEa-328" vertex="1">
          <mxGeometry y="182" width="330" height="26" as="geometry" />
        </mxCell>
        <mxCell id="X0b0RHwHDyXbMrfLogEa-334" value="" style="line;strokeWidth=1;fillColor=none;align=left;verticalAlign=middle;spacingTop=-1;spacingLeft=3;spacingRight=3;rotatable=0;labelPosition=right;points=[];portConstraint=eastwest;strokeColor=inherit;" parent="X0b0RHwHDyXbMrfLogEa-328" vertex="1">
          <mxGeometry y="208" width="330" height="8" as="geometry" />
        </mxCell>
        <mxCell id="X0b0RHwHDyXbMrfLogEa-335" value="+ viewAccountBalance(accountNum: String): Double" style="text;strokeColor=none;fillColor=none;align=left;verticalAlign=top;spacingLeft=4;spacingRight=4;overflow=hidden;rotatable=0;points=[[0,0.5],[1,0.5]];portConstraint=eastwest;whiteSpace=wrap;html=1;" parent="X0b0RHwHDyXbMrfLogEa-328" vertex="1">
          <mxGeometry y="216" width="330" height="26" as="geometry" />
        </mxCell>
        <mxCell id="X0b0RHwHDyXbMrfLogEa-336" value="+ viewTotalBalance(): Double" style="text;strokeColor=none;fillColor=none;align=left;verticalAlign=top;spacingLeft=4;spacingRight=4;overflow=hidden;rotatable=0;points=[[0,0.5],[1,0.5]];portConstraint=eastwest;whiteSpace=wrap;html=1;" parent="X0b0RHwHDyXbMrfLogEa-328" vertex="1">
          <mxGeometry y="242" width="330" height="26" as="geometry" />
        </mxCell>
        <mxCell id="cMXHbLQRaVfCkkEPk3rR-48" value="+ viewTransaction(transID:String): Transaction" style="text;strokeColor=none;fillColor=none;align=left;verticalAlign=top;spacingLeft=4;spacingRight=4;overflow=hidden;rotatable=0;points=[[0,0.5],[1,0.5]];portConstraint=eastwest;whiteSpace=wrap;html=1;" parent="X0b0RHwHDyXbMrfLogEa-328" vertex="1">
          <mxGeometry y="268" width="330" height="26" as="geometry" />
        </mxCell>
        <mxCell id="cMXHbLQRaVfCkkEPk3rR-47" value="+ viewTransactions(): ArrayList&amp;lt;Transaction&amp;gt;" style="text;strokeColor=none;fillColor=none;align=left;verticalAlign=top;spacingLeft=4;spacingRight=4;overflow=hidden;rotatable=0;points=[[0,0.5],[1,0.5]];portConstraint=eastwest;whiteSpace=wrap;html=1;" parent="X0b0RHwHDyXbMrfLogEa-328" vertex="1">
          <mxGeometry y="294" width="330" height="26" as="geometry" />
        </mxCell>
        <mxCell id="X0b0RHwHDyXbMrfLogEa-341" value="+ detach(Observer): void" style="text;strokeColor=none;fillColor=none;align=left;verticalAlign=top;spacingLeft=4;spacingRight=4;overflow=hidden;rotatable=0;points=[[0,0.5],[1,0.5]];portConstraint=eastwest;whiteSpace=wrap;html=1;" parent="X0b0RHwHDyXbMrfLogEa-328" vertex="1">
          <mxGeometry y="320" width="330" height="26" as="geometry" />
        </mxCell>
        <mxCell id="X0b0RHwHDyXbMrfLogEa-340" value="+ attach(Observer): void" style="text;strokeColor=none;fillColor=none;align=left;verticalAlign=top;spacingLeft=4;spacingRight=4;overflow=hidden;rotatable=0;points=[[0,0.5],[1,0.5]];portConstraint=eastwest;whiteSpace=wrap;html=1;" parent="X0b0RHwHDyXbMrfLogEa-328" vertex="1">
          <mxGeometry y="346" width="330" height="26" as="geometry" />
        </mxCell>
        <mxCell id="X0b0RHwHDyXbMrfLogEa-342" value="+ notify(): void" style="text;strokeColor=none;fillColor=none;align=left;verticalAlign=top;spacingLeft=4;spacingRight=4;overflow=hidden;rotatable=0;points=[[0,0.5],[1,0.5]];portConstraint=eastwest;whiteSpace=wrap;html=1;" parent="X0b0RHwHDyXbMrfLogEa-328" vertex="1">
          <mxGeometry y="372" width="330" height="26" as="geometry" />
        </mxCell>
        <mxCell id="cMXHbLQRaVfCkkEPk3rR-42" value="+ updateBalance(netAmount:Double ): void" style="text;strokeColor=none;fillColor=none;align=left;verticalAlign=top;spacingLeft=4;spacingRight=4;overflow=hidden;rotatable=0;points=[[0,0.5],[1,0.5]];portConstraint=eastwest;whiteSpace=wrap;html=1;" parent="X0b0RHwHDyXbMrfLogEa-328" vertex="1">
          <mxGeometry y="398" width="330" height="26" as="geometry" />
        </mxCell>
        <mxCell id="cMXHbLQRaVfCkkEPk3rR-49" value="+ update(): void" style="text;strokeColor=none;fillColor=none;align=left;verticalAlign=top;spacingLeft=4;spacingRight=4;overflow=hidden;rotatable=0;points=[[0,0.5],[1,0.5]];portConstraint=eastwest;whiteSpace=wrap;html=1;" parent="X0b0RHwHDyXbMrfLogEa-328" vertex="1">
          <mxGeometry y="424" width="330" height="26" as="geometry" />
        </mxCell>
        <mxCell id="X0b0RHwHDyXbMrfLogEa-347" value="" style="endArrow=none;html=1;edgeStyle=orthogonalEdgeStyle;rounded=0;exitX=0.928;exitY=1.014;exitDx=0;exitDy=0;exitPerimeter=0;entryX=0.25;entryY=0;entryDx=0;entryDy=0;" parent="WIyWlLk6GJQsqaUBKTNV-1" target="X0b0RHwHDyXbMrfLogEa-58" edge="1">
          <mxGeometry relative="1" as="geometry">
            <mxPoint x="5750" y="420" as="sourcePoint" />
            <mxPoint x="6860" y="680" as="targetPoint" />
            <Array as="points">
              <mxPoint x="5750" y="490" />
              <mxPoint x="6885" y="490" />
            </Array>
          </mxGeometry>
        </mxCell>
        <mxCell id="X0b0RHwHDyXbMrfLogEa-348" value="0..*" style="edgeLabel;resizable=0;html=1;align=left;verticalAlign=bottom;" parent="X0b0RHwHDyXbMrfLogEa-347" connectable="0" vertex="1">
          <mxGeometry x="-1" relative="1" as="geometry">
            <mxPoint x="8" y="17" as="offset" />
          </mxGeometry>
        </mxCell>
        <mxCell id="X0b0RHwHDyXbMrfLogEa-349" value="1" style="edgeLabel;resizable=0;html=1;align=right;verticalAlign=bottom;" parent="X0b0RHwHDyXbMrfLogEa-347" connectable="0" vertex="1">
          <mxGeometry x="1" relative="1" as="geometry">
            <mxPoint x="10" as="offset" />
          </mxGeometry>
        </mxCell>
        <mxCell id="X0b0RHwHDyXbMrfLogEa-350" value="" style="endArrow=none;html=1;edgeStyle=orthogonalEdgeStyle;rounded=0;entryX=0.75;entryY=0;entryDx=0;entryDy=0;exitX=1;exitY=0.5;exitDx=0;exitDy=0;" parent="WIyWlLk6GJQsqaUBKTNV-1" source="X0b0RHwHDyXbMrfLogEa-327" target="X0b0RHwHDyXbMrfLogEa-62" edge="1">
          <mxGeometry relative="1" as="geometry">
            <mxPoint x="5740" y="770" as="sourcePoint" />
            <mxPoint x="7210" y="680" as="targetPoint" />
            <Array as="points">
              <mxPoint x="5820" y="731" />
              <mxPoint x="5820" y="800" />
              <mxPoint x="6720" y="800" />
              <mxPoint x="6720" y="690" />
              <mxPoint x="7435" y="690" />
            </Array>
          </mxGeometry>
        </mxCell>
        <mxCell id="X0b0RHwHDyXbMrfLogEa-351" value="1" style="edgeLabel;resizable=0;html=1;align=left;verticalAlign=bottom;" parent="X0b0RHwHDyXbMrfLogEa-350" connectable="0" vertex="1">
          <mxGeometry x="-1" relative="1" as="geometry">
            <mxPoint y="25" as="offset" />
          </mxGeometry>
        </mxCell>
        <mxCell id="X0b0RHwHDyXbMrfLogEa-352" value="1..*" style="edgeLabel;resizable=0;html=1;align=right;verticalAlign=bottom;" parent="X0b0RHwHDyXbMrfLogEa-350" connectable="0" vertex="1">
          <mxGeometry x="1" relative="1" as="geometry">
            <mxPoint x="20" as="offset" />
          </mxGeometry>
        </mxCell>
        <mxCell id="X0b0RHwHDyXbMrfLogEa-353" value="" style="endArrow=none;html=1;edgeStyle=orthogonalEdgeStyle;rounded=0;exitX=0.727;exitY=1.017;exitDx=0;exitDy=0;exitPerimeter=0;entryX=0.132;entryY=0.993;entryDx=0;entryDy=0;entryPerimeter=0;" parent="WIyWlLk6GJQsqaUBKTNV-1" source="cMXHbLQRaVfCkkEPk3rR-49" target="X0b0RHwHDyXbMrfLogEa-151" edge="1">
          <mxGeometry relative="1" as="geometry">
            <mxPoint x="5710" y="1160" as="sourcePoint" />
            <mxPoint x="7250" y="1190" as="targetPoint" />
            <Array as="points">
              <mxPoint x="6070" y="1590" />
              <mxPoint x="7250" y="1590" />
            </Array>
          </mxGeometry>
        </mxCell>
        <mxCell id="X0b0RHwHDyXbMrfLogEa-354" value="1..*" style="edgeLabel;resizable=0;html=1;align=left;verticalAlign=bottom;" parent="X0b0RHwHDyXbMrfLogEa-353" connectable="0" vertex="1">
          <mxGeometry x="-1" relative="1" as="geometry">
            <mxPoint y="20" as="offset" />
          </mxGeometry>
        </mxCell>
        <mxCell id="X0b0RHwHDyXbMrfLogEa-355" value="1..*" style="edgeLabel;resizable=0;html=1;align=right;verticalAlign=bottom;" parent="X0b0RHwHDyXbMrfLogEa-353" connectable="0" vertex="1">
          <mxGeometry x="1" relative="1" as="geometry">
            <mxPoint x="-10" y="19" as="offset" />
          </mxGeometry>
        </mxCell>
        <mxCell id="X0b0RHwHDyXbMrfLogEa-356" value="" style="endArrow=none;html=1;edgeStyle=orthogonalEdgeStyle;rounded=0;exitX=0.639;exitY=1.014;exitDx=0;exitDy=0;exitPerimeter=0;entryX=0.268;entryY=1.005;entryDx=0;entryDy=0;entryPerimeter=0;" parent="WIyWlLk6GJQsqaUBKTNV-1" source="cMXHbLQRaVfCkkEPk3rR-49" target="X0b0RHwHDyXbMrfLogEa-152" edge="1">
          <mxGeometry relative="1" as="geometry">
            <mxPoint x="5681" y="1130" as="sourcePoint" />
            <mxPoint x="7670" y="1120" as="targetPoint" />
            <Array as="points">
              <mxPoint x="6041" y="1660" />
              <mxPoint x="7670" y="1660" />
              <mxPoint x="7670" y="1120" />
              <mxPoint x="7670" y="1120" />
            </Array>
          </mxGeometry>
        </mxCell>
        <mxCell id="X0b0RHwHDyXbMrfLogEa-357" value="1..*" style="edgeLabel;resizable=0;html=1;align=left;verticalAlign=bottom;" parent="X0b0RHwHDyXbMrfLogEa-356" connectable="0" vertex="1">
          <mxGeometry x="-1" relative="1" as="geometry">
            <mxPoint x="1" y="17" as="offset" />
          </mxGeometry>
        </mxCell>
        <mxCell id="X0b0RHwHDyXbMrfLogEa-358" value="1..*" style="edgeLabel;resizable=0;html=1;align=right;verticalAlign=bottom;" parent="X0b0RHwHDyXbMrfLogEa-356" connectable="0" vertex="1">
          <mxGeometry x="1" relative="1" as="geometry">
            <mxPoint x="-11" y="28" as="offset" />
          </mxGeometry>
        </mxCell>
        <mxCell id="cMXHbLQRaVfCkkEPk3rR-1" value="CreditCardTransaction" style="swimlane;fontStyle=3;align=center;verticalAlign=top;childLayout=stackLayout;horizontal=1;startSize=26;horizontalStack=0;resizeParent=1;resizeLast=0;collapsible=1;marginBottom=0;rounded=0;shadow=0;strokeWidth=1;" parent="WIyWlLk6GJQsqaUBKTNV-1" vertex="1">
          <mxGeometry x="5090" y="59" width="280" height="382" as="geometry">
            <mxRectangle x="230" y="140" width="160" height="26" as="alternateBounds" />
          </mxGeometry>
        </mxCell>
        <mxCell id="cMXHbLQRaVfCkkEPk3rR-2" value="- OTPauthenticator: Authenticator" style="text;align=left;verticalAlign=top;spacingLeft=4;spacingRight=4;overflow=hidden;rotatable=0;points=[[0,0.5],[1,0.5]];portConstraint=eastwest;" parent="cMXHbLQRaVfCkkEPk3rR-1" vertex="1">
          <mxGeometry y="26" width="280" height="26" as="geometry" />
        </mxCell>
        <mxCell id="cMXHbLQRaVfCkkEPk3rR-3" value="- cardNumber: String" style="text;align=left;verticalAlign=top;spacingLeft=4;spacingRight=4;overflow=hidden;rotatable=0;points=[[0,0.5],[1,0.5]];portConstraint=eastwest;" parent="cMXHbLQRaVfCkkEPk3rR-1" vertex="1">
          <mxGeometry y="52" width="280" height="26" as="geometry" />
        </mxCell>
        <mxCell id="cMXHbLQRaVfCkkEPk3rR-4" value="- amount: Double" style="text;align=left;verticalAlign=top;spacingLeft=4;spacingRight=4;overflow=hidden;rotatable=0;points=[[0,0.5],[1,0.5]];portConstraint=eastwest;rounded=0;shadow=0;html=0;" parent="cMXHbLQRaVfCkkEPk3rR-1" vertex="1">
          <mxGeometry y="78" width="280" height="26" as="geometry" />
        </mxCell>
        <mxCell id="cMXHbLQRaVfCkkEPk3rR-5" value="- transactionID: String" style="text;align=left;verticalAlign=top;spacingLeft=4;spacingRight=4;overflow=hidden;rotatable=0;points=[[0,0.5],[1,0.5]];portConstraint=eastwest;rounded=0;shadow=0;html=0;" parent="cMXHbLQRaVfCkkEPk3rR-1" vertex="1">
          <mxGeometry y="104" width="280" height="26" as="geometry" />
        </mxCell>
        <mxCell id="cMXHbLQRaVfCkkEPk3rR-41" value="- cardManager: CreditCardManager" style="text;align=left;verticalAlign=top;spacingLeft=4;spacingRight=4;overflow=hidden;rotatable=0;points=[[0,0.5],[1,0.5]];portConstraint=eastwest;rounded=0;shadow=0;html=0;" parent="cMXHbLQRaVfCkkEPk3rR-1" vertex="1">
          <mxGeometry y="130" width="280" height="26" as="geometry" />
        </mxCell>
        <mxCell id="cMXHbLQRaVfCkkEPk3rR-43" value="- accountManager: AccountManager" style="text;align=left;verticalAlign=top;spacingLeft=4;spacingRight=4;overflow=hidden;rotatable=0;points=[[0,0.5],[1,0.5]];portConstraint=eastwest;rounded=0;shadow=0;html=0;" parent="cMXHbLQRaVfCkkEPk3rR-1" vertex="1">
          <mxGeometry y="156" width="280" height="26" as="geometry" />
        </mxCell>
        <mxCell id="cMXHbLQRaVfCkkEPk3rR-6" value="- Subcribers: ArrayList&lt;Observer&gt;" style="text;align=left;verticalAlign=top;spacingLeft=4;spacingRight=4;overflow=hidden;rotatable=0;points=[[0,0.5],[1,0.5]];portConstraint=eastwest;rounded=0;shadow=0;html=0;" parent="cMXHbLQRaVfCkkEPk3rR-1" vertex="1">
          <mxGeometry y="182" width="280" height="26" as="geometry" />
        </mxCell>
        <mxCell id="cMXHbLQRaVfCkkEPk3rR-7" value="" style="line;html=1;strokeWidth=1;align=left;verticalAlign=middle;spacingTop=-1;spacingLeft=3;spacingRight=3;rotatable=0;labelPosition=right;points=[];portConstraint=eastwest;" parent="cMXHbLQRaVfCkkEPk3rR-1" vertex="1">
          <mxGeometry y="208" width="280" height="8" as="geometry" />
        </mxCell>
        <mxCell id="cMXHbLQRaVfCkkEPk3rR-8" value="+ deposit(amount: Double): boolean &#xa;" style="text;align=left;verticalAlign=top;spacingLeft=4;spacingRight=4;overflow=hidden;rotatable=0;points=[[0,0.5],[1,0.5]];portConstraint=eastwest;" parent="cMXHbLQRaVfCkkEPk3rR-1" vertex="1">
          <mxGeometry y="216" width="280" height="26" as="geometry" />
        </mxCell>
        <mxCell id="cMXHbLQRaVfCkkEPk3rR-9" value="+ withdraw(amount: Double): boolean " style="text;align=left;verticalAlign=top;spacingLeft=4;spacingRight=4;overflow=hidden;rotatable=0;points=[[0,0.5],[1,0.5]];portConstraint=eastwest;" parent="cMXHbLQRaVfCkkEPk3rR-1" vertex="1">
          <mxGeometry y="242" width="280" height="26" as="geometry" />
        </mxCell>
        <mxCell id="cMXHbLQRaVfCkkEPk3rR-117" value="+ addPoints(): void" style="text;align=left;verticalAlign=top;spacingLeft=4;spacingRight=4;overflow=hidden;rotatable=0;points=[[0,0.5],[1,0.5]];portConstraint=eastwest;" parent="cMXHbLQRaVfCkkEPk3rR-1" vertex="1">
          <mxGeometry y="268" width="280" height="22" as="geometry" />
        </mxCell>
        <mxCell id="cMXHbLQRaVfCkkEPk3rR-10" value="+ cancelApplication(appNum: int): void" style="text;align=left;verticalAlign=top;spacingLeft=4;spacingRight=4;overflow=hidden;rotatable=0;points=[[0,0.5],[1,0.5]];portConstraint=eastwest;" parent="cMXHbLQRaVfCkkEPk3rR-1" vertex="1">
          <mxGeometry y="290" width="280" height="22" as="geometry" />
        </mxCell>
        <mxCell id="cMXHbLQRaVfCkkEPk3rR-11" value="+ attach(Observer): void" style="text;align=left;verticalAlign=top;spacingLeft=4;spacingRight=4;overflow=hidden;rotatable=0;points=[[0,0.5],[1,0.5]];portConstraint=eastwest;" parent="cMXHbLQRaVfCkkEPk3rR-1" vertex="1">
          <mxGeometry y="312" width="280" height="22" as="geometry" />
        </mxCell>
        <mxCell id="cMXHbLQRaVfCkkEPk3rR-12" value="+ detach(Observer): void" style="text;align=left;verticalAlign=top;spacingLeft=4;spacingRight=4;overflow=hidden;rotatable=0;points=[[0,0.5],[1,0.5]];portConstraint=eastwest;" parent="cMXHbLQRaVfCkkEPk3rR-1" vertex="1">
          <mxGeometry y="334" width="280" height="22" as="geometry" />
        </mxCell>
        <mxCell id="cMXHbLQRaVfCkkEPk3rR-13" value="+ notify(): void" style="text;align=left;verticalAlign=top;spacingLeft=4;spacingRight=4;overflow=hidden;rotatable=0;points=[[0,0.5],[1,0.5]];portConstraint=eastwest;" parent="cMXHbLQRaVfCkkEPk3rR-1" vertex="1">
          <mxGeometry y="356" width="280" height="22" as="geometry" />
        </mxCell>
        <mxCell id="cMXHbLQRaVfCkkEPk3rR-14" value="&lt;p style=&quot;margin:0px;margin-top:4px;text-align:center;&quot;&gt;&lt;i&gt;&amp;lt;&amp;lt;Interface&amp;gt;&amp;gt;&lt;/i&gt;&lt;br&gt;&lt;b style=&quot;border-color: var(--border-color);&quot;&gt;Authenticator Interface&lt;/b&gt;&lt;/p&gt;&lt;hr size=&quot;1&quot;&gt;&lt;p style=&quot;margin:0px;margin-left:4px;&quot;&gt;&lt;span style=&quot;background-color: initial;&quot;&gt;+ authenticate(String): boolean&lt;/span&gt;&lt;br&gt;&lt;/p&gt;&lt;p style=&quot;margin:0px;margin-left:4px;&quot;&gt;+ generateAuthKey(): String&lt;/p&gt;" style="verticalAlign=top;align=left;overflow=fill;fontSize=12;fontFamily=Helvetica;html=1;whiteSpace=wrap;" parent="WIyWlLk6GJQsqaUBKTNV-1" vertex="1">
          <mxGeometry x="4809.86" y="801" width="230" height="93" as="geometry" />
        </mxCell>
        <mxCell id="cMXHbLQRaVfCkkEPk3rR-16" value="OTPAuthenticator" style="swimlane;fontStyle=1;align=center;verticalAlign=top;childLayout=stackLayout;horizontal=1;startSize=26;horizontalStack=0;resizeParent=1;resizeParentMax=0;resizeLast=0;collapsible=1;marginBottom=0;whiteSpace=wrap;html=1;" parent="WIyWlLk6GJQsqaUBKTNV-1" vertex="1">
          <mxGeometry x="4560" y="964" width="330" height="138" as="geometry" />
        </mxCell>
        <mxCell id="cMXHbLQRaVfCkkEPk3rR-21" value="+ generateAuthKey():String&amp;nbsp;" style="text;strokeColor=none;fillColor=none;align=left;verticalAlign=top;spacingLeft=4;spacingRight=4;overflow=hidden;rotatable=0;points=[[0,0.5],[1,0.5]];portConstraint=eastwest;whiteSpace=wrap;html=1;" parent="cMXHbLQRaVfCkkEPk3rR-16" vertex="1">
          <mxGeometry y="26" width="330" height="26" as="geometry" />
        </mxCell>
        <mxCell id="cMXHbLQRaVfCkkEPk3rR-20" value="+ authenticate(String):boolean" style="text;strokeColor=none;fillColor=none;align=left;verticalAlign=top;spacingLeft=4;spacingRight=4;overflow=hidden;rotatable=0;points=[[0,0.5],[1,0.5]];portConstraint=eastwest;whiteSpace=wrap;html=1;" parent="cMXHbLQRaVfCkkEPk3rR-16" vertex="1">
          <mxGeometry y="52" width="330" height="26" as="geometry" />
        </mxCell>
        <mxCell id="cMXHbLQRaVfCkkEPk3rR-19" value="" style="line;strokeWidth=1;fillColor=none;align=left;verticalAlign=middle;spacingTop=-1;spacingLeft=3;spacingRight=3;rotatable=0;labelPosition=right;points=[];portConstraint=eastwest;strokeColor=inherit;" parent="cMXHbLQRaVfCkkEPk3rR-16" vertex="1">
          <mxGeometry y="78" width="330" height="8" as="geometry" />
        </mxCell>
        <mxCell id="cMXHbLQRaVfCkkEPk3rR-38" value="- timeToLive: int" style="text;strokeColor=none;fillColor=none;align=left;verticalAlign=top;spacingLeft=4;spacingRight=4;overflow=hidden;rotatable=0;points=[[0,0.5],[1,0.5]];portConstraint=eastwest;whiteSpace=wrap;html=1;" parent="cMXHbLQRaVfCkkEPk3rR-16" vertex="1">
          <mxGeometry y="86" width="330" height="26" as="geometry" />
        </mxCell>
        <mxCell id="cMXHbLQRaVfCkkEPk3rR-18" value="- storedOTP: String" style="text;strokeColor=none;fillColor=none;align=left;verticalAlign=top;spacingLeft=4;spacingRight=4;overflow=hidden;rotatable=0;points=[[0,0.5],[1,0.5]];portConstraint=eastwest;whiteSpace=wrap;html=1;" parent="cMXHbLQRaVfCkkEPk3rR-16" vertex="1">
          <mxGeometry y="112" width="330" height="26" as="geometry" />
        </mxCell>
        <mxCell id="cMXHbLQRaVfCkkEPk3rR-25" value="QRAuthenticator" style="swimlane;fontStyle=1;align=center;verticalAlign=top;childLayout=stackLayout;horizontal=1;startSize=26;horizontalStack=0;resizeParent=1;resizeParentMax=0;resizeLast=0;collapsible=1;marginBottom=0;whiteSpace=wrap;html=1;" parent="WIyWlLk6GJQsqaUBKTNV-1" vertex="1">
          <mxGeometry x="4900" y="964" width="330" height="164" as="geometry" />
        </mxCell>
        <mxCell id="cMXHbLQRaVfCkkEPk3rR-31" value="+ encodeStringToQR(): void" style="text;strokeColor=none;fillColor=none;align=left;verticalAlign=top;spacingLeft=4;spacingRight=4;overflow=hidden;rotatable=0;points=[[0,0.5],[1,0.5]];portConstraint=eastwest;whiteSpace=wrap;html=1;" parent="cMXHbLQRaVfCkkEPk3rR-25" vertex="1">
          <mxGeometry y="26" width="330" height="26" as="geometry" />
        </mxCell>
        <mxCell id="cMXHbLQRaVfCkkEPk3rR-30" value="+ generateAuthKey():String&amp;nbsp;" style="text;strokeColor=none;fillColor=none;align=left;verticalAlign=top;spacingLeft=4;spacingRight=4;overflow=hidden;rotatable=0;points=[[0,0.5],[1,0.5]];portConstraint=eastwest;whiteSpace=wrap;html=1;" parent="cMXHbLQRaVfCkkEPk3rR-25" vertex="1">
          <mxGeometry y="52" width="330" height="26" as="geometry" />
        </mxCell>
        <mxCell id="cMXHbLQRaVfCkkEPk3rR-29" value="+ authenticate(String): boolean" style="text;strokeColor=none;fillColor=none;align=left;verticalAlign=top;spacingLeft=4;spacingRight=4;overflow=hidden;rotatable=0;points=[[0,0.5],[1,0.5]];portConstraint=eastwest;whiteSpace=wrap;html=1;" parent="cMXHbLQRaVfCkkEPk3rR-25" vertex="1">
          <mxGeometry y="78" width="330" height="26" as="geometry" />
        </mxCell>
        <mxCell id="cMXHbLQRaVfCkkEPk3rR-28" value="" style="line;strokeWidth=1;fillColor=none;align=left;verticalAlign=middle;spacingTop=-1;spacingLeft=3;spacingRight=3;rotatable=0;labelPosition=right;points=[];portConstraint=eastwest;strokeColor=inherit;" parent="cMXHbLQRaVfCkkEPk3rR-25" vertex="1">
          <mxGeometry y="104" width="330" height="8" as="geometry" />
        </mxCell>
        <mxCell id="cMXHbLQRaVfCkkEPk3rR-39" value="- timeToLive: int" style="text;strokeColor=none;fillColor=none;align=left;verticalAlign=top;spacingLeft=4;spacingRight=4;overflow=hidden;rotatable=0;points=[[0,0.5],[1,0.5]];portConstraint=eastwest;whiteSpace=wrap;html=1;" parent="cMXHbLQRaVfCkkEPk3rR-25" vertex="1">
          <mxGeometry y="112" width="330" height="26" as="geometry" />
        </mxCell>
        <mxCell id="cMXHbLQRaVfCkkEPk3rR-27" value="- qrKey: String" style="text;strokeColor=none;fillColor=none;align=left;verticalAlign=top;spacingLeft=4;spacingRight=4;overflow=hidden;rotatable=0;points=[[0,0.5],[1,0.5]];portConstraint=eastwest;whiteSpace=wrap;html=1;" parent="cMXHbLQRaVfCkkEPk3rR-25" vertex="1">
          <mxGeometry y="138" width="330" height="26" as="geometry" />
        </mxCell>
        <mxCell id="cMXHbLQRaVfCkkEPk3rR-36" value="" style="endArrow=block;dashed=1;endFill=0;endSize=12;html=1;rounded=0;exitX=0.452;exitY=-0.014;exitDx=0;exitDy=0;exitPerimeter=0;entryX=0;entryY=1;entryDx=0;entryDy=0;" parent="WIyWlLk6GJQsqaUBKTNV-1" source="cMXHbLQRaVfCkkEPk3rR-16" target="cMXHbLQRaVfCkkEPk3rR-14" edge="1">
          <mxGeometry width="160" relative="1" as="geometry">
            <mxPoint x="4910" y="634" as="sourcePoint" />
            <mxPoint x="5070" y="634" as="targetPoint" />
          </mxGeometry>
        </mxCell>
        <mxCell id="cMXHbLQRaVfCkkEPk3rR-37" value="" style="endArrow=block;dashed=1;endFill=0;endSize=12;html=1;rounded=0;exitX=0.859;exitY=-0.002;exitDx=0;exitDy=0;exitPerimeter=0;entryX=0.937;entryY=0.978;entryDx=0;entryDy=0;entryPerimeter=0;" parent="WIyWlLk6GJQsqaUBKTNV-1" source="cMXHbLQRaVfCkkEPk3rR-25" target="cMXHbLQRaVfCkkEPk3rR-14" edge="1">
          <mxGeometry width="160" relative="1" as="geometry">
            <mxPoint x="5299" y="596.5" as="sourcePoint" />
            <mxPoint x="5280" y="654" as="targetPoint" />
          </mxGeometry>
        </mxCell>
        <mxCell id="cMXHbLQRaVfCkkEPk3rR-40" value="&lt;p style=&quot;margin:0px;margin-top:4px;text-align:center;&quot;&gt;&lt;i&gt;&amp;lt;&amp;lt;Interface&amp;gt;&amp;gt;&lt;/i&gt;&lt;br&gt;&lt;b&gt;Transaction Interface&lt;/b&gt;&lt;/p&gt;&lt;hr size=&quot;1&quot;&gt;&lt;p style=&quot;margin:0px;margin-left:4px;&quot;&gt;+ transactionID: String&lt;br&gt;&lt;/p&gt;&lt;p style=&quot;margin:0px;margin-left:4px;&quot;&gt;+ amount: Double&lt;/p&gt;&lt;hr size=&quot;1&quot;&gt;&lt;p style=&quot;margin:0px;margin-left:4px;&quot;&gt;+ withdraw(amount:Double): boolean&lt;br&gt;+ deposit(amount:Double): boolean&lt;/p&gt;" style="verticalAlign=top;align=left;overflow=fill;fontSize=12;fontFamily=Helvetica;html=1;whiteSpace=wrap;" parent="WIyWlLk6GJQsqaUBKTNV-1" vertex="1">
          <mxGeometry x="4730" y="30" width="210" height="120" as="geometry" />
        </mxCell>
        <mxCell id="cMXHbLQRaVfCkkEPk3rR-44" value="" style="endArrow=block;dashed=1;endFill=0;endSize=12;html=1;rounded=0;entryX=1.006;entryY=0.18;entryDx=0;entryDy=0;entryPerimeter=0;exitX=-0.014;exitY=0.584;exitDx=0;exitDy=0;exitPerimeter=0;" parent="WIyWlLk6GJQsqaUBKTNV-1" source="cMXHbLQRaVfCkkEPk3rR-2" target="cMXHbLQRaVfCkkEPk3rR-40" edge="1">
          <mxGeometry width="160" relative="1" as="geometry">
            <mxPoint x="4890" y="310" as="sourcePoint" />
            <mxPoint x="5050" y="310" as="targetPoint" />
          </mxGeometry>
        </mxCell>
        <mxCell id="cMXHbLQRaVfCkkEPk3rR-50" value="" style="endArrow=block;dashed=1;endFill=0;endSize=12;html=1;rounded=0;exitX=0.996;exitY=0.302;exitDx=0;exitDy=0;exitPerimeter=0;entryX=0.25;entryY=1;entryDx=0;entryDy=0;" parent="WIyWlLk6GJQsqaUBKTNV-1" source="X0b0RHwHDyXbMrfLogEa-330" target="X0b0RHwHDyXbMrfLogEa-153" edge="1">
          <mxGeometry width="160" relative="1" as="geometry">
            <mxPoint x="5790" y="840" as="sourcePoint" />
            <mxPoint x="5950" y="840" as="targetPoint" />
          </mxGeometry>
        </mxCell>
        <mxCell id="cMXHbLQRaVfCkkEPk3rR-52" value="CreditBill" style="swimlane;fontStyle=1;align=center;verticalAlign=top;childLayout=stackLayout;horizontal=1;startSize=26;horizontalStack=0;resizeParent=1;resizeParentMax=0;resizeLast=0;collapsible=1;marginBottom=0;whiteSpace=wrap;html=1;" parent="WIyWlLk6GJQsqaUBKTNV-1" vertex="1">
          <mxGeometry x="4810" y="191" width="240" height="268" as="geometry" />
        </mxCell>
        <mxCell id="cMXHbLQRaVfCkkEPk3rR-53" value="+ transactionID: String" style="text;strokeColor=none;fillColor=none;align=left;verticalAlign=top;spacingLeft=4;spacingRight=4;overflow=hidden;rotatable=0;points=[[0,0.5],[1,0.5]];portConstraint=eastwest;whiteSpace=wrap;html=1;" parent="cMXHbLQRaVfCkkEPk3rR-52" vertex="1">
          <mxGeometry y="26" width="240" height="26" as="geometry" />
        </mxCell>
        <mxCell id="cMXHbLQRaVfCkkEPk3rR-75" value="+ amount: Double" style="text;strokeColor=none;fillColor=none;align=left;verticalAlign=top;spacingLeft=4;spacingRight=4;overflow=hidden;rotatable=0;points=[[0,0.5],[1,0.5]];portConstraint=eastwest;whiteSpace=wrap;html=1;" parent="cMXHbLQRaVfCkkEPk3rR-52" vertex="1">
          <mxGeometry y="52" width="240" height="26" as="geometry" />
        </mxCell>
        <mxCell id="cMXHbLQRaVfCkkEPk3rR-76" value="+ cardNumber: String" style="text;strokeColor=none;fillColor=none;align=left;verticalAlign=top;spacingLeft=4;spacingRight=4;overflow=hidden;rotatable=0;points=[[0,0.5],[1,0.5]];portConstraint=eastwest;whiteSpace=wrap;html=1;" parent="cMXHbLQRaVfCkkEPk3rR-52" vertex="1">
          <mxGeometry y="78" width="240" height="26" as="geometry" />
        </mxCell>
        <mxCell id="cMXHbLQRaVfCkkEPk3rR-78" value="- Subcribers: ArrayList&amp;lt;Observer&amp;gt;" style="text;strokeColor=none;fillColor=none;align=left;verticalAlign=top;spacingLeft=4;spacingRight=4;overflow=hidden;rotatable=0;points=[[0,0.5],[1,0.5]];portConstraint=eastwest;whiteSpace=wrap;html=1;" parent="cMXHbLQRaVfCkkEPk3rR-52" vertex="1">
          <mxGeometry y="104" width="240" height="26" as="geometry" />
        </mxCell>
        <mxCell id="cMXHbLQRaVfCkkEPk3rR-55" value="" style="line;strokeWidth=1;fillColor=none;align=left;verticalAlign=middle;spacingTop=-1;spacingLeft=3;spacingRight=3;rotatable=0;labelPosition=right;points=[];portConstraint=eastwest;strokeColor=inherit;" parent="cMXHbLQRaVfCkkEPk3rR-52" vertex="1">
          <mxGeometry y="130" width="240" height="8" as="geometry" />
        </mxCell>
        <mxCell id="cMXHbLQRaVfCkkEPk3rR-56" value="+ withdraw(amount:Double): boolean" style="text;strokeColor=none;fillColor=none;align=left;verticalAlign=top;spacingLeft=4;spacingRight=4;overflow=hidden;rotatable=0;points=[[0,0.5],[1,0.5]];portConstraint=eastwest;whiteSpace=wrap;html=1;" parent="cMXHbLQRaVfCkkEPk3rR-52" vertex="1">
          <mxGeometry y="138" width="240" height="26" as="geometry" />
        </mxCell>
        <mxCell id="cMXHbLQRaVfCkkEPk3rR-57" value="+ deposit(amount:Double): boolean" style="text;strokeColor=none;fillColor=none;align=left;verticalAlign=top;spacingLeft=4;spacingRight=4;overflow=hidden;rotatable=0;points=[[0,0.5],[1,0.5]];portConstraint=eastwest;whiteSpace=wrap;html=1;" parent="cMXHbLQRaVfCkkEPk3rR-52" vertex="1">
          <mxGeometry y="164" width="240" height="26" as="geometry" />
        </mxCell>
        <mxCell id="cMXHbLQRaVfCkkEPk3rR-82" value="+ attach(Observer): void" style="text;strokeColor=none;fillColor=none;align=left;verticalAlign=top;spacingLeft=4;spacingRight=4;overflow=hidden;rotatable=0;points=[[0,0.5],[1,0.5]];portConstraint=eastwest;whiteSpace=wrap;html=1;" parent="cMXHbLQRaVfCkkEPk3rR-52" vertex="1">
          <mxGeometry y="190" width="240" height="26" as="geometry" />
        </mxCell>
        <mxCell id="cMXHbLQRaVfCkkEPk3rR-83" value="+ detach(Observer): void" style="text;strokeColor=none;fillColor=none;align=left;verticalAlign=top;spacingLeft=4;spacingRight=4;overflow=hidden;rotatable=0;points=[[0,0.5],[1,0.5]];portConstraint=eastwest;whiteSpace=wrap;html=1;" parent="cMXHbLQRaVfCkkEPk3rR-52" vertex="1">
          <mxGeometry y="216" width="240" height="26" as="geometry" />
        </mxCell>
        <mxCell id="cMXHbLQRaVfCkkEPk3rR-84" value="+ notify(): void" style="text;strokeColor=none;fillColor=none;align=left;verticalAlign=top;spacingLeft=4;spacingRight=4;overflow=hidden;rotatable=0;points=[[0,0.5],[1,0.5]];portConstraint=eastwest;whiteSpace=wrap;html=1;" parent="cMXHbLQRaVfCkkEPk3rR-52" vertex="1">
          <mxGeometry y="242" width="240" height="26" as="geometry" />
        </mxCell>
        <mxCell id="cMXHbLQRaVfCkkEPk3rR-58" value="UtilityBill" style="swimlane;fontStyle=1;align=center;verticalAlign=top;childLayout=stackLayout;horizontal=1;startSize=26;horizontalStack=0;resizeParent=1;resizeParentMax=0;resizeLast=0;collapsible=1;marginBottom=0;whiteSpace=wrap;html=1;" parent="WIyWlLk6GJQsqaUBKTNV-1" vertex="1">
          <mxGeometry x="4550" y="191" width="240" height="294" as="geometry" />
        </mxCell>
        <mxCell id="cMXHbLQRaVfCkkEPk3rR-59" value="+ transactionID: String" style="text;strokeColor=none;fillColor=none;align=left;verticalAlign=top;spacingLeft=4;spacingRight=4;overflow=hidden;rotatable=0;points=[[0,0.5],[1,0.5]];portConstraint=eastwest;whiteSpace=wrap;html=1;" parent="cMXHbLQRaVfCkkEPk3rR-58" vertex="1">
          <mxGeometry y="26" width="240" height="26" as="geometry" />
        </mxCell>
        <mxCell id="cMXHbLQRaVfCkkEPk3rR-64" value="- QRauthenticator: Authenticator" style="text;strokeColor=none;fillColor=none;align=left;verticalAlign=top;spacingLeft=4;spacingRight=4;overflow=hidden;rotatable=0;points=[[0,0.5],[1,0.5]];portConstraint=eastwest;whiteSpace=wrap;html=1;" parent="cMXHbLQRaVfCkkEPk3rR-58" vertex="1">
          <mxGeometry y="52" width="240" height="26" as="geometry" />
        </mxCell>
        <mxCell id="cMXHbLQRaVfCkkEPk3rR-68" value="- billerID: String" style="text;strokeColor=none;fillColor=none;align=left;verticalAlign=top;spacingLeft=4;spacingRight=4;overflow=hidden;rotatable=0;points=[[0,0.5],[1,0.5]];portConstraint=eastwest;whiteSpace=wrap;html=1;" parent="cMXHbLQRaVfCkkEPk3rR-58" vertex="1">
          <mxGeometry y="78" width="240" height="26" as="geometry" />
        </mxCell>
        <mxCell id="cMXHbLQRaVfCkkEPk3rR-98" value="+ amount: Double" style="text;strokeColor=none;fillColor=none;align=left;verticalAlign=top;spacingLeft=4;spacingRight=4;overflow=hidden;rotatable=0;points=[[0,0.5],[1,0.5]];portConstraint=eastwest;whiteSpace=wrap;html=1;" parent="cMXHbLQRaVfCkkEPk3rR-58" vertex="1">
          <mxGeometry y="104" width="240" height="26" as="geometry" />
        </mxCell>
        <mxCell id="cMXHbLQRaVfCkkEPk3rR-77" value="- Subcribers: ArrayList&amp;lt;Observer&amp;gt;" style="text;strokeColor=none;fillColor=none;align=left;verticalAlign=top;spacingLeft=4;spacingRight=4;overflow=hidden;rotatable=0;points=[[0,0.5],[1,0.5]];portConstraint=eastwest;whiteSpace=wrap;html=1;" parent="cMXHbLQRaVfCkkEPk3rR-58" vertex="1">
          <mxGeometry y="130" width="240" height="26" as="geometry" />
        </mxCell>
        <mxCell id="cMXHbLQRaVfCkkEPk3rR-61" value="" style="line;strokeWidth=1;fillColor=none;align=left;verticalAlign=middle;spacingTop=-1;spacingLeft=3;spacingRight=3;rotatable=0;labelPosition=right;points=[];portConstraint=eastwest;strokeColor=inherit;" parent="cMXHbLQRaVfCkkEPk3rR-58" vertex="1">
          <mxGeometry y="156" width="240" height="8" as="geometry" />
        </mxCell>
        <mxCell id="cMXHbLQRaVfCkkEPk3rR-87" value="+ withdraw(amount:Double): boolean" style="text;strokeColor=none;fillColor=none;align=left;verticalAlign=top;spacingLeft=4;spacingRight=4;overflow=hidden;rotatable=0;points=[[0,0.5],[1,0.5]];portConstraint=eastwest;whiteSpace=wrap;html=1;" parent="cMXHbLQRaVfCkkEPk3rR-58" vertex="1">
          <mxGeometry y="164" width="240" height="26" as="geometry" />
        </mxCell>
        <mxCell id="cMXHbLQRaVfCkkEPk3rR-88" value="+ deposit(amount:Double): boolean" style="text;strokeColor=none;fillColor=none;align=left;verticalAlign=top;spacingLeft=4;spacingRight=4;overflow=hidden;rotatable=0;points=[[0,0.5],[1,0.5]];portConstraint=eastwest;whiteSpace=wrap;html=1;" parent="cMXHbLQRaVfCkkEPk3rR-58" vertex="1">
          <mxGeometry y="190" width="240" height="26" as="geometry" />
        </mxCell>
        <mxCell id="cMXHbLQRaVfCkkEPk3rR-79" value="+ attach(Observer): void" style="text;strokeColor=none;fillColor=none;align=left;verticalAlign=top;spacingLeft=4;spacingRight=4;overflow=hidden;rotatable=0;points=[[0,0.5],[1,0.5]];portConstraint=eastwest;whiteSpace=wrap;html=1;" parent="cMXHbLQRaVfCkkEPk3rR-58" vertex="1">
          <mxGeometry y="216" width="240" height="26" as="geometry" />
        </mxCell>
        <mxCell id="cMXHbLQRaVfCkkEPk3rR-80" value="+ detach(Observer): void" style="text;strokeColor=none;fillColor=none;align=left;verticalAlign=top;spacingLeft=4;spacingRight=4;overflow=hidden;rotatable=0;points=[[0,0.5],[1,0.5]];portConstraint=eastwest;whiteSpace=wrap;html=1;" parent="cMXHbLQRaVfCkkEPk3rR-58" vertex="1">
          <mxGeometry y="242" width="240" height="26" as="geometry" />
        </mxCell>
        <mxCell id="cMXHbLQRaVfCkkEPk3rR-81" value="+ notify(): void" style="text;strokeColor=none;fillColor=none;align=left;verticalAlign=top;spacingLeft=4;spacingRight=4;overflow=hidden;rotatable=0;points=[[0,0.5],[1,0.5]];portConstraint=eastwest;whiteSpace=wrap;html=1;" parent="cMXHbLQRaVfCkkEPk3rR-58" vertex="1">
          <mxGeometry y="268" width="240" height="26" as="geometry" />
        </mxCell>
        <mxCell id="cMXHbLQRaVfCkkEPk3rR-65" value="" style="endArrow=block;dashed=1;endFill=0;endSize=12;html=1;rounded=0;entryX=-0.005;entryY=0.585;entryDx=0;entryDy=0;entryPerimeter=0;" parent="WIyWlLk6GJQsqaUBKTNV-1" target="cMXHbLQRaVfCkkEPk3rR-40" edge="1">
          <mxGeometry width="160" relative="1" as="geometry">
            <mxPoint x="4590" y="190" as="sourcePoint" />
            <mxPoint x="4670" y="130" as="targetPoint" />
          </mxGeometry>
        </mxCell>
        <mxCell id="cMXHbLQRaVfCkkEPk3rR-66" value="" style="endArrow=block;dashed=1;endFill=0;endSize=12;html=1;rounded=0;" parent="WIyWlLk6GJQsqaUBKTNV-1" edge="1">
          <mxGeometry width="160" relative="1" as="geometry">
            <mxPoint x="5020" y="190" as="sourcePoint" />
            <mxPoint x="4940" y="100" as="targetPoint" />
          </mxGeometry>
        </mxCell>
        <mxCell id="cMXHbLQRaVfCkkEPk3rR-70" value="" style="endArrow=none;html=1;edgeStyle=orthogonalEdgeStyle;rounded=0;entryX=0.25;entryY=0;entryDx=0;entryDy=0;exitX=1;exitY=0.5;exitDx=0;exitDy=0;" parent="WIyWlLk6GJQsqaUBKTNV-1" source="X0b0RHwHDyXbMrfLogEa-185" target="X0b0RHwHDyXbMrfLogEa-62" edge="1">
          <mxGeometry relative="1" as="geometry">
            <mxPoint x="6530" y="660" as="sourcePoint" />
            <mxPoint x="7330" y="660" as="targetPoint" />
          </mxGeometry>
        </mxCell>
        <mxCell id="cMXHbLQRaVfCkkEPk3rR-71" value="1" style="edgeLabel;resizable=0;html=1;align=left;verticalAlign=bottom;" parent="cMXHbLQRaVfCkkEPk3rR-70" connectable="0" vertex="1">
          <mxGeometry x="-1" relative="1" as="geometry" />
        </mxCell>
        <mxCell id="cMXHbLQRaVfCkkEPk3rR-72" value="1..*" style="edgeLabel;resizable=0;html=1;align=right;verticalAlign=bottom;" parent="cMXHbLQRaVfCkkEPk3rR-70" connectable="0" vertex="1">
          <mxGeometry x="1" relative="1" as="geometry">
            <mxPoint x="-8" as="offset" />
          </mxGeometry>
        </mxCell>
        <mxCell id="cMXHbLQRaVfCkkEPk3rR-73" value="" style="endArrow=block;dashed=1;endFill=0;endSize=12;html=1;rounded=0;entryX=-0.004;entryY=0.098;entryDx=0;entryDy=0;entryPerimeter=0;exitX=0.999;exitY=0.259;exitDx=0;exitDy=0;exitPerimeter=0;" parent="WIyWlLk6GJQsqaUBKTNV-1" source="cMXHbLQRaVfCkkEPk3rR-13" target="X0b0RHwHDyXbMrfLogEa-126" edge="1">
          <mxGeometry width="160" relative="1" as="geometry">
            <mxPoint x="5360" y="410" as="sourcePoint" />
            <mxPoint x="5520" y="410" as="targetPoint" />
          </mxGeometry>
        </mxCell>
        <mxCell id="cMXHbLQRaVfCkkEPk3rR-85" value="" style="endArrow=block;dashed=1;endFill=0;endSize=12;html=1;rounded=0;entryX=0;entryY=0.25;entryDx=0;entryDy=0;" parent="WIyWlLk6GJQsqaUBKTNV-1" target="X0b0RHwHDyXbMrfLogEa-126" edge="1">
          <mxGeometry width="160" relative="1" as="geometry">
            <mxPoint x="5050" y="230" as="sourcePoint" />
            <mxPoint x="5210" y="230" as="targetPoint" />
          </mxGeometry>
        </mxCell>
        <mxCell id="cMXHbLQRaVfCkkEPk3rR-86" value="" style="endArrow=block;dashed=1;endFill=0;endSize=12;html=1;rounded=0;exitX=0.996;exitY=-0.03;exitDx=0;exitDy=0;exitPerimeter=0;entryX=0;entryY=0.386;entryDx=0;entryDy=0;entryPerimeter=0;" parent="WIyWlLk6GJQsqaUBKTNV-1" source="cMXHbLQRaVfCkkEPk3rR-68" target="X0b0RHwHDyXbMrfLogEa-126" edge="1">
          <mxGeometry width="160" relative="1" as="geometry">
            <mxPoint x="4800" y="270" as="sourcePoint" />
            <mxPoint x="6240" y="360" as="targetPoint" />
          </mxGeometry>
        </mxCell>
        <mxCell id="cMXHbLQRaVfCkkEPk3rR-92" value="" style="endArrow=none;html=1;edgeStyle=orthogonalEdgeStyle;rounded=0;exitX=0.625;exitY=0.993;exitDx=0;exitDy=0;exitPerimeter=0;entryX=0.5;entryY=0;entryDx=0;entryDy=0;" parent="WIyWlLk6GJQsqaUBKTNV-1" source="cMXHbLQRaVfCkkEPk3rR-81" target="cMXHbLQRaVfCkkEPk3rR-14" edge="1">
          <mxGeometry relative="1" as="geometry">
            <mxPoint x="4700" y="460" as="sourcePoint" />
            <mxPoint x="5080" y="510" as="targetPoint" />
            <Array as="points">
              <mxPoint x="4700" y="510" />
              <mxPoint x="4955" y="510" />
            </Array>
          </mxGeometry>
        </mxCell>
        <mxCell id="cMXHbLQRaVfCkkEPk3rR-93" value="1..*" style="edgeLabel;resizable=0;html=1;align=left;verticalAlign=bottom;" parent="cMXHbLQRaVfCkkEPk3rR-92" connectable="0" vertex="1">
          <mxGeometry x="-1" relative="1" as="geometry">
            <mxPoint x="5" y="22" as="offset" />
          </mxGeometry>
        </mxCell>
        <mxCell id="cMXHbLQRaVfCkkEPk3rR-94" value="1" style="edgeLabel;resizable=0;html=1;align=right;verticalAlign=bottom;" parent="cMXHbLQRaVfCkkEPk3rR-92" connectable="0" vertex="1">
          <mxGeometry x="1" relative="1" as="geometry">
            <mxPoint x="-10" y="-4" as="offset" />
          </mxGeometry>
        </mxCell>
        <mxCell id="cMXHbLQRaVfCkkEPk3rR-99" value="BankTransfer" style="swimlane;fontStyle=1;align=center;verticalAlign=top;childLayout=stackLayout;horizontal=1;startSize=26;horizontalStack=0;resizeParent=1;resizeParentMax=0;resizeLast=0;collapsible=1;marginBottom=0;whiteSpace=wrap;html=1;" parent="WIyWlLk6GJQsqaUBKTNV-1" vertex="1">
          <mxGeometry x="4290" y="191" width="240" height="320" as="geometry" />
        </mxCell>
        <mxCell id="cMXHbLQRaVfCkkEPk3rR-100" value="+ transactionID: String" style="text;strokeColor=none;fillColor=none;align=left;verticalAlign=top;spacingLeft=4;spacingRight=4;overflow=hidden;rotatable=0;points=[[0,0.5],[1,0.5]];portConstraint=eastwest;whiteSpace=wrap;html=1;" parent="cMXHbLQRaVfCkkEPk3rR-99" vertex="1">
          <mxGeometry y="26" width="240" height="26" as="geometry" />
        </mxCell>
        <mxCell id="cMXHbLQRaVfCkkEPk3rR-101" value="- OTPauthenticator: Authenticator" style="text;strokeColor=none;fillColor=none;align=left;verticalAlign=top;spacingLeft=4;spacingRight=4;overflow=hidden;rotatable=0;points=[[0,0.5],[1,0.5]];portConstraint=eastwest;whiteSpace=wrap;html=1;" parent="cMXHbLQRaVfCkkEPk3rR-99" vertex="1">
          <mxGeometry y="52" width="240" height="26" as="geometry" />
        </mxCell>
        <mxCell id="cMXHbLQRaVfCkkEPk3rR-102" value="- senderAccNum: String" style="text;strokeColor=none;fillColor=none;align=left;verticalAlign=top;spacingLeft=4;spacingRight=4;overflow=hidden;rotatable=0;points=[[0,0.5],[1,0.5]];portConstraint=eastwest;whiteSpace=wrap;html=1;" parent="cMXHbLQRaVfCkkEPk3rR-99" vertex="1">
          <mxGeometry y="78" width="240" height="26" as="geometry" />
        </mxCell>
        <mxCell id="cMXHbLQRaVfCkkEPk3rR-112" value="- receiverAccNum: String" style="text;strokeColor=none;fillColor=none;align=left;verticalAlign=top;spacingLeft=4;spacingRight=4;overflow=hidden;rotatable=0;points=[[0,0.5],[1,0.5]];portConstraint=eastwest;whiteSpace=wrap;html=1;" parent="cMXHbLQRaVfCkkEPk3rR-99" vertex="1">
          <mxGeometry y="104" width="240" height="26" as="geometry" />
        </mxCell>
        <mxCell id="cMXHbLQRaVfCkkEPk3rR-103" value="+ amount: Double" style="text;strokeColor=none;fillColor=none;align=left;verticalAlign=top;spacingLeft=4;spacingRight=4;overflow=hidden;rotatable=0;points=[[0,0.5],[1,0.5]];portConstraint=eastwest;whiteSpace=wrap;html=1;" parent="cMXHbLQRaVfCkkEPk3rR-99" vertex="1">
          <mxGeometry y="130" width="240" height="26" as="geometry" />
        </mxCell>
        <mxCell id="cMXHbLQRaVfCkkEPk3rR-104" value="- Subcribers: ArrayList&amp;lt;Observer&amp;gt;" style="text;strokeColor=none;fillColor=none;align=left;verticalAlign=top;spacingLeft=4;spacingRight=4;overflow=hidden;rotatable=0;points=[[0,0.5],[1,0.5]];portConstraint=eastwest;whiteSpace=wrap;html=1;" parent="cMXHbLQRaVfCkkEPk3rR-99" vertex="1">
          <mxGeometry y="156" width="240" height="26" as="geometry" />
        </mxCell>
        <mxCell id="cMXHbLQRaVfCkkEPk3rR-105" value="" style="line;strokeWidth=1;fillColor=none;align=left;verticalAlign=middle;spacingTop=-1;spacingLeft=3;spacingRight=3;rotatable=0;labelPosition=right;points=[];portConstraint=eastwest;strokeColor=inherit;" parent="cMXHbLQRaVfCkkEPk3rR-99" vertex="1">
          <mxGeometry y="182" width="240" height="8" as="geometry" />
        </mxCell>
        <mxCell id="cMXHbLQRaVfCkkEPk3rR-106" value="+ withdraw(amount:Double): boolean" style="text;strokeColor=none;fillColor=none;align=left;verticalAlign=top;spacingLeft=4;spacingRight=4;overflow=hidden;rotatable=0;points=[[0,0.5],[1,0.5]];portConstraint=eastwest;whiteSpace=wrap;html=1;" parent="cMXHbLQRaVfCkkEPk3rR-99" vertex="1">
          <mxGeometry y="190" width="240" height="26" as="geometry" />
        </mxCell>
        <mxCell id="cMXHbLQRaVfCkkEPk3rR-107" value="+ deposit(amount:Double): boolean" style="text;strokeColor=none;fillColor=none;align=left;verticalAlign=top;spacingLeft=4;spacingRight=4;overflow=hidden;rotatable=0;points=[[0,0.5],[1,0.5]];portConstraint=eastwest;whiteSpace=wrap;html=1;" parent="cMXHbLQRaVfCkkEPk3rR-99" vertex="1">
          <mxGeometry y="216" width="240" height="26" as="geometry" />
        </mxCell>
        <mxCell id="cMXHbLQRaVfCkkEPk3rR-108" value="+ attach(Observer): void" style="text;strokeColor=none;fillColor=none;align=left;verticalAlign=top;spacingLeft=4;spacingRight=4;overflow=hidden;rotatable=0;points=[[0,0.5],[1,0.5]];portConstraint=eastwest;whiteSpace=wrap;html=1;" parent="cMXHbLQRaVfCkkEPk3rR-99" vertex="1">
          <mxGeometry y="242" width="240" height="26" as="geometry" />
        </mxCell>
        <mxCell id="cMXHbLQRaVfCkkEPk3rR-109" value="+ detach(Observer): void" style="text;strokeColor=none;fillColor=none;align=left;verticalAlign=top;spacingLeft=4;spacingRight=4;overflow=hidden;rotatable=0;points=[[0,0.5],[1,0.5]];portConstraint=eastwest;whiteSpace=wrap;html=1;" parent="cMXHbLQRaVfCkkEPk3rR-99" vertex="1">
          <mxGeometry y="268" width="240" height="26" as="geometry" />
        </mxCell>
        <mxCell id="cMXHbLQRaVfCkkEPk3rR-110" value="+ notify(): void" style="text;strokeColor=none;fillColor=none;align=left;verticalAlign=top;spacingLeft=4;spacingRight=4;overflow=hidden;rotatable=0;points=[[0,0.5],[1,0.5]];portConstraint=eastwest;whiteSpace=wrap;html=1;" parent="cMXHbLQRaVfCkkEPk3rR-99" vertex="1">
          <mxGeometry y="294" width="240" height="26" as="geometry" />
        </mxCell>
        <mxCell id="cMXHbLQRaVfCkkEPk3rR-111" value="" style="endArrow=block;dashed=1;endFill=0;endSize=12;html=1;rounded=0;entryX=0;entryY=0.25;entryDx=0;entryDy=0;" parent="WIyWlLk6GJQsqaUBKTNV-1" target="cMXHbLQRaVfCkkEPk3rR-40" edge="1">
          <mxGeometry width="160" relative="1" as="geometry">
            <mxPoint x="4490" y="190" as="sourcePoint" />
            <mxPoint x="4629" y="100" as="targetPoint" />
          </mxGeometry>
        </mxCell>
        <mxCell id="cMXHbLQRaVfCkkEPk3rR-114" value="" style="endArrow=none;html=1;edgeStyle=orthogonalEdgeStyle;rounded=0;exitX=0.794;exitY=1.03;exitDx=0;exitDy=0;exitPerimeter=0;entryX=0.25;entryY=0;entryDx=0;entryDy=0;" parent="WIyWlLk6GJQsqaUBKTNV-1" source="cMXHbLQRaVfCkkEPk3rR-110" target="cMXHbLQRaVfCkkEPk3rR-14" edge="1">
          <mxGeometry relative="1" as="geometry">
            <mxPoint x="4480" y="527" as="sourcePoint" />
            <mxPoint x="4820" y="670" as="targetPoint" />
            <Array as="points">
              <mxPoint x="4481" y="530" />
              <mxPoint x="4897" y="530" />
            </Array>
          </mxGeometry>
        </mxCell>
        <mxCell id="cMXHbLQRaVfCkkEPk3rR-115" value="1..*" style="edgeLabel;resizable=0;html=1;align=left;verticalAlign=bottom;" parent="cMXHbLQRaVfCkkEPk3rR-114" connectable="0" vertex="1">
          <mxGeometry x="-1" relative="1" as="geometry">
            <mxPoint y="36" as="offset" />
          </mxGeometry>
        </mxCell>
        <mxCell id="cMXHbLQRaVfCkkEPk3rR-116" value="1" style="edgeLabel;resizable=0;html=1;align=right;verticalAlign=bottom;" parent="cMXHbLQRaVfCkkEPk3rR-114" connectable="0" vertex="1">
          <mxGeometry x="1" relative="1" as="geometry">
            <mxPoint x="-10" y="-4" as="offset" />
          </mxGeometry>
        </mxCell>
        <mxCell id="cMXHbLQRaVfCkkEPk3rR-124" value="PartnerAccountManager" style="swimlane;fontStyle=1;align=center;verticalAlign=top;childLayout=stackLayout;horizontal=1;startSize=26;horizontalStack=0;resizeParent=1;resizeParentMax=0;resizeLast=0;collapsible=1;marginBottom=0;whiteSpace=wrap;html=1;" parent="WIyWlLk6GJQsqaUBKTNV-1" vertex="1">
          <mxGeometry x="6160" y="1410" width="330" height="138" as="geometry" />
        </mxCell>
        <mxCell id="cMXHbLQRaVfCkkEPk3rR-125" value="- accountNumbers: ArrayList&amp;lt;String&amp;gt;" style="text;strokeColor=none;fillColor=none;align=left;verticalAlign=top;spacingLeft=4;spacingRight=4;overflow=hidden;rotatable=0;points=[[0,0.5],[1,0.5]];portConstraint=eastwest;whiteSpace=wrap;html=1;" parent="cMXHbLQRaVfCkkEPk3rR-124" vertex="1">
          <mxGeometry y="26" width="330" height="26" as="geometry" />
        </mxCell>
        <mxCell id="cMXHbLQRaVfCkkEPk3rR-126" value="- partnerName: ArrayList&amp;lt;String&amp;gt;" style="text;strokeColor=none;fillColor=none;align=left;verticalAlign=top;spacingLeft=4;spacingRight=4;overflow=hidden;rotatable=0;points=[[0,0.5],[1,0.5]];portConstraint=eastwest;whiteSpace=wrap;html=1;" parent="cMXHbLQRaVfCkkEPk3rR-124" vertex="1">
          <mxGeometry y="52" width="330" height="26" as="geometry" />
        </mxCell>
        <mxCell id="cMXHbLQRaVfCkkEPk3rR-127" value="" style="line;strokeWidth=1;fillColor=none;align=left;verticalAlign=middle;spacingTop=-1;spacingLeft=3;spacingRight=3;rotatable=0;labelPosition=right;points=[];portConstraint=eastwest;strokeColor=inherit;" parent="cMXHbLQRaVfCkkEPk3rR-124" vertex="1">
          <mxGeometry y="78" width="330" height="8" as="geometry" />
        </mxCell>
        <mxCell id="cMXHbLQRaVfCkkEPk3rR-128" value="+ addAccount(accNum:String)" style="text;strokeColor=none;fillColor=none;align=left;verticalAlign=top;spacingLeft=4;spacingRight=4;overflow=hidden;rotatable=0;points=[[0,0.5],[1,0.5]];portConstraint=eastwest;whiteSpace=wrap;html=1;" parent="cMXHbLQRaVfCkkEPk3rR-124" vertex="1">
          <mxGeometry y="86" width="330" height="26" as="geometry" />
        </mxCell>
        <mxCell id="cMXHbLQRaVfCkkEPk3rR-129" value="+ removetAccount(AppNum:String): void" style="text;strokeColor=none;fillColor=none;align=left;verticalAlign=top;spacingLeft=4;spacingRight=4;overflow=hidden;rotatable=0;points=[[0,0.5],[1,0.5]];portConstraint=eastwest;whiteSpace=wrap;html=1;" parent="cMXHbLQRaVfCkkEPk3rR-124" vertex="1">
          <mxGeometry y="112" width="330" height="26" as="geometry" />
        </mxCell>
        <mxCell id="cMXHbLQRaVfCkkEPk3rR-137" value="" style="endArrow=none;html=1;edgeStyle=orthogonalEdgeStyle;rounded=0;exitX=0.192;exitY=0.995;exitDx=0;exitDy=0;exitPerimeter=0;entryX=0.315;entryY=-0.006;entryDx=0;entryDy=0;entryPerimeter=0;" parent="WIyWlLk6GJQsqaUBKTNV-1" source="cMXHbLQRaVfCkkEPk3rR-122" target="cMXHbLQRaVfCkkEPk3rR-124" edge="1">
          <mxGeometry relative="1" as="geometry">
            <mxPoint x="6270" y="1300" as="sourcePoint" />
            <mxPoint x="6430" y="1300" as="targetPoint" />
            <Array as="points">
              <mxPoint x="6263" y="1409" />
            </Array>
          </mxGeometry>
        </mxCell>
        <mxCell id="cMXHbLQRaVfCkkEPk3rR-138" value="1..*" style="edgeLabel;resizable=0;html=1;align=left;verticalAlign=bottom;" parent="cMXHbLQRaVfCkkEPk3rR-137" connectable="0" vertex="1">
          <mxGeometry x="-1" relative="1" as="geometry">
            <mxPoint y="20" as="offset" />
          </mxGeometry>
        </mxCell>
        <mxCell id="cMXHbLQRaVfCkkEPk3rR-139" value="1" style="edgeLabel;resizable=0;html=1;align=right;verticalAlign=bottom;" parent="cMXHbLQRaVfCkkEPk3rR-137" connectable="0" vertex="1">
          <mxGeometry x="1" relative="1" as="geometry">
            <mxPoint x="9" y="-1" as="offset" />
          </mxGeometry>
        </mxCell>
        <mxCell id="cMXHbLQRaVfCkkEPk3rR-140" value="TextToSpeechIntegration" style="swimlane;fontStyle=1;align=center;verticalAlign=top;childLayout=stackLayout;horizontal=1;startSize=26;horizontalStack=0;resizeParent=1;resizeParentMax=0;resizeLast=0;collapsible=1;marginBottom=0;whiteSpace=wrap;html=1;" parent="WIyWlLk6GJQsqaUBKTNV-1" vertex="1">
          <mxGeometry x="4100" y="942" width="330" height="78" as="geometry" />
        </mxCell>
        <mxCell id="cMXHbLQRaVfCkkEPk3rR-141" value="+ scanScreen() : void" style="text;strokeColor=none;fillColor=none;align=left;verticalAlign=top;spacingLeft=4;spacingRight=4;overflow=hidden;rotatable=0;points=[[0,0.5],[1,0.5]];portConstraint=eastwest;whiteSpace=wrap;html=1;" parent="cMXHbLQRaVfCkkEPk3rR-140" vertex="1">
          <mxGeometry y="26" width="330" height="26" as="geometry" />
        </mxCell>
        <mxCell id="cMXHbLQRaVfCkkEPk3rR-142" value="+ speakOutLoad(text:String): void" style="text;strokeColor=none;fillColor=none;align=left;verticalAlign=top;spacingLeft=4;spacingRight=4;overflow=hidden;rotatable=0;points=[[0,0.5],[1,0.5]];portConstraint=eastwest;whiteSpace=wrap;html=1;" parent="cMXHbLQRaVfCkkEPk3rR-140" vertex="1">
          <mxGeometry y="52" width="330" height="26" as="geometry" />
        </mxCell>
        <mxCell id="cMXHbLQRaVfCkkEPk3rR-146" value="VoiceRecognitionIntegration" style="swimlane;fontStyle=1;align=center;verticalAlign=top;childLayout=stackLayout;horizontal=1;startSize=26;horizontalStack=0;resizeParent=1;resizeParentMax=0;resizeLast=0;collapsible=1;marginBottom=0;whiteSpace=wrap;html=1;" parent="WIyWlLk6GJQsqaUBKTNV-1" vertex="1">
          <mxGeometry x="4100" y="850" width="330" height="78" as="geometry" />
        </mxCell>
        <mxCell id="cMXHbLQRaVfCkkEPk3rR-147" value="+ voiceToText() : String" style="text;strokeColor=none;fillColor=none;align=left;verticalAlign=top;spacingLeft=4;spacingRight=4;overflow=hidden;rotatable=0;points=[[0,0.5],[1,0.5]];portConstraint=eastwest;whiteSpace=wrap;html=1;" parent="cMXHbLQRaVfCkkEPk3rR-146" vertex="1">
          <mxGeometry y="26" width="330" height="26" as="geometry" />
        </mxCell>
        <mxCell id="cMXHbLQRaVfCkkEPk3rR-148" value="+ textToActionPerformer(text:String): void" style="text;strokeColor=none;fillColor=none;align=left;verticalAlign=top;spacingLeft=4;spacingRight=4;overflow=hidden;rotatable=0;points=[[0,0.5],[1,0.5]];portConstraint=eastwest;whiteSpace=wrap;html=1;" parent="cMXHbLQRaVfCkkEPk3rR-146" vertex="1">
          <mxGeometry y="52" width="330" height="26" as="geometry" />
        </mxCell>
        <mxCell id="cMXHbLQRaVfCkkEPk3rR-160" value="NewsManager" style="swimlane;fontStyle=1;align=center;verticalAlign=top;childLayout=stackLayout;horizontal=1;startSize=26;horizontalStack=0;resizeParent=1;resizeParentMax=0;resizeLast=0;collapsible=1;marginBottom=0;whiteSpace=wrap;html=1;" parent="WIyWlLk6GJQsqaUBKTNV-1" vertex="1">
          <mxGeometry x="6575" y="14" width="240" height="242" as="geometry" />
        </mxCell>
        <mxCell id="cMXHbLQRaVfCkkEPk3rR-161" value="+ transactionID: String" style="text;strokeColor=none;fillColor=none;align=left;verticalAlign=top;spacingLeft=4;spacingRight=4;overflow=hidden;rotatable=0;points=[[0,0.5],[1,0.5]];portConstraint=eastwest;whiteSpace=wrap;html=1;" parent="cMXHbLQRaVfCkkEPk3rR-160" vertex="1">
          <mxGeometry y="26" width="240" height="26" as="geometry" />
        </mxCell>
        <mxCell id="cMXHbLQRaVfCkkEPk3rR-162" value="+ newsPosts: ArrayList&amp;lt;Object&amp;gt;" style="text;strokeColor=none;fillColor=none;align=left;verticalAlign=top;spacingLeft=4;spacingRight=4;overflow=hidden;rotatable=0;points=[[0,0.5],[1,0.5]];portConstraint=eastwest;whiteSpace=wrap;html=1;" parent="cMXHbLQRaVfCkkEPk3rR-160" vertex="1">
          <mxGeometry y="52" width="240" height="26" as="geometry" />
        </mxCell>
        <mxCell id="cMXHbLQRaVfCkkEPk3rR-164" value="- Subcribers: ArrayList&amp;lt;Observer&amp;gt;" style="text;strokeColor=none;fillColor=none;align=left;verticalAlign=top;spacingLeft=4;spacingRight=4;overflow=hidden;rotatable=0;points=[[0,0.5],[1,0.5]];portConstraint=eastwest;whiteSpace=wrap;html=1;" parent="cMXHbLQRaVfCkkEPk3rR-160" vertex="1">
          <mxGeometry y="78" width="240" height="26" as="geometry" />
        </mxCell>
        <mxCell id="cMXHbLQRaVfCkkEPk3rR-165" value="" style="line;strokeWidth=1;fillColor=none;align=left;verticalAlign=middle;spacingTop=-1;spacingLeft=3;spacingRight=3;rotatable=0;labelPosition=right;points=[];portConstraint=eastwest;strokeColor=inherit;" parent="cMXHbLQRaVfCkkEPk3rR-160" vertex="1">
          <mxGeometry y="104" width="240" height="8" as="geometry" />
        </mxCell>
        <mxCell id="cMXHbLQRaVfCkkEPk3rR-166" value="+ newPost(postObject:Object): void" style="text;strokeColor=none;fillColor=none;align=left;verticalAlign=top;spacingLeft=4;spacingRight=4;overflow=hidden;rotatable=0;points=[[0,0.5],[1,0.5]];portConstraint=eastwest;whiteSpace=wrap;html=1;" parent="cMXHbLQRaVfCkkEPk3rR-160" vertex="1">
          <mxGeometry y="112" width="240" height="26" as="geometry" />
        </mxCell>
        <mxCell id="cMXHbLQRaVfCkkEPk3rR-167" value="+ deletePost(postNum:int): void" style="text;strokeColor=none;fillColor=none;align=left;verticalAlign=top;spacingLeft=4;spacingRight=4;overflow=hidden;rotatable=0;points=[[0,0.5],[1,0.5]];portConstraint=eastwest;whiteSpace=wrap;html=1;" parent="cMXHbLQRaVfCkkEPk3rR-160" vertex="1">
          <mxGeometry y="138" width="240" height="26" as="geometry" />
        </mxCell>
        <mxCell id="cMXHbLQRaVfCkkEPk3rR-168" value="+ attach(Observer): void" style="text;strokeColor=none;fillColor=none;align=left;verticalAlign=top;spacingLeft=4;spacingRight=4;overflow=hidden;rotatable=0;points=[[0,0.5],[1,0.5]];portConstraint=eastwest;whiteSpace=wrap;html=1;" parent="cMXHbLQRaVfCkkEPk3rR-160" vertex="1">
          <mxGeometry y="164" width="240" height="26" as="geometry" />
        </mxCell>
        <mxCell id="cMXHbLQRaVfCkkEPk3rR-169" value="+ detach(Observer): void" style="text;strokeColor=none;fillColor=none;align=left;verticalAlign=top;spacingLeft=4;spacingRight=4;overflow=hidden;rotatable=0;points=[[0,0.5],[1,0.5]];portConstraint=eastwest;whiteSpace=wrap;html=1;" parent="cMXHbLQRaVfCkkEPk3rR-160" vertex="1">
          <mxGeometry y="190" width="240" height="26" as="geometry" />
        </mxCell>
        <mxCell id="cMXHbLQRaVfCkkEPk3rR-170" value="+ notify(): void" style="text;strokeColor=none;fillColor=none;align=left;verticalAlign=top;spacingLeft=4;spacingRight=4;overflow=hidden;rotatable=0;points=[[0,0.5],[1,0.5]];portConstraint=eastwest;whiteSpace=wrap;html=1;" parent="cMXHbLQRaVfCkkEPk3rR-160" vertex="1">
          <mxGeometry y="216" width="240" height="26" as="geometry" />
        </mxCell>
        <mxCell id="cMXHbLQRaVfCkkEPk3rR-171" value="" style="endArrow=block;dashed=1;endFill=0;endSize=12;html=1;rounded=0;exitX=0.284;exitY=1.021;exitDx=0;exitDy=0;exitPerimeter=0;entryX=0.5;entryY=0;entryDx=0;entryDy=0;" parent="WIyWlLk6GJQsqaUBKTNV-1" source="cMXHbLQRaVfCkkEPk3rR-170" target="X0b0RHwHDyXbMrfLogEa-126" edge="1">
          <mxGeometry width="160" relative="1" as="geometry">
            <mxPoint x="6660" y="270" as="sourcePoint" />
            <mxPoint x="6820" y="270" as="targetPoint" />
          </mxGeometry>
        </mxCell>
        <mxCell id="cMXHbLQRaVfCkkEPk3rR-195" value="TicketSubmitter" style="swimlane;fontStyle=1;align=center;verticalAlign=top;childLayout=stackLayout;horizontal=1;startSize=26;horizontalStack=0;resizeParent=1;resizeParentMax=0;resizeLast=0;collapsible=1;marginBottom=0;whiteSpace=wrap;html=1;" parent="WIyWlLk6GJQsqaUBKTNV-1" vertex="1">
          <mxGeometry x="7130" y="380" width="270" height="218" as="geometry" />
        </mxCell>
        <mxCell id="cMXHbLQRaVfCkkEPk3rR-196" value="- createdTickets: ArrayList&amp;lt;String&amp;gt;" style="text;strokeColor=none;fillColor=none;align=left;verticalAlign=top;spacingLeft=4;spacingRight=4;overflow=hidden;rotatable=0;points=[[0,0.5],[1,0.5]];portConstraint=eastwest;whiteSpace=wrap;html=1;" parent="cMXHbLQRaVfCkkEPk3rR-195" vertex="1">
          <mxGeometry y="26" width="270" height="26" as="geometry" />
        </mxCell>
        <mxCell id="cMXHbLQRaVfCkkEPk3rR-197" value="- Subcribers: ArrayList&amp;lt;Observer&amp;gt;" style="text;strokeColor=none;fillColor=none;align=left;verticalAlign=top;spacingLeft=4;spacingRight=4;overflow=hidden;rotatable=0;points=[[0,0.5],[1,0.5]];portConstraint=eastwest;whiteSpace=wrap;html=1;" parent="cMXHbLQRaVfCkkEPk3rR-195" vertex="1">
          <mxGeometry y="52" width="270" height="26" as="geometry" />
        </mxCell>
        <mxCell id="cMXHbLQRaVfCkkEPk3rR-198" value="" style="line;strokeWidth=1;fillColor=none;align=left;verticalAlign=middle;spacingTop=-1;spacingLeft=3;spacingRight=3;rotatable=0;labelPosition=right;points=[];portConstraint=eastwest;strokeColor=inherit;" parent="cMXHbLQRaVfCkkEPk3rR-195" vertex="1">
          <mxGeometry y="78" width="270" height="8" as="geometry" />
        </mxCell>
        <mxCell id="cMXHbLQRaVfCkkEPk3rR-199" value="+ addTicket(text:String): void" style="text;strokeColor=none;fillColor=none;align=left;verticalAlign=top;spacingLeft=4;spacingRight=4;overflow=hidden;rotatable=0;points=[[0,0.5],[1,0.5]];portConstraint=eastwest;whiteSpace=wrap;html=1;" parent="cMXHbLQRaVfCkkEPk3rR-195" vertex="1">
          <mxGeometry y="86" width="270" height="26" as="geometry" />
        </mxCell>
        <mxCell id="cMXHbLQRaVfCkkEPk3rR-200" value="+viewTicket(ticketNum:int): void" style="text;strokeColor=none;fillColor=none;align=left;verticalAlign=top;spacingLeft=4;spacingRight=4;overflow=hidden;rotatable=0;points=[[0,0.5],[1,0.5]];portConstraint=eastwest;whiteSpace=wrap;html=1;" parent="cMXHbLQRaVfCkkEPk3rR-195" vertex="1">
          <mxGeometry y="112" width="270" height="26" as="geometry" />
        </mxCell>
        <mxCell id="cMXHbLQRaVfCkkEPk3rR-201" value="+ attach(Observer): void" style="text;strokeColor=none;fillColor=none;align=left;verticalAlign=top;spacingLeft=4;spacingRight=4;overflow=hidden;rotatable=0;points=[[0,0.5],[1,0.5]];portConstraint=eastwest;whiteSpace=wrap;html=1;" parent="cMXHbLQRaVfCkkEPk3rR-195" vertex="1">
          <mxGeometry y="138" width="270" height="26" as="geometry" />
        </mxCell>
        <mxCell id="cMXHbLQRaVfCkkEPk3rR-202" value="+ detach(Observer): void" style="text;strokeColor=none;fillColor=none;align=left;verticalAlign=top;spacingLeft=4;spacingRight=4;overflow=hidden;rotatable=0;points=[[0,0.5],[1,0.5]];portConstraint=eastwest;whiteSpace=wrap;html=1;" parent="cMXHbLQRaVfCkkEPk3rR-195" vertex="1">
          <mxGeometry y="164" width="270" height="26" as="geometry" />
        </mxCell>
        <mxCell id="cMXHbLQRaVfCkkEPk3rR-203" value="+ notify(): void" style="text;strokeColor=none;fillColor=none;align=left;verticalAlign=top;spacingLeft=4;spacingRight=4;overflow=hidden;rotatable=0;points=[[0,0.5],[1,0.5]];portConstraint=eastwest;whiteSpace=wrap;html=1;" parent="cMXHbLQRaVfCkkEPk3rR-195" vertex="1">
          <mxGeometry y="190" width="270" height="28" as="geometry" />
        </mxCell>
        <mxCell id="cMXHbLQRaVfCkkEPk3rR-204" value="TicketManager" style="swimlane;fontStyle=1;align=center;verticalAlign=top;childLayout=stackLayout;horizontal=1;startSize=26;horizontalStack=0;resizeParent=1;resizeParentMax=0;resizeLast=0;collapsible=1;marginBottom=0;whiteSpace=wrap;html=1;" parent="WIyWlLk6GJQsqaUBKTNV-1" vertex="1">
          <mxGeometry x="7411" y="380" width="270" height="218" as="geometry" />
        </mxCell>
        <mxCell id="cMXHbLQRaVfCkkEPk3rR-205" value="- tickets: ArrayList&amp;lt;String&amp;gt;" style="text;strokeColor=none;fillColor=none;align=left;verticalAlign=top;spacingLeft=4;spacingRight=4;overflow=hidden;rotatable=0;points=[[0,0.5],[1,0.5]];portConstraint=eastwest;whiteSpace=wrap;html=1;" parent="cMXHbLQRaVfCkkEPk3rR-204" vertex="1">
          <mxGeometry y="26" width="270" height="26" as="geometry" />
        </mxCell>
        <mxCell id="cMXHbLQRaVfCkkEPk3rR-206" value="- Subcribers: ArrayList&amp;lt;Observer&amp;gt;" style="text;strokeColor=none;fillColor=none;align=left;verticalAlign=top;spacingLeft=4;spacingRight=4;overflow=hidden;rotatable=0;points=[[0,0.5],[1,0.5]];portConstraint=eastwest;whiteSpace=wrap;html=1;" parent="cMXHbLQRaVfCkkEPk3rR-204" vertex="1">
          <mxGeometry y="52" width="270" height="26" as="geometry" />
        </mxCell>
        <mxCell id="cMXHbLQRaVfCkkEPk3rR-207" value="" style="line;strokeWidth=1;fillColor=none;align=left;verticalAlign=middle;spacingTop=-1;spacingLeft=3;spacingRight=3;rotatable=0;labelPosition=right;points=[];portConstraint=eastwest;strokeColor=inherit;" parent="cMXHbLQRaVfCkkEPk3rR-204" vertex="1">
          <mxGeometry y="78" width="270" height="8" as="geometry" />
        </mxCell>
        <mxCell id="cMXHbLQRaVfCkkEPk3rR-208" value="+ replyToTicket(reply:String, ticketNum:int): void" style="text;strokeColor=none;fillColor=none;align=left;verticalAlign=top;spacingLeft=4;spacingRight=4;overflow=hidden;rotatable=0;points=[[0,0.5],[1,0.5]];portConstraint=eastwest;whiteSpace=wrap;html=1;" parent="cMXHbLQRaVfCkkEPk3rR-204" vertex="1">
          <mxGeometry y="86" width="270" height="26" as="geometry" />
        </mxCell>
        <mxCell id="cMXHbLQRaVfCkkEPk3rR-209" value="+ resolveTicket(ticketNum:int): void" style="text;strokeColor=none;fillColor=none;align=left;verticalAlign=top;spacingLeft=4;spacingRight=4;overflow=hidden;rotatable=0;points=[[0,0.5],[1,0.5]];portConstraint=eastwest;whiteSpace=wrap;html=1;" parent="cMXHbLQRaVfCkkEPk3rR-204" vertex="1">
          <mxGeometry y="112" width="270" height="26" as="geometry" />
        </mxCell>
        <mxCell id="cMXHbLQRaVfCkkEPk3rR-210" value="+ attach(Observer): void" style="text;strokeColor=none;fillColor=none;align=left;verticalAlign=top;spacingLeft=4;spacingRight=4;overflow=hidden;rotatable=0;points=[[0,0.5],[1,0.5]];portConstraint=eastwest;whiteSpace=wrap;html=1;" parent="cMXHbLQRaVfCkkEPk3rR-204" vertex="1">
          <mxGeometry y="138" width="270" height="26" as="geometry" />
        </mxCell>
        <mxCell id="cMXHbLQRaVfCkkEPk3rR-211" value="+ detach(Observer): void" style="text;strokeColor=none;fillColor=none;align=left;verticalAlign=top;spacingLeft=4;spacingRight=4;overflow=hidden;rotatable=0;points=[[0,0.5],[1,0.5]];portConstraint=eastwest;whiteSpace=wrap;html=1;" parent="cMXHbLQRaVfCkkEPk3rR-204" vertex="1">
          <mxGeometry y="164" width="270" height="26" as="geometry" />
        </mxCell>
        <mxCell id="cMXHbLQRaVfCkkEPk3rR-212" value="+ notify(): void" style="text;strokeColor=none;fillColor=none;align=left;verticalAlign=top;spacingLeft=4;spacingRight=4;overflow=hidden;rotatable=0;points=[[0,0.5],[1,0.5]];portConstraint=eastwest;whiteSpace=wrap;html=1;" parent="cMXHbLQRaVfCkkEPk3rR-204" vertex="1">
          <mxGeometry y="190" width="270" height="28" as="geometry" />
        </mxCell>
        <mxCell id="cMXHbLQRaVfCkkEPk3rR-213" value="TheftReportManager" style="swimlane;fontStyle=1;align=center;verticalAlign=top;childLayout=stackLayout;horizontal=1;startSize=26;horizontalStack=0;resizeParent=1;resizeParentMax=0;resizeLast=0;collapsible=1;marginBottom=0;whiteSpace=wrap;html=1;" parent="WIyWlLk6GJQsqaUBKTNV-1" vertex="1">
          <mxGeometry x="7691" y="379" width="300" height="218" as="geometry" />
        </mxCell>
        <mxCell id="cMXHbLQRaVfCkkEPk3rR-214" value="- theftReports: ArrayList&amp;lt;Object&amp;gt;" style="text;strokeColor=none;fillColor=none;align=left;verticalAlign=top;spacingLeft=4;spacingRight=4;overflow=hidden;rotatable=0;points=[[0,0.5],[1,0.5]];portConstraint=eastwest;whiteSpace=wrap;html=1;" parent="cMXHbLQRaVfCkkEPk3rR-213" vertex="1">
          <mxGeometry y="26" width="300" height="26" as="geometry" />
        </mxCell>
        <mxCell id="cMXHbLQRaVfCkkEPk3rR-215" value="- Subcribers: ArrayList&amp;lt;Observer&amp;gt;" style="text;strokeColor=none;fillColor=none;align=left;verticalAlign=top;spacingLeft=4;spacingRight=4;overflow=hidden;rotatable=0;points=[[0,0.5],[1,0.5]];portConstraint=eastwest;whiteSpace=wrap;html=1;" parent="cMXHbLQRaVfCkkEPk3rR-213" vertex="1">
          <mxGeometry y="52" width="300" height="26" as="geometry" />
        </mxCell>
        <mxCell id="cMXHbLQRaVfCkkEPk3rR-216" value="" style="line;strokeWidth=1;fillColor=none;align=left;verticalAlign=middle;spacingTop=-1;spacingLeft=3;spacingRight=3;rotatable=0;labelPosition=right;points=[];portConstraint=eastwest;strokeColor=inherit;" parent="cMXHbLQRaVfCkkEPk3rR-213" vertex="1">
          <mxGeometry y="78" width="300" height="8" as="geometry" />
        </mxCell>
        <mxCell id="cMXHbLQRaVfCkkEPk3rR-217" value="+ viewTheftReport(reportNum:String): void" style="text;strokeColor=none;fillColor=none;align=left;verticalAlign=top;spacingLeft=4;spacingRight=4;overflow=hidden;rotatable=0;points=[[0,0.5],[1,0.5]];portConstraint=eastwest;whiteSpace=wrap;html=1;" parent="cMXHbLQRaVfCkkEPk3rR-213" vertex="1">
          <mxGeometry y="86" width="300" height="26" as="geometry" />
        </mxCell>
        <mxCell id="cMXHbLQRaVfCkkEPk3rR-218" value="+ createReportUpdate(text:String, reportNum:int): void" style="text;strokeColor=none;fillColor=none;align=left;verticalAlign=top;spacingLeft=4;spacingRight=4;overflow=hidden;rotatable=0;points=[[0,0.5],[1,0.5]];portConstraint=eastwest;whiteSpace=wrap;html=1;" parent="cMXHbLQRaVfCkkEPk3rR-213" vertex="1">
          <mxGeometry y="112" width="300" height="26" as="geometry" />
        </mxCell>
        <mxCell id="cMXHbLQRaVfCkkEPk3rR-219" value="+ attach(Observer): void" style="text;strokeColor=none;fillColor=none;align=left;verticalAlign=top;spacingLeft=4;spacingRight=4;overflow=hidden;rotatable=0;points=[[0,0.5],[1,0.5]];portConstraint=eastwest;whiteSpace=wrap;html=1;" parent="cMXHbLQRaVfCkkEPk3rR-213" vertex="1">
          <mxGeometry y="138" width="300" height="26" as="geometry" />
        </mxCell>
        <mxCell id="cMXHbLQRaVfCkkEPk3rR-220" value="+ detach(Observer): void" style="text;strokeColor=none;fillColor=none;align=left;verticalAlign=top;spacingLeft=4;spacingRight=4;overflow=hidden;rotatable=0;points=[[0,0.5],[1,0.5]];portConstraint=eastwest;whiteSpace=wrap;html=1;" parent="cMXHbLQRaVfCkkEPk3rR-213" vertex="1">
          <mxGeometry y="164" width="300" height="26" as="geometry" />
        </mxCell>
        <mxCell id="cMXHbLQRaVfCkkEPk3rR-221" value="+ notify(): void" style="text;strokeColor=none;fillColor=none;align=left;verticalAlign=top;spacingLeft=4;spacingRight=4;overflow=hidden;rotatable=0;points=[[0,0.5],[1,0.5]];portConstraint=eastwest;whiteSpace=wrap;html=1;" parent="cMXHbLQRaVfCkkEPk3rR-213" vertex="1">
          <mxGeometry y="190" width="300" height="28" as="geometry" />
        </mxCell>
        <mxCell id="cMXHbLQRaVfCkkEPk3rR-223" value="" style="endArrow=diamondThin;endFill=0;endSize=24;html=1;rounded=0;exitX=0.796;exitY=-0.001;exitDx=0;exitDy=0;exitPerimeter=0;entryX=0;entryY=0.919;entryDx=0;entryDy=0;entryPerimeter=0;strokeWidth=3;" parent="WIyWlLk6GJQsqaUBKTNV-1" source="X0b0RHwHDyXbMrfLogEa-58" target="cMXHbLQRaVfCkkEPk3rR-203" edge="1">
          <mxGeometry width="160" relative="1" as="geometry">
            <mxPoint x="7100" y="620" as="sourcePoint" />
            <mxPoint x="7100" y="600" as="targetPoint" />
          </mxGeometry>
        </mxCell>
        <mxCell id="cMXHbLQRaVfCkkEPk3rR-225" value="" style="endArrow=block;dashed=1;endFill=0;endSize=12;html=1;rounded=0;entryX=1.004;entryY=0.442;entryDx=0;entryDy=0;entryPerimeter=0;exitX=-0.013;exitY=0.107;exitDx=0;exitDy=0;exitPerimeter=0;" parent="WIyWlLk6GJQsqaUBKTNV-1" source="cMXHbLQRaVfCkkEPk3rR-195" target="X0b0RHwHDyXbMrfLogEa-126" edge="1">
          <mxGeometry width="160" relative="1" as="geometry">
            <mxPoint x="6900" y="360" as="sourcePoint" />
            <mxPoint x="7060" y="360" as="targetPoint" />
          </mxGeometry>
        </mxCell>
        <mxCell id="cMXHbLQRaVfCkkEPk3rR-226" value="" style="endArrow=block;dashed=1;endFill=0;endSize=12;html=1;rounded=0;entryX=1.004;entryY=0.313;entryDx=0;entryDy=0;exitX=-0.013;exitY=0.086;exitDx=0;exitDy=0;exitPerimeter=0;entryPerimeter=0;" parent="WIyWlLk6GJQsqaUBKTNV-1" source="cMXHbLQRaVfCkkEPk3rR-204" target="X0b0RHwHDyXbMrfLogEa-126" edge="1">
          <mxGeometry width="160" relative="1" as="geometry">
            <mxPoint x="6990" y="360" as="sourcePoint" />
            <mxPoint x="7150" y="360" as="targetPoint" />
          </mxGeometry>
        </mxCell>
        <mxCell id="cMXHbLQRaVfCkkEPk3rR-227" value="" style="endArrow=block;dashed=1;endFill=0;endSize=12;html=1;rounded=0;entryX=1.005;entryY=0.155;entryDx=0;entryDy=0;entryPerimeter=0;exitX=-0.002;exitY=0.046;exitDx=0;exitDy=0;exitPerimeter=0;" parent="WIyWlLk6GJQsqaUBKTNV-1" source="cMXHbLQRaVfCkkEPk3rR-213" target="X0b0RHwHDyXbMrfLogEa-126" edge="1">
          <mxGeometry width="160" relative="1" as="geometry">
            <mxPoint x="6940" y="340" as="sourcePoint" />
            <mxPoint x="7100" y="340" as="targetPoint" />
          </mxGeometry>
        </mxCell>
        <mxCell id="cMXHbLQRaVfCkkEPk3rR-228" value="DashBoardFacade" style="swimlane;fontStyle=1;align=center;verticalAlign=top;childLayout=stackLayout;horizontal=1;startSize=26;horizontalStack=0;resizeParent=1;resizeParentMax=0;resizeLast=0;collapsible=1;marginBottom=0;whiteSpace=wrap;html=1;" parent="WIyWlLk6GJQsqaUBKTNV-1" vertex="1">
          <mxGeometry x="4160" y="1244" width="360" height="268" as="geometry" />
        </mxCell>
        <mxCell id="cMXHbLQRaVfCkkEPk3rR-229" value="- balanceRetriever: BalancesRetiever" style="text;strokeColor=none;fillColor=none;align=left;verticalAlign=top;spacingLeft=4;spacingRight=4;overflow=hidden;rotatable=0;points=[[0,0.5],[1,0.5]];portConstraint=eastwest;whiteSpace=wrap;html=1;" parent="cMXHbLQRaVfCkkEPk3rR-228" vertex="1">
          <mxGeometry y="26" width="360" height="26" as="geometry" />
        </mxCell>
        <mxCell id="cMXHbLQRaVfCkkEPk3rR-230" value="- transactionRetriever: TransactionsRetiever" style="text;strokeColor=none;fillColor=none;align=left;verticalAlign=top;spacingLeft=4;spacingRight=4;overflow=hidden;rotatable=0;points=[[0,0.5],[1,0.5]];portConstraint=eastwest;whiteSpace=wrap;html=1;" parent="cMXHbLQRaVfCkkEPk3rR-228" vertex="1">
          <mxGeometry y="52" width="360" height="26" as="geometry" />
        </mxCell>
        <mxCell id="cMXHbLQRaVfCkkEPk3rR-231" value="- creditCardsSummary: CreditCardManager" style="text;strokeColor=none;fillColor=none;align=left;verticalAlign=top;spacingLeft=4;spacingRight=4;overflow=hidden;rotatable=0;points=[[0,0.5],[1,0.5]];portConstraint=eastwest;whiteSpace=wrap;html=1;" parent="cMXHbLQRaVfCkkEPk3rR-228" vertex="1">
          <mxGeometry y="78" width="360" height="26" as="geometry" />
        </mxCell>
        <mxCell id="cMXHbLQRaVfCkkEPk3rR-232" value="- accountsSummary: AccountManager" style="text;strokeColor=none;fillColor=none;align=left;verticalAlign=top;spacingLeft=4;spacingRight=4;overflow=hidden;rotatable=0;points=[[0,0.5],[1,0.5]];portConstraint=eastwest;whiteSpace=wrap;html=1;" parent="cMXHbLQRaVfCkkEPk3rR-228" vertex="1">
          <mxGeometry y="104" width="360" height="26" as="geometry" />
        </mxCell>
        <mxCell id="cMXHbLQRaVfCkkEPk3rR-236" value="" style="line;strokeWidth=1;fillColor=none;align=left;verticalAlign=middle;spacingTop=-1;spacingLeft=3;spacingRight=3;rotatable=0;labelPosition=right;points=[];portConstraint=eastwest;strokeColor=inherit;" parent="cMXHbLQRaVfCkkEPk3rR-228" vertex="1">
          <mxGeometry y="130" width="360" height="8" as="geometry" />
        </mxCell>
        <mxCell id="cMXHbLQRaVfCkkEPk3rR-237" value="+ viewCreditCards(clientSSN: String): ArrayList&amp;lt;String&amp;gt;&amp;nbsp;" style="text;strokeColor=none;fillColor=none;align=left;verticalAlign=top;spacingLeft=4;spacingRight=4;overflow=hidden;rotatable=0;points=[[0,0.5],[1,0.5]];portConstraint=eastwest;whiteSpace=wrap;html=1;" parent="cMXHbLQRaVfCkkEPk3rR-228" vertex="1">
          <mxGeometry y="138" width="360" height="26" as="geometry" />
        </mxCell>
        <mxCell id="cMXHbLQRaVfCkkEPk3rR-238" value="+ viewAccounts(clientSSN:String): ArrayList&amp;lt;String&amp;gt;" style="text;strokeColor=none;fillColor=none;align=left;verticalAlign=top;spacingLeft=4;spacingRight=4;overflow=hidden;rotatable=0;points=[[0,0.5],[1,0.5]];portConstraint=eastwest;whiteSpace=wrap;html=1;" parent="cMXHbLQRaVfCkkEPk3rR-228" vertex="1">
          <mxGeometry y="164" width="360" height="26" as="geometry" />
        </mxCell>
        <mxCell id="cMXHbLQRaVfCkkEPk3rR-240" value="+ viewTransactions(clientSSN:String): ArrayList&amp;lt;Transaction&amp;gt;" style="text;strokeColor=none;fillColor=none;align=left;verticalAlign=top;spacingLeft=4;spacingRight=4;overflow=hidden;rotatable=0;points=[[0,0.5],[1,0.5]];portConstraint=eastwest;whiteSpace=wrap;html=1;" parent="cMXHbLQRaVfCkkEPk3rR-228" vertex="1">
          <mxGeometry y="190" width="360" height="26" as="geometry" />
        </mxCell>
        <mxCell id="cMXHbLQRaVfCkkEPk3rR-244" value="+ viewBalances(clientSSN: String): void" style="text;strokeColor=none;fillColor=none;align=left;verticalAlign=top;spacingLeft=4;spacingRight=4;overflow=hidden;rotatable=0;points=[[0,0.5],[1,0.5]];portConstraint=eastwest;whiteSpace=wrap;html=1;" parent="cMXHbLQRaVfCkkEPk3rR-228" vertex="1">
          <mxGeometry y="216" width="360" height="26" as="geometry" />
        </mxCell>
        <mxCell id="cMXHbLQRaVfCkkEPk3rR-283" value="+ viewLoans(clientSSN: String): void" style="text;strokeColor=none;fillColor=none;align=left;verticalAlign=top;spacingLeft=4;spacingRight=4;overflow=hidden;rotatable=0;points=[[0,0.5],[1,0.5]];portConstraint=eastwest;whiteSpace=wrap;html=1;" parent="cMXHbLQRaVfCkkEPk3rR-228" vertex="1">
          <mxGeometry y="242" width="360" height="26" as="geometry" />
        </mxCell>
        <mxCell id="cMXHbLQRaVfCkkEPk3rR-246" value="BalancesRetriever" style="swimlane;fontStyle=1;align=center;verticalAlign=top;childLayout=stackLayout;horizontal=1;startSize=26;horizontalStack=0;resizeParent=1;resizeParentMax=0;resizeLast=0;collapsible=1;marginBottom=0;whiteSpace=wrap;html=1;" parent="WIyWlLk6GJQsqaUBKTNV-1" vertex="1">
          <mxGeometry x="4680" y="1200" width="410" height="190.32" as="geometry" />
        </mxCell>
        <mxCell id="cMXHbLQRaVfCkkEPk3rR-247" value="- accounts: AccountManager" style="text;strokeColor=none;fillColor=none;align=left;verticalAlign=top;spacingLeft=4;spacingRight=4;overflow=hidden;rotatable=0;points=[[0,0.5],[1,0.5]];portConstraint=eastwest;whiteSpace=wrap;html=1;" parent="cMXHbLQRaVfCkkEPk3rR-246" vertex="1">
          <mxGeometry y="26" width="410" height="26" as="geometry" />
        </mxCell>
        <mxCell id="cMXHbLQRaVfCkkEPk3rR-248" value="- loans: LoanManager" style="text;strokeColor=none;fillColor=none;align=left;verticalAlign=top;spacingLeft=4;spacingRight=4;overflow=hidden;rotatable=0;points=[[0,0.5],[1,0.5]];portConstraint=eastwest;whiteSpace=wrap;html=1;" parent="cMXHbLQRaVfCkkEPk3rR-246" vertex="1">
          <mxGeometry y="52" width="410" height="26" as="geometry" />
        </mxCell>
        <mxCell id="cMXHbLQRaVfCkkEPk3rR-249" value="- creditCards: CreditCardManager" style="text;strokeColor=none;fillColor=none;align=left;verticalAlign=top;spacingLeft=4;spacingRight=4;overflow=hidden;rotatable=0;points=[[0,0.5],[1,0.5]];portConstraint=eastwest;whiteSpace=wrap;html=1;" parent="cMXHbLQRaVfCkkEPk3rR-246" vertex="1">
          <mxGeometry y="78" width="410" height="26" as="geometry" />
        </mxCell>
        <mxCell id="cMXHbLQRaVfCkkEPk3rR-254" value="" style="line;strokeWidth=1;fillColor=none;align=left;verticalAlign=middle;spacingTop=-1;spacingLeft=3;spacingRight=3;rotatable=0;labelPosition=right;points=[];portConstraint=eastwest;strokeColor=inherit;" parent="cMXHbLQRaVfCkkEPk3rR-246" vertex="1">
          <mxGeometry y="104" width="410" height="8" as="geometry" />
        </mxCell>
        <mxCell id="cMXHbLQRaVfCkkEPk3rR-255" value="+ viewAccountBalances(clientSSN:String): ArrayList&amp;lt;Double&amp;gt;" style="text;strokeColor=none;fillColor=none;align=left;verticalAlign=top;spacingLeft=4;spacingRight=4;overflow=hidden;rotatable=0;points=[[0,0.5],[1,0.5]];portConstraint=eastwest;whiteSpace=wrap;html=1;" parent="cMXHbLQRaVfCkkEPk3rR-246" vertex="1">
          <mxGeometry y="112" width="410" height="26.32" as="geometry" />
        </mxCell>
        <mxCell id="cMXHbLQRaVfCkkEPk3rR-256" value="+ viewCrecitCardBalances(clientSSN: String): ArrayList&amp;lt;Double&amp;gt;" style="text;strokeColor=none;fillColor=none;align=left;verticalAlign=top;spacingLeft=4;spacingRight=4;overflow=hidden;rotatable=0;points=[[0,0.5],[1,0.5]];portConstraint=eastwest;whiteSpace=wrap;html=1;" parent="cMXHbLQRaVfCkkEPk3rR-246" vertex="1">
          <mxGeometry y="138.32" width="410" height="26" as="geometry" />
        </mxCell>
        <mxCell id="cMXHbLQRaVfCkkEPk3rR-257" value="+ viewLoans(clientSSN: String): ArrayList&amp;lt;Double&amp;gt;" style="text;strokeColor=none;fillColor=none;align=left;verticalAlign=top;spacingLeft=4;spacingRight=4;overflow=hidden;rotatable=0;points=[[0,0.5],[1,0.5]];portConstraint=eastwest;whiteSpace=wrap;html=1;" parent="cMXHbLQRaVfCkkEPk3rR-246" vertex="1">
          <mxGeometry y="164.32" width="410" height="26" as="geometry" />
        </mxCell>
        <mxCell id="cMXHbLQRaVfCkkEPk3rR-264" value="TransactionsRetriever" style="swimlane;fontStyle=1;align=center;verticalAlign=top;childLayout=stackLayout;horizontal=1;startSize=26;horizontalStack=0;resizeParent=1;resizeParentMax=0;resizeLast=0;collapsible=1;marginBottom=0;whiteSpace=wrap;html=1;" parent="WIyWlLk6GJQsqaUBKTNV-1" vertex="1">
          <mxGeometry x="4680" y="1454" width="410" height="160" as="geometry" />
        </mxCell>
        <mxCell id="cMXHbLQRaVfCkkEPk3rR-265" value="- accountTransactions: ArrayList&amp;lt;String&amp;gt;" style="text;strokeColor=none;fillColor=none;align=left;verticalAlign=top;spacingLeft=4;spacingRight=4;overflow=hidden;rotatable=0;points=[[0,0.5],[1,0.5]];portConstraint=eastwest;whiteSpace=wrap;html=1;" parent="cMXHbLQRaVfCkkEPk3rR-264" vertex="1">
          <mxGeometry y="26" width="410" height="26" as="geometry" />
        </mxCell>
        <mxCell id="cMXHbLQRaVfCkkEPk3rR-272" value="" style="line;strokeWidth=1;fillColor=none;align=left;verticalAlign=middle;spacingTop=-1;spacingLeft=3;spacingRight=3;rotatable=0;labelPosition=right;points=[];portConstraint=eastwest;strokeColor=inherit;" parent="cMXHbLQRaVfCkkEPk3rR-264" vertex="1">
          <mxGeometry y="52" width="410" height="8" as="geometry" />
        </mxCell>
        <mxCell id="cMXHbLQRaVfCkkEPk3rR-273" value="+ viewTransctions(clientSSN:String): ArrayList&amp;lt;Double&amp;gt;" style="text;strokeColor=none;fillColor=none;align=left;verticalAlign=top;spacingLeft=4;spacingRight=4;overflow=hidden;rotatable=0;points=[[0,0.5],[1,0.5]];portConstraint=eastwest;whiteSpace=wrap;html=1;" parent="cMXHbLQRaVfCkkEPk3rR-264" vertex="1">
          <mxGeometry y="60" width="410" height="26" as="geometry" />
        </mxCell>
        <mxCell id="cMXHbLQRaVfCkkEPk3rR-274" value="+ viewBillTransactions(clientSSN: String): Double" style="text;strokeColor=none;fillColor=none;align=left;verticalAlign=top;spacingLeft=4;spacingRight=4;overflow=hidden;rotatable=0;points=[[0,0.5],[1,0.5]];portConstraint=eastwest;whiteSpace=wrap;html=1;" parent="cMXHbLQRaVfCkkEPk3rR-264" vertex="1">
          <mxGeometry y="86" width="410" height="22" as="geometry" />
        </mxCell>
        <mxCell id="cMXHbLQRaVfCkkEPk3rR-275" value="+ viewCreditTransaction(clientSSN:String): ArrayList&amp;lt;Double&amp;gt;" style="text;strokeColor=none;fillColor=none;align=left;verticalAlign=top;spacingLeft=4;spacingRight=4;overflow=hidden;rotatable=0;points=[[0,0.5],[1,0.5]];portConstraint=eastwest;whiteSpace=wrap;html=1;" parent="cMXHbLQRaVfCkkEPk3rR-264" vertex="1">
          <mxGeometry y="108" width="410" height="26" as="geometry" />
        </mxCell>
        <mxCell id="cMXHbLQRaVfCkkEPk3rR-276" value="+ viewBankTransferTransactions(clientSSN:String): ArrayList&amp;lt;Double&amp;gt;" style="text;strokeColor=none;fillColor=none;align=left;verticalAlign=top;spacingLeft=4;spacingRight=4;overflow=hidden;rotatable=0;points=[[0,0.5],[1,0.5]];portConstraint=eastwest;whiteSpace=wrap;html=1;" parent="cMXHbLQRaVfCkkEPk3rR-264" vertex="1">
          <mxGeometry y="134" width="410" height="26" as="geometry" />
        </mxCell>
        <mxCell id="cMXHbLQRaVfCkkEPk3rR-284" value="" style="endArrow=none;html=1;edgeStyle=orthogonalEdgeStyle;rounded=0;entryX=0;entryY=1.039;entryDx=0;entryDy=0;entryPerimeter=0;" parent="WIyWlLk6GJQsqaUBKTNV-1" target="cMXHbLQRaVfCkkEPk3rR-249" edge="1">
          <mxGeometry relative="1" as="geometry">
            <mxPoint x="4520" y="1304" as="sourcePoint" />
            <mxPoint x="4699" y="1305" as="targetPoint" />
            <Array as="points">
              <mxPoint x="4520" y="1305" />
            </Array>
          </mxGeometry>
        </mxCell>
        <mxCell id="cMXHbLQRaVfCkkEPk3rR-285" value="1" style="edgeLabel;resizable=0;html=1;align=left;verticalAlign=bottom;" parent="cMXHbLQRaVfCkkEPk3rR-284" connectable="0" vertex="1">
          <mxGeometry x="-1" relative="1" as="geometry">
            <mxPoint x="10" as="offset" />
          </mxGeometry>
        </mxCell>
        <mxCell id="cMXHbLQRaVfCkkEPk3rR-286" value="1" style="edgeLabel;resizable=0;html=1;align=right;verticalAlign=bottom;" parent="cMXHbLQRaVfCkkEPk3rR-284" connectable="0" vertex="1">
          <mxGeometry x="1" relative="1" as="geometry">
            <mxPoint x="-10" as="offset" />
          </mxGeometry>
        </mxCell>
        <mxCell id="cMXHbLQRaVfCkkEPk3rR-287" value="" style="endArrow=none;html=1;edgeStyle=orthogonalEdgeStyle;rounded=0;entryX=-0.003;entryY=0.988;entryDx=0;entryDy=0;entryPerimeter=0;exitX=1;exitY=0.865;exitDx=0;exitDy=0;exitPerimeter=0;" parent="WIyWlLk6GJQsqaUBKTNV-1" source="cMXHbLQRaVfCkkEPk3rR-244" edge="1">
          <mxGeometry relative="1" as="geometry">
            <mxPoint x="4520.014958863127" y="1485" as="sourcePoint" />
            <mxPoint x="4680" y="1484" as="targetPoint" />
            <Array as="points">
              <mxPoint x="4520" y="1484" />
            </Array>
          </mxGeometry>
        </mxCell>
        <mxCell id="cMXHbLQRaVfCkkEPk3rR-288" value="1" style="edgeLabel;resizable=0;html=1;align=left;verticalAlign=bottom;" parent="cMXHbLQRaVfCkkEPk3rR-287" connectable="0" vertex="1">
          <mxGeometry x="-1" relative="1" as="geometry">
            <mxPoint x="10" as="offset" />
          </mxGeometry>
        </mxCell>
        <mxCell id="cMXHbLQRaVfCkkEPk3rR-289" value="1" style="edgeLabel;resizable=0;html=1;align=right;verticalAlign=bottom;" parent="cMXHbLQRaVfCkkEPk3rR-287" connectable="0" vertex="1">
          <mxGeometry x="1" relative="1" as="geometry">
            <mxPoint x="-10" as="offset" />
          </mxGeometry>
        </mxCell>
        <mxCell id="X0b0RHwHDyXbMrfLogEa-361" value="" style="endArrow=block;dashed=1;endFill=0;endSize=12;html=1;rounded=0;entryX=0.541;entryY=1.02;entryDx=0;entryDy=0;entryPerimeter=0;exitX=1;exitY=0;exitDx=0;exitDy=0;" parent="WIyWlLk6GJQsqaUBKTNV-1" source="X0b0RHwHDyXbMrfLogEa-328" target="X0b0RHwHDyXbMrfLogEa-126" edge="1">
          <mxGeometry width="160" relative="1" as="geometry">
            <mxPoint x="5800" y="798" as="sourcePoint" />
            <mxPoint x="6574" y="610" as="targetPoint" />
          </mxGeometry>
        </mxCell>
        <mxCell id="viko27SV_4iMDGABbFN1-4" value="" style="group" parent="WIyWlLk6GJQsqaUBKTNV-1" vertex="1" connectable="0">
          <mxGeometry x="6960" y="640" width="705" as="geometry" />
        </mxCell>
        <mxCell id="viko27SV_4iMDGABbFN1-8" value="" style="group" parent="viko27SV_4iMDGABbFN1-4" vertex="1" connectable="0">
          <mxGeometry width="705" as="geometry" />
        </mxCell>
        <mxCell id="X0b0RHwHDyXbMrfLogEa-84" value="" style="endArrow=block;endSize=16;endFill=0;html=1;rounded=0;entryX=0.5;entryY=1;entryDx=0;entryDy=0;exitX=0.5;exitY=0;exitDx=0;exitDy=0;strokeWidth=3;" parent="viko27SV_4iMDGABbFN1-8" source="X0b0RHwHDyXbMrfLogEa-58" target="X0b0RHwHDyXbMrfLogEa-19" edge="1">
          <mxGeometry width="160" relative="1" as="geometry">
            <mxPoint x="-70" y="-30" as="sourcePoint" />
            <mxPoint y="-30" as="targetPoint" />
            <Array as="points">
              <mxPoint />
              <mxPoint x="60" />
            </Array>
          </mxGeometry>
        </mxCell>
        <mxCell id="X0b0RHwHDyXbMrfLogEa-142" value="" style="endArrow=none;html=1;rounded=0;entryX=0.25;entryY=0;entryDx=0;entryDy=0;strokeWidth=3;" parent="viko27SV_4iMDGABbFN1-8" target="X0b0RHwHDyXbMrfLogEa-66" edge="1">
          <mxGeometry width="50" height="50" relative="1" as="geometry">
            <mxPoint x="10" as="sourcePoint" />
            <mxPoint x="580" as="targetPoint" />
            <Array as="points">
              <mxPoint x="705" />
            </Array>
          </mxGeometry>
        </mxCell>
        <mxCell id="X0b0RHwHDyXbMrfLogEa-287" value="" style="endArrow=none;html=1;edgeStyle=orthogonalEdgeStyle;rounded=0;exitX=0.928;exitY=1.014;exitDx=0;exitDy=0;exitPerimeter=0;entryX=0.133;entryY=0;entryDx=0;entryDy=0;entryPerimeter=0;" parent="WIyWlLk6GJQsqaUBKTNV-1" source="X0b0RHwHDyXbMrfLogEa-242" target="X0b0RHwHDyXbMrfLogEa-58" edge="1">
          <mxGeometry relative="1" as="geometry">
            <mxPoint x="6120" y="490" as="sourcePoint" />
            <mxPoint x="6840" y="710" as="targetPoint" />
            <Array as="points">
              <mxPoint x="6122" y="480" />
              <mxPoint x="6850" y="480" />
            </Array>
          </mxGeometry>
        </mxCell>
        <mxCell id="X0b0RHwHDyXbMrfLogEa-288" value="0..*" style="edgeLabel;resizable=0;html=1;align=left;verticalAlign=bottom;" parent="X0b0RHwHDyXbMrfLogEa-287" connectable="0" vertex="1">
          <mxGeometry x="-1" relative="1" as="geometry">
            <mxPoint x="8" y="17" as="offset" />
          </mxGeometry>
        </mxCell>
        <mxCell id="X0b0RHwHDyXbMrfLogEa-289" value="1" style="edgeLabel;resizable=0;html=1;align=right;verticalAlign=bottom;" parent="X0b0RHwHDyXbMrfLogEa-287" connectable="0" vertex="1">
          <mxGeometry x="1" relative="1" as="geometry">
            <mxPoint x="12" as="offset" />
          </mxGeometry>
        </mxCell>
      </root>
    </mxGraphModel>
  </diagram>
</mxfile>
